<?xml version="1.0" encoding="UTF-8" standalone="no"?>
<!DOCTYPE svg PUBLIC "-//W3C//DTD SVG 1.1//EN" "http://www.w3.org/Graphics/SVG/1.1/DTD/svg11.dtd">
<svg width="100%" height="100%" viewBox="0 0 427 152" version="1.1" xmlns="http://www.w3.org/2000/svg" xmlns:xlink="http://www.w3.org/1999/xlink" xml:space="preserve" xmlns:serif="http://www.serif.com/" style="fill-rule:evenodd;clip-rule:evenodd;stroke-miterlimit:2;">
    <g transform="matrix(1,0,0,1,-2360,-1200)">
        <g id="Crusader-Logo-name" transform="matrix(1,0,0,1,296,-924)">
            <g id="crusader-icon">
                <g transform="matrix(0.11811,0,0,0.11811,2065.12,2125.54)">
                    <path d="M504,38l0,372l-466,0" style="fill:none;stroke:rgb(204,17,51);stroke-width:38.81px;"/>
                </g>
                <g transform="matrix(0.11811,0,0,0.11811,2065.12,2125.54)">
                    <path d="M876,504l-466,0l0,372" style="fill:none;stroke:rgb(204,17,51);stroke-width:38.81px;"/>
                </g>
            </g>
            <g transform="matrix(2.81988,0,0,2.82152,2129.97,2229.93)">
                <text x="0px" y="0px" style="font-family:'BioRhymeExpanded-Regular', 'BioRhyme Expanded';font-stretch:expanded;font-size:16px;fill:rgb(204,17,51);">c<tspan x="15.296px 30.48px 48.8px 63.536px 80.128px 98.288px 113.536px " y="0px 0px 0px 0px 0px 0px 0px ">rusader</tspan></text>
                <text x="0px" y="16px" style="font-family:'BioRhymeExpanded-Regular', 'BioRhyme Expanded';font-stretch:expanded;font-size:16px;fill:rgb(204,17,51);">c<tspan x="15.296px 30.064px 45.248px 61.744px 72.608px 82.112px 97.808px " y="16px 16px 16px 16px 16px 16px 16px ">reative</tspan></text>
            </g>
        </g>
    </g>
</svg>
