<?xml version="1.0" encoding="UTF-8" standalone="no"?>
<!DOCTYPE svg PUBLIC "-//W3C//DTD SVG 1.1//EN" "http://www.w3.org/Graphics/SVG/1.1/DTD/svg11.dtd">
<svg width="100%" height="100%" viewBox="0 0 160 160" version="1.1" xmlns="http://www.w3.org/2000/svg" xmlns:xlink="http://www.w3.org/1999/xlink" xml:space="preserve" xmlns:serif="http://www.serif.com/" style="fill-rule:evenodd;clip-rule:evenodd;stroke-miterlimit:2;">
    <g transform="matrix(1,0,0,1,-2067,-1224)">
        <g id="Crusader-cross-details" transform="matrix(1,0,0,1,600,-956)">
            <g id="Crusader-cross-main">
                <g transform="matrix(0.11811,0,0,0.11811,1467.45,2180.64)">
                    <path d="M744,38l0,565l-706,0" style="fill:none;stroke:rgb(204,17,51);stroke-width:35.28px;"/>
                </g>
                <g transform="matrix(0.11811,0,0,0.11811,1467.45,2180.64)">
                    <path d="M1308,744l-705,0l0,564" style="fill:none;stroke:rgb(204,17,51);stroke-width:35.28px;"/>
                </g>
            </g>
            <g id="Crusader-cross-detail">
                <g transform="matrix(0.11811,0,0,0.11811,1467.45,2180.64)">
                    <path d="M603,179l0,282" style="fill:none;stroke:rgb(0,0,44);stroke-width:35.28px;"/>
                </g>
                <g transform="matrix(0.11811,0,0,0.11811,1467.45,2180.64)">
                    <path d="M179,744l282,0" style="fill:none;stroke:rgb(0,0,44);stroke-width:35.28px;"/>
                </g>
                <g transform="matrix(0.11811,0,0,0.11811,1467.45,2180.64)">
                    <path d="M744,885l0,282" style="fill:none;stroke:rgb(0,0,44);stroke-width:35.28px;"/>
                </g>
                <g transform="matrix(0.11811,0,0,0.11811,1467.45,2180.64)">
                    <path d="M885,603l282,0" style="fill:none;stroke:rgb(0,0,44);stroke-width:35.28px;"/>
                </g>
            </g>
        </g>
    </g>
</svg>
