<?xml version="1.0" encoding="UTF-8" standalone="no"?>
<!DOCTYPE svg PUBLIC "-//W3C//DTD SVG 1.1//EN" "http://www.w3.org/Graphics/SVG/1.1/DTD/svg11.dtd">
<svg width="100%" height="100%" viewBox="0 0 564 582" version="1.1" xmlns="http://www.w3.org/2000/svg" xmlns:xlink="http://www.w3.org/1999/xlink" xml:space="preserve" xmlns:serif="http://www.serif.com/" style="fill-rule:evenodd;clip-rule:evenodd;stroke-linecap:round;stroke-linejoin:round;stroke-miterlimit:2;">
    <g transform="matrix(1,0,0,1,-348,-2089)">
        <g id="Concierge-icon-with-orbit">
            <g id="orbiting-icons" transform="matrix(1,0,0,1,343.774,2085.38)">
                <g id="orbits">
                    <g transform="matrix(0.11811,0,0,0.11811,0,0)">
                        <path d="M3763,3763c-741,742 -1944,742 -2685,0c-742,-741 -742,-1944 0,-2685c741,-742 1944,-742 2685,0c236,236 406,529 492,851" style="fill:none;stroke:rgb(204,204,238);stroke-width:18px;stroke-dasharray:18,72,0,0;"/>
                    </g>
                    <g transform="matrix(0.11811,0,0,0.11811,0,0)">
                        <path d="M1009,2606c66,505 396,936 867,1130c726,301 1559,-44 1860,-770c301,-727 -44,-1560 -770,-1861c-596,-247 -1283,-63 -1675,449" style="fill:none;stroke:rgb(204,204,238);stroke-width:18px;stroke-dasharray:18,72,0,0;"/>
                    </g>
                    <g transform="matrix(0.11811,0,0,0.11811,0,0)">
                        <path d="M2421,47c-1311,0 -2374,1063 -2374,2374c0,1311 1063,2373 2374,2373c1311,0 2373,-1062 2373,-2373" style="fill:none;stroke:rgb(204,204,238);stroke-width:18px;stroke-dasharray:18,72,0,0;"/>
                    </g>
                </g>
                <g id="icons">
                    <g transform="matrix(0.11811,0,0,0.11811,0,0)">
                        <path d="M4385,1798c-35,-35 -81,-54 -130,-54c-101,0 -184,82 -184,183c0,33 9,64 25,92l-26,95l97,-25c27,14 57,22 88,22c101,0 185,-82 185,-183c0,-49 -21,-96 -55,-130Zm-130,282c-28,0 -55,-7 -78,-21l-6,-3l-57,15l15,-57l-4,-5c-15,-25 -23,-53 -23,-82c0,-84 69,-152 153,-152c41,0 79,16 108,45c28,28 46,67 46,108c0,84 -70,152 -154,152Zm83,-114c-4,-2 -27,-13 -31,-15c-4,-2 -7,-2 -10,2c-3,5 -12,15 -15,18c-2,3 -5,4 -10,1c-27,-13 -44,-24 -62,-54c-5,-8 5,-8 13,-25c2,-3 1,-6 0,-8c-1,-2 -10,-25 -14,-34c-4,-9 -8,-8 -11,-8l-8,0c-3,0 -8,1 -13,5c-4,5 -16,16 -16,39c0,22 17,44 19,47c2,3 32,50 78,70c30,12 41,13 56,11c8,-1 27,-11 30,-22c4,-11 4,-20 3,-22c-1,-2 -4,-3 -9,-5Z" style="fill:rgb(204,204,238);fill-rule:nonzero;"/>
                    </g>
                    <g transform="matrix(0.11811,0,0,0.11811,0,0)">
                        <path d="M562,1933c-52,0 -95,43 -95,95c0,53 43,95 95,95c53,0 96,-42 96,-95c0,-52 -43,-95 -96,-95Zm0,157c-33,0 -61,-28 -61,-62c0,-34 27,-62 61,-62c35,0 62,28 62,62c0,34 -28,62 -62,62Zm122,-161c0,13 -10,22 -23,22c-12,0 -22,-9 -22,-22c0,-12 10,-22 22,-22c13,0 23,10 23,22Zm62,23c-1,-30 -8,-56 -30,-78c-21,-22 -47,-28 -77,-30c-31,-2 -122,-2 -153,0c-30,2 -56,8 -78,30c-21,22 -28,48 -30,78c-1,30 -1,122 0,153c2,29 9,56 30,77c22,22 48,29 78,30c31,2 122,2 153,0c30,-1 56,-8 77,-30c22,-21 29,-48 30,-77c2,-31 2,-123 0,-153Zm-39,185c-7,17 -19,29 -35,36c-25,9 -83,7 -110,7c-26,0 -84,2 -109,-7c-16,-7 -28,-19 -35,-36c-10,-24 -7,-82 -7,-109c0,-27 -3,-85 7,-109c6,-16 19,-29 35,-35c25,-10 83,-8 109,-8c27,0 85,-2 110,8c16,6 28,19 35,35c10,24 7,82 7,109c0,27 3,85 -7,109Z" style="fill:rgb(204,204,238);fill-rule:nonzero;"/>
                    </g>
                    <g transform="matrix(0.11811,0,0,0.11811,0,0)">
                        <path d="M1072,598c0,-95 -76,-171 -171,-171c-94,0 -170,76 -170,171c0,85 62,156 144,168l0,-119l-44,0l0,-49l44,0l0,-38c0,-43 25,-67 64,-67c19,0 39,4 39,4l0,42l-22,0c-21,0 -28,13 -28,27l0,32l48,0l-8,49l-40,0l0,119c82,-12 144,-83 144,-168Z" style="fill:rgb(204,204,238);fill-rule:nonzero;"/>
                    </g>
                    <g transform="matrix(0.11811,0,0,0.11811,0,0)">
                        <path d="M3829,3763c0,16 0,30 -2,44l-128,0c-1,-14 -2,-28 -2,-44c0,-15 1,-30 2,-44l128,0c2,14 2,29 2,44Zm105,-44c4,14 6,29 6,44c0,16 -2,30 -6,44l-85,0c2,-14 3,-29 3,-44c0,-15 -1,-30 -3,-44l85,0Zm-7,-22l-81,0c-6,-44 -20,-81 -38,-104c54,14 98,53 119,104Zm-103,0l-122,0c5,-25 11,-47 19,-65c7,-16 15,-28 23,-36c8,-7 14,-9 19,-9c5,0 12,2 20,9c7,8 15,20 23,36c7,18 14,40 18,65Zm-224,0c20,-51 64,-90 118,-104c-17,23 -31,60 -38,104l-80,0Zm77,22c-1,14 -2,29 -2,44c0,15 1,30 2,44l-84,0c-4,-14 -6,-28 -6,-44c0,-15 2,-30 6,-44l84,0Zm44,176c-8,-18 -14,-40 -19,-65l122,0c-4,25 -11,47 -18,65c-8,16 -16,28 -23,35c-8,8 -15,10 -20,10c-5,0 -11,-2 -19,-10c-8,-7 -16,-19 -23,-35Zm-3,39c-54,-14 -98,-53 -118,-104l80,0c7,44 21,80 38,104Zm90,0c18,-24 32,-60 38,-104l81,0c-21,51 -65,90 -119,104Z" style="fill:rgb(204,204,238);fill-rule:nonzero;"/>
                    </g>
                    <g transform="matrix(0.11811,0,0,0.11811,0,0)">
                        <path d="M1135,3804l-113,-195l111,0l113,195l-111,0Zm-95,16l-55,98l214,0l55,-98l-214,0Zm-32,-187l-107,187l56,98l108,-187l-57,-98Z" style="fill:rgb(204,204,238);fill-rule:nonzero;"/>
                    </g>
                    <g transform="matrix(0.11811,0,0,0.11811,0,0)">
                        <path d="M2364,4823c-2,13 -12,75 -15,92c0,1 0,2 -2,2l-51,0c-5,0 -9,-5 -9,-10l41,-256c1,-7 7,-12 14,-12c105,0 113,-2 140,8c42,16 45,55 31,97c-15,43 -50,62 -97,62c-30,1 -48,-5 -52,17Zm169,-99c-1,-1 -1,-2 -2,1c-1,7 -3,15 -6,23c-27,78 -103,71 -141,71c-4,0 -7,3 -7,7c-16,97 -19,117 -19,117c0,5 3,9 8,9l43,0c6,0 11,-5 12,-11c1,-3 -1,5 10,-63c3,-15 10,-13 20,-13c49,0 87,-20 99,-78c4,-23 3,-49 -17,-63Z" style="fill:rgb(204,204,238);fill-rule:nonzero;"/>
                    </g>
                    <g transform="matrix(0.11811,0,0,0.11811,0,0)">
                        <path d="M2350,563c0,17 -14,32 -32,32c-18,0 -33,-15 -33,-32c0,-18 15,-33 33,-33l32,0l0,33Zm17,0c0,-18 14,-33 32,-33c18,0 32,15 32,33l0,81c0,18 -14,32 -32,32c-18,0 -32,-14 -32,-32l0,-81Zm32,-131c-18,0 -32,-14 -32,-32c0,-18 14,-33 32,-33c18,0 32,15 32,33l0,32l-32,0Zm0,17c18,0 32,14 32,32c0,18 -14,32 -32,32l-81,0c-18,0 -33,-14 -33,-32c0,-18 15,-32 33,-32l81,0Zm130,32c0,-18 15,-32 33,-32c18,0 32,14 32,32c0,18 -14,32 -32,32l-33,0l0,-32Zm-16,0c0,18 -15,32 -32,32c-18,0 -33,-14 -33,-32l0,-81c0,-18 15,-33 33,-33c17,0 32,15 32,33l0,81Zm-32,130c17,0 32,15 32,33c0,18 -15,32 -32,32c-18,0 -33,-14 -33,-32l0,-33l33,0Zm0,-16c-18,0 -33,-15 -33,-32c0,-18 15,-33 33,-33l81,0c18,0 32,15 32,33c0,17 -14,32 -32,32l-81,0Z" style="fill:rgb(204,204,238);fill-rule:nonzero;"/>
                    </g>
                </g>
            </g>
            <g id="team-icons-service-concierge" transform="matrix(1,0,0,1,343.774,2085.38)">
                <g id="boxes">
                    <g transform="matrix(0.11811,0,0,0.11811,0,0)">
                        <path d="M3087,2030l276,0l0,1333l-552,0m-390,0l-391,0l0,-276" style="fill:none;stroke:rgb(0,0,44);stroke-width:26px;"/>
                    </g>
                    <g transform="matrix(0.11811,0,0,0.11811,0,0)">
                        <path d="M2421,3087l-667,0l0,-1333l1333,0l0,1333" style="fill:none;stroke:rgb(0,0,44);stroke-width:26px;"/>
                    </g>
                </g>
                <g id="highlight-asterisk-pointer">
                    <g id="pointer">
                        <g transform="matrix(0.11811,0,0,0.11811,0,0)">
                            <path d="M2941,3678l-130,-315" style="fill:none;stroke:rgb(204,17,51);stroke-width:26px;"/>
                        </g>
                        <g transform="matrix(0.11811,0,0,0.11811,0,0)">
                            <path d="M3363,3363l-552,0l-390,391l0,-1333l942,942Z" style="fill:none;stroke:rgb(204,17,51);stroke-width:26px;"/>
                        </g>
                    </g>
                    <g id="asterisk">
                        <g transform="matrix(0.11811,0,0,0.11811,0,0)">
                            <path d="M2067,2774l707,-707" style="fill:none;stroke:rgb(204,17,51);stroke-width:26px;"/>
                        </g>
                        <g transform="matrix(0.11811,0,0,0.11811,0,0)">
                            <path d="M2774,2774l-707,-707" style="fill:none;stroke:rgb(204,17,51);stroke-width:26px;"/>
                        </g>
                        <g transform="matrix(0.11811,0,0,0.11811,0,0)">
                            <path d="M2421,2921l0,-1000" style="fill:none;stroke:rgb(204,17,51);stroke-width:26px;"/>
                        </g>
                        <g transform="matrix(0.11811,0,0,0.11811,0,0)">
                            <path d="M2921,2421l-1000,0" style="fill:none;stroke:rgb(204,17,51);stroke-width:26px;"/>
                        </g>
                    </g>
                </g>
            </g>
        </g>
    </g>
</svg>
