<?xml version="1.0" encoding="UTF-8" standalone="no"?>
<!DOCTYPE svg PUBLIC "-//W3C//DTD SVG 1.1//EN" "http://www.w3.org/Graphics/SVG/1.1/DTD/svg11.dtd">
<svg width="100%" height="100%" viewBox="0 0 203 161" version="1.1" xmlns="http://www.w3.org/2000/svg" xmlns:xlink="http://www.w3.org/1999/xlink" xml:space="preserve" xmlns:serif="http://www.serif.com/" style="fill-rule:evenodd;clip-rule:evenodd;stroke-linejoin:round;stroke-miterlimit:2;">
    <g transform="matrix(1,0,0,1,-2018,-605)">
        <g id="logo-JKA" transform="matrix(0.11811,0,0,0.11811,2014.06,601.492)">
            <path d="M38,394l285,0l0,711c0,156 -128,284 -285,284l0,-995Zm1067,547l0,-181l-71,46l0,135c0,12 9,22 21,22l28,0c12,0 22,-10 22,-22Zm-711,-903c156,0 284,128 284,285l0,426l159,-82c-17,-7 -33,-17 -46,-31c-56,-55 -56,-145 0,-201c28,-27 64,-41 100,-41l214,0c156,0 284,128 284,284l0,356l-640,0l0,-199c0,-16 -13,-29 -28,-29l-43,0l0,228l-284,0l0,-918c0,-11 -10,-21 -22,-21l-78,0c18,24 29,53 29,85c0,79 -64,143 -143,143c-78,0 -142,-64 -142,-143c0,-78 64,-142 142,-142l214,0Zm711,434c0,-12 -10,-21 -22,-21l-78,0c42,55 38,135 -13,185c-11,11 -23,20 -35,26l-169,87l246,0l71,-46l0,-231Zm397,319c56,-56 146,-56 201,0c56,55 56,145 0,201c-55,56 -145,56 -201,0c-56,-56 -56,-146 0,-201Z" style="fill:rgb(204,17,51);"/>
        </g>
    </g>
</svg>
