<?xml version="1.0" encoding="UTF-8" standalone="no"?>
<!DOCTYPE svg PUBLIC "-//W3C//DTD SVG 1.1//EN" "http://www.w3.org/Graphics/SVG/1.1/DTD/svg11.dtd">
<svg width="100%" height="100%" viewBox="0 0 229 64" version="1.1" xmlns="http://www.w3.org/2000/svg" xmlns:xlink="http://www.w3.org/1999/xlink" xml:space="preserve" xmlns:serif="http://www.serif.com/" style="fill-rule:evenodd;clip-rule:evenodd;stroke-linejoin:round;stroke-miterlimit:2;">
    <g transform="matrix(1,0,0,1,-1557,-330)">
        <g id="logo-Grey" transform="matrix(0.11811,0,0,0.11811,1552.54,325.783)">
            <path d="M371,531c37,0 67,-29 67,-66l0,-54c0,-36 -30,-66 -67,-66l-66,0l0,-40l485,0c36,0 66,-30 66,-66l0,-95c0,-36 -30,-66 -66,-66l-85,0l0,93l-27,0c-59,0 -107,-48 -107,-106l0,-27l267,0c73,0 133,60 133,133l0,40c0,66 -48,121 -111,132l71,122c36,63 118,85 181,49c-25,-21 -47,-46 -65,-76c-73,-127 -30,-290 98,-364c131,-76 298,-27 369,107l-294,294c34,36 80,56 122,56l137,0c44,0 90,-23 115,-66l92,-160l-204,-267l61,0l170,221l127,-221l134,0l-154,267l-77,133c-23,39 -56,73 -98,98c-42,24 -87,35 -133,35l-233,0c-47,0 -93,-12 -134,-35c-127,73 -290,29 -363,-98l-54,-93l-157,0l0,93c0,73 -60,133 -133,133l-267,0c-73,0 -133,-60 -133,-133l0,-267c0,-73 60,-133 133,-133l267,0c24,0 47,7 67,18l0,9c0,58 -48,106 -107,106l-27,0l0,-26c0,-37 -29,-67 -66,-67l-67,0c-37,0 -67,30 -67,67l0,320c0,37 30,66 67,66l133,0Zm1025,-295c-38,-102 -112,-167 -177,-150c-71,19 -102,132 -70,253c11,38 26,72 44,101l203,-204Z" style="fill:rgb(204,17,51);"/>
        </g>
    </g>
</svg>
