<?xml version="1.0" encoding="UTF-8" standalone="no"?>
<!DOCTYPE svg PUBLIC "-//W3C//DTD SVG 1.1//EN" "http://www.w3.org/Graphics/SVG/1.1/DTD/svg11.dtd">
<svg width="100%" height="100%" viewBox="0 0 209 162" version="1.1" xmlns="http://www.w3.org/2000/svg" xmlns:xlink="http://www.w3.org/1999/xlink" xml:space="preserve" xmlns:serif="http://www.serif.com/" style="fill-rule:evenodd;clip-rule:evenodd;stroke-linecap:square;stroke-miterlimit:2;">
    <g transform="matrix(1,0,0,1,-1843,-289)">
        <g id="logo-JMF" transform="matrix(0.11811,0,0,0.11811,1845.96,292.01)">
            <path d="M1340,779l240,0m-1523,320c0,214 321,214 321,1l0,-642l-214,0m1176,801l0,-801l320,0m-908,-160l-214,0l0,-241m-374,241l214,0l0,-241m160,1202l0,-801l160,0c89,0 161,72 161,160c0,-88 71,-160 160,-160l160,0l0,801" style="fill:none;stroke:rgb(204,17,51);stroke-width:70.56px;"/>
        </g>
    </g>
</svg>
