<?xml version="1.0" encoding="UTF-8" standalone="no"?>
<!DOCTYPE svg PUBLIC "-//W3C//DTD SVG 1.1//EN" "http://www.w3.org/Graphics/SVG/1.1/DTD/svg11.dtd">
<svg width="100%" height="100%" viewBox="0 0 257 277" version="1.1" xmlns="http://www.w3.org/2000/svg" xmlns:xlink="http://www.w3.org/1999/xlink" xml:space="preserve" xmlns:serif="http://www.serif.com/" style="fill-rule:evenodd;clip-rule:evenodd;stroke-linecap:round;stroke-linejoin:round;stroke-miterlimit:2;">
    <g transform="matrix(1,0,0,1,-2561,-254)">
        <g id="logo-EstherSaved" transform="matrix(1,0,0,1,1128,-1444)">
            <g id="Lines">
                <g transform="matrix(0.11811,0,0,0.11811,1429.8,1694.42)">
                    <path d="M1111,1079c-97,11 -247,38 -305,14c-34,-14 -51,-81 -48,-114c8,-109 52,-228 63,-324c3,-29 -6,-56 -15,-70c-16,-23 -22,-72 -31,-98c-6,-19 -28,-30 -44,-41c-22,-13 -47,-25 -59,-33c-17,-13 -7,-15 -3,-15c13,-1 41,13 43,11c41,-47 89,-64 36,4c-1,1 -4,8 -5,10c15,-10 67,-22 73,-9c5,12 -32,20 -40,27c0,4 76,13 74,28c-1,11 -33,7 -43,4l76,93c0,48 4,86 4,146l0,5c0,21 1,41 3,60c3,35 8,67 9,91c268,-2 275,-43 368,-59" style="fill:none;stroke:rgb(204,17,51);stroke-width:23.64px;"/>
                </g>
                <g transform="matrix(0.11811,0,0,0.11811,1429.8,1694.42)">
                    <path d="M1431,710c4,4 -5,25 -4,37c4,43 9,59 -17,100c-48,78 48,186 49,243c0,49 -94,149 -109,93c-6,-23 -7,-69 -8,-83c-5,-69 -14,-172 -19,-197c-5,-23 -20,-48 -30,-72c-17,-40 -14,-63 10,-87c24,-23 33,-46 42,-61c10,-14 30,-20 29,1c-2,27 -22,72 -4,82c11,6 29,0 35,-30c3,-18 15,-35 26,-26Z" style="fill:none;stroke:rgb(204,17,51);stroke-width:23.64px;"/>
                </g>
                <g transform="matrix(0.11811,0,0,0.11811,1429.8,1694.42)">
                    <path d="M1461,483c-32,0 -66,39 -70,70c-8,56 -66,33 -41,75c7,13 -3,22 -7,27" style="fill:none;stroke:rgb(204,17,51);stroke-width:23.64px;"/>
                </g>
                <g transform="matrix(0.11811,0,0,0.11811,1429.8,1694.42)">
                    <path d="M1343,655c11,-14 47,-6 58,21c40,-2 87,-23 117,-66" style="fill:none;stroke:rgb(204,17,51);stroke-width:23.64px;"/>
                </g>
                <g transform="matrix(0.11811,0,0,0.11811,1429.8,1694.42)">
                    <path d="M1758,940c-123,-41 -157,80 -220,135c-32,28 -67,20 -86,-20" style="fill:none;stroke:rgb(204,17,51);stroke-width:23.64px;"/>
                </g>
                <g transform="matrix(0.11811,0,0,0.11811,1429.8,1694.42)">
                    <path d="M1342,1097c-63,41 -39,148 3,237c46,95 164,26 232,-12c50,-27 106,-69 147,-116" style="fill:none;stroke:rgb(204,17,51);stroke-width:23.64px;"/>
                </g>
                <g transform="matrix(0.11811,0,0,0.11811,1429.8,1694.42)">
                    <path d="M1758,940c58,37 20,160 -2,244c-29,115 -58,344 -58,469" style="fill:none;stroke:rgb(204,17,51);stroke-width:23.64px;"/>
                </g>
                <g transform="matrix(0.11811,0,0,0.11811,1429.8,1694.42)">
                    <path d="M645,396c-87,-6 -159,19 -250,7c-121,-17 -223,-92 -289,-179c-26,-34 -48,-67 -63,-102c58,21 151,-40 137,-70c-7,-15 -56,-10 -73,-3c-43,18 -61,45 -52,53c12,11 53,-1 77,-18c50,-35 -4,-27 -35,-7m93,1c80,173 226,228 347,231c82,2 179,-2 241,36c166,103 100,318 533,329c7,0 13,4 14,7m-10,16c-39,5 -167,12 -200,9c-88,-5 -156,-48 -211,-112" style="fill:none;stroke:rgb(204,17,51);stroke-width:23.64px;"/>
                </g>
                <g transform="matrix(0.11811,0,0,0.11811,1429.8,1694.42)">
                    <path d="M190,78c36,110 77,319 382,319" style="fill:none;stroke:rgb(204,17,51);stroke-width:23.64px;"/>
                </g>
                <g transform="matrix(0.11811,0,0,0.11811,1429.8,1694.42)">
                    <path d="M546,309c11,1 104,10 177,76" style="fill:none;stroke:rgb(204,17,51);stroke-width:23.64px;"/>
                </g>
                <g transform="matrix(0.11811,0,0,0.11811,1429.8,1694.42)">
                    <path d="M967,568c52,64 148,138 250,136" style="fill:none;stroke:rgb(204,17,51);stroke-width:23.64px;"/>
                </g>
                <g transform="matrix(0.11811,0,0,0.11811,1429.8,1694.42)">
                    <path d="M1626,570c16,-27 20,-30 30,-62c6,-21 5,-87 -9,-102c-13,-14 -124,2 -143,7c-27,6 -66,25 -66,58c11,-10 82,-13 93,63" style="fill:none;stroke:rgb(204,17,51);stroke-width:23.64px;"/>
                </g>
                <g transform="matrix(0.11811,0,0,0.11811,1429.8,1694.42)">
                    <path d="M1496,445c23,8 34,45 35,91c1,41 -2,84 -3,99c-3,55 -15,207 -49,233" style="fill:none;stroke:rgb(204,17,51);stroke-width:23.64px;"/>
                </g>
                <g transform="matrix(0.11811,0,0,0.11811,1429.8,1694.42)">
                    <path d="M1689,552c0,68 -27,159 -78,219c-44,51 -113,66 -151,116c-23,30 -15,58 -42,94" style="fill:none;stroke:rgb(204,17,51);stroke-width:23.64px;"/>
                </g>
                <g transform="matrix(0.11811,0,0,0.11811,1429.8,1694.42)">
                    <path d="M1647,406c42,28 128,204 112,323c-12,86 -60,122 -135,163c-67,36 -96,108 -106,133" style="fill:none;stroke:rgb(204,17,51);stroke-width:23.64px;"/>
                </g>
                <g transform="matrix(0.11811,0,0,0.11811,1429.8,1694.42)">
                    <path d="M1741,789c-3,66 48,92 66,128c59,115 -59,358 -51,613" style="fill:none;stroke:rgb(204,17,51);stroke-width:23.64px;"/>
                </g>
                <g transform="matrix(0.11811,0,0,0.11811,1429.8,1694.42)">
                    <path d="M1267,809c-70,157 -103,275 -131,419c-13,66 -67,321 -32,359c44,50 63,48 82,120c62,-131 170,-124 201,-279" style="fill:none;stroke:rgb(204,17,51);stroke-width:23.64px;"/>
                </g>
                <g transform="matrix(0.11811,0,0,0.11811,1429.8,1694.42)">
                    <path d="M1242,814c-41,45 -172,418 -117,455" style="fill:none;stroke:rgb(204,17,51);stroke-width:23.64px;"/>
                </g>
                <g transform="matrix(0.11811,0,0,0.11811,1429.8,1694.42)">
                    <path d="M1571,669c4,66 -30,96 -19,150" style="fill:none;stroke:rgb(204,17,51);stroke-width:23.64px;"/>
                </g>
                <g transform="matrix(0.11811,0,0,0.11811,1429.8,1694.42)">
                    <path d="M1340,1070c-104,70 -66,284 -104,460" style="fill:none;stroke:rgb(204,17,51);stroke-width:23.64px;"/>
                </g>
                <g transform="matrix(0.11811,0,0,0.11811,1429.8,1694.42)">
                    <path d="M899,868c6,124 -82,237 -119,132" style="fill:none;stroke:rgb(204,17,51);stroke-width:23.64px;"/>
                </g>
                <g transform="matrix(0.11811,0,0,0.11811,1429.8,1694.42)">
                    <path d="M1327,1367c-20,219 -100,185 -129,263" style="fill:none;stroke:rgb(204,17,51);stroke-width:23.64px;"/>
                </g>
                <g transform="matrix(0.11811,0,0,0.11811,1429.8,1694.42)">
                    <path d="M1463,1073c42,107 50,105 18,215" style="fill:none;stroke:rgb(204,17,51);stroke-width:23.64px;"/>
                </g>
                <g transform="matrix(0.11811,0,0,0.11811,1429.8,1694.42)">
                    <path d="M899,868c-32,84 -120,148 -137,73" style="fill:none;stroke:rgb(204,17,51);stroke-width:23.64px;"/>
                </g>
                <g transform="matrix(0.11811,0,0,0.11811,1429.8,1694.42)">
                    <path d="M1065,1664c-359,-96 -608,-421 -608,-792c0,-143 38,-285 110,-409" style="fill:none;stroke:rgb(204,17,51);stroke-width:23.64px;"/>
                </g>
                <g transform="matrix(0.11811,0,0,0.11811,1429.8,1694.42)">
                    <path d="M778,222c143,-109 318,-169 499,-169c452,0 819,367 819,819c0,218 -86,426 -240,580" style="fill:none;stroke:rgb(204,17,51);stroke-width:23.64px;"/>
                </g>
            </g>
            <g id="Text" transform="matrix(1,0,0,1,-2,0)">
                <g transform="matrix(2.81988,0,0,2.82152,1469.28,1945.53)">
                    <path d="M1.117,-11.203c0.651,-0 1.298,-0.003 1.942,-0.008c0.643,-0.005 1.233,-0.012 1.769,-0.019c0.537,-0.008 0.995,-0.02 1.375,-0.036c0.38,-0.015 0.638,-0.036 0.774,-0.062l-0.383,1.039c-0.172,-0.047 -0.373,-0.089 -0.602,-0.125c-0.198,-0.031 -0.439,-0.061 -0.722,-0.09c-0.284,-0.029 -0.611,-0.043 -0.981,-0.043c-0.125,0 -0.275,0.004 -0.449,0.012c-0.175,0.008 -0.343,0.017 -0.504,0.027c-0.188,0.011 -0.378,0.021 -0.57,0.031l-0,4.266c0.536,-0.005 1.02,-0.021 1.453,-0.047c0.432,-0.026 0.799,-0.052 1.101,-0.078c0.354,-0.031 0.667,-0.068 0.938,-0.109l-0.242,1.132c-0.36,-0.046 -0.727,-0.091 -1.102,-0.132c-0.323,-0.037 -0.674,-0.069 -1.055,-0.098c-0.38,-0.029 -0.744,-0.043 -1.093,-0.043l-0,4.898c0.614,0 1.179,-0.026 1.695,-0.078c0.516,-0.052 0.966,-0.112 1.351,-0.179c0.448,-0.073 0.857,-0.159 1.227,-0.258l-0.227,1.265c-0.062,-0.005 -0.156,-0.01 -0.281,-0.015c-0.125,-0.005 -0.264,-0.011 -0.418,-0.016c-0.153,-0.005 -0.315,-0.009 -0.484,-0.011c-0.169,-0.003 -0.33,-0.006 -0.481,-0.008c-0.151,-0.003 -0.285,-0.005 -0.402,-0.008c-0.117,-0.003 -0.202,-0.004 -0.254,-0.004l-3.375,-0l0,-0.031c0.031,-0.11 0.061,-0.245 0.09,-0.407c0.029,-0.161 0.053,-0.361 0.074,-0.601c0.021,-0.24 0.037,-0.525 0.047,-0.856c0.011,-0.33 0.016,-0.717 0.016,-1.16l-0,-5.086c-0,-0.442 -0.005,-0.829 -0.016,-1.16c-0.01,-0.331 -0.026,-0.617 -0.047,-0.859c-0.021,-0.242 -0.045,-0.444 -0.074,-0.606c-0.029,-0.161 -0.059,-0.297 -0.09,-0.406l0,-0.031Z" style="fill:rgb(204,17,51);fill-rule:nonzero;"/>
                    <path d="M11.738,-6.43l-0.109,0.016c-0.037,-0.12 -0.095,-0.247 -0.176,-0.383c-0.081,-0.135 -0.185,-0.26 -0.313,-0.375c-0.127,-0.114 -0.281,-0.21 -0.46,-0.285c-0.18,-0.076 -0.387,-0.113 -0.622,-0.113c-0.161,-0 -0.313,0.023 -0.457,0.07c-0.143,0.047 -0.268,0.116 -0.375,0.207c-0.106,0.091 -0.191,0.204 -0.254,0.34c-0.062,0.135 -0.093,0.294 -0.093,0.476c-0,0.256 0.079,0.499 0.238,0.731c0.159,0.232 0.358,0.461 0.598,0.687c0.239,0.227 0.498,0.455 0.777,0.684c0.279,0.229 0.538,0.469 0.777,0.719c0.24,0.25 0.439,0.517 0.598,0.801c0.159,0.283 0.238,0.589 0.238,0.918c0,0.265 -0.047,0.524 -0.14,0.777c-0.094,0.252 -0.239,0.478 -0.434,0.676c-0.195,0.198 -0.445,0.358 -0.75,0.48c-0.305,0.122 -0.668,0.184 -1.09,0.184c-0.25,-0 -0.483,-0.024 -0.699,-0.071c-0.216,-0.047 -0.414,-0.105 -0.594,-0.175c-0.179,-0.071 -0.341,-0.149 -0.484,-0.235c-0.143,-0.086 -0.27,-0.168 -0.379,-0.246l0.078,-1.484l0.125,-0c0.052,0.245 0.13,0.468 0.234,0.672c0.105,0.203 0.234,0.376 0.387,0.519c0.154,0.143 0.33,0.255 0.528,0.336c0.197,0.081 0.414,0.121 0.648,0.121c0.385,0 0.691,-0.107 0.918,-0.32c0.227,-0.214 0.34,-0.492 0.34,-0.836c-0,-0.276 -0.077,-0.53 -0.231,-0.762c-0.153,-0.232 -0.347,-0.454 -0.582,-0.668c-0.234,-0.213 -0.485,-0.427 -0.754,-0.64c-0.268,-0.214 -0.519,-0.442 -0.754,-0.684c-0.234,-0.242 -0.428,-0.508 -0.582,-0.797c-0.153,-0.289 -0.23,-0.618 -0.23,-0.988c-0,-0.302 0.056,-0.58 0.168,-0.832c0.112,-0.253 0.268,-0.469 0.469,-0.649c0.2,-0.179 0.439,-0.319 0.715,-0.418c0.276,-0.099 0.578,-0.148 0.906,-0.148c0.432,0 0.793,0.046 1.082,0.137c0.289,0.091 0.509,0.178 0.66,0.261l0.078,1.297Z" style="fill:rgb(204,17,51);fill-rule:nonzero;"/>
                    <path d="M16.035,-0.461c0.156,0 0.311,-0.029 0.465,-0.086c0.154,-0.057 0.302,-0.135 0.445,-0.234c0.143,-0.099 0.281,-0.212 0.414,-0.34c0.133,-0.128 0.257,-0.262 0.371,-0.402l0.078,0.039l-0.507,1.257c-0.063,0.032 -0.14,0.069 -0.231,0.114c-0.091,0.044 -0.2,0.086 -0.328,0.125c-0.128,0.039 -0.277,0.073 -0.449,0.101c-0.172,0.029 -0.375,0.043 -0.61,0.043c-0.697,0 -1.24,-0.189 -1.628,-0.566c-0.388,-0.378 -0.582,-0.968 -0.582,-1.77l-0,-5.211l-1.313,0.047l0,-0.687c0.162,0.01 0.354,0.018 0.578,0.023c0.224,0.005 0.469,0.008 0.735,0.008c-0.006,-0.37 -0.015,-0.697 -0.028,-0.98c-0.013,-0.284 -0.028,-0.532 -0.047,-0.743c-0.018,-0.211 -0.04,-0.389 -0.066,-0.535c-0.026,-0.146 -0.052,-0.268 -0.078,-0.367l-0,-0.031l1.804,-0l0,0.031c-0.031,0.099 -0.059,0.221 -0.085,0.367c-0.026,0.146 -0.049,0.323 -0.067,0.531c-0.018,0.209 -0.034,0.455 -0.047,0.739c-0.013,0.284 -0.022,0.613 -0.027,0.988c0.328,-0.005 0.65,-0.012 0.965,-0.02c0.315,-0.007 0.601,-0.018 0.859,-0.031c0.258,-0.013 0.477,-0.026 0.656,-0.039c0.18,-0.013 0.299,-0.025 0.356,-0.035l-0.141,0.797c-0.265,-0.005 -0.544,-0.013 -0.836,-0.024c-0.25,-0.01 -0.536,-0.018 -0.859,-0.023c-0.323,-0.005 -0.656,-0.01 -1,-0.016l-0,5.375c-0,0.323 0.035,0.585 0.105,0.786c0.071,0.2 0.162,0.358 0.274,0.472c0.112,0.115 0.239,0.193 0.383,0.235c0.143,0.041 0.29,0.062 0.441,0.062Z" style="fill:rgb(204,17,51);fill-rule:nonzero;"/>
                    <path d="M24.579,-5.266c-0,-0.687 -0.138,-1.192 -0.415,-1.515c-0.276,-0.323 -0.645,-0.485 -1.109,-0.485c-0.172,0 -0.363,0.036 -0.574,0.106c-0.211,0.07 -0.427,0.165 -0.649,0.285c-0.221,0.12 -0.441,0.259 -0.66,0.418c-0.218,0.159 -0.422,0.327 -0.609,0.504l-0,2.898c-0,0.443 0.005,0.83 0.016,1.16c0.01,0.331 0.026,0.616 0.046,0.856c0.021,0.24 0.045,0.44 0.071,0.602c0.026,0.161 0.054,0.296 0.086,0.406l-0,0.031l-1.805,0l-0,-0.031c0.031,-0.11 0.061,-0.245 0.09,-0.406c0.028,-0.162 0.052,-0.362 0.07,-0.602c0.018,-0.24 0.034,-0.525 0.047,-0.856c0.013,-0.33 0.02,-0.717 0.02,-1.16l-0,-5.57c-0,-0.443 -0.007,-0.829 -0.02,-1.16c-0.013,-0.331 -0.029,-0.616 -0.047,-0.856c-0.018,-0.239 -0.042,-0.44 -0.07,-0.601c-0.029,-0.162 -0.059,-0.297 -0.09,-0.406l-0,-0.032l1.805,0l-0,0.032c-0.032,0.109 -0.06,0.244 -0.086,0.406c-0.026,0.161 -0.05,0.362 -0.071,0.601c-0.02,0.24 -0.036,0.525 -0.046,0.856c-0.011,0.331 -0.016,0.717 -0.016,1.16l-0,2c0.208,-0.187 0.439,-0.372 0.691,-0.555c0.253,-0.182 0.515,-0.346 0.785,-0.492c0.271,-0.146 0.547,-0.263 0.829,-0.351c0.281,-0.089 0.557,-0.133 0.828,-0.133c0.406,-0 0.751,0.07 1.035,0.211c0.284,0.14 0.516,0.325 0.695,0.554c0.18,0.23 0.31,0.491 0.391,0.786c0.081,0.294 0.121,0.592 0.121,0.894l-0,2.656c-0,0.443 0.005,0.83 0.016,1.16c0.01,0.331 0.026,0.616 0.046,0.856c0.021,0.24 0.045,0.44 0.071,0.602c0.026,0.161 0.054,0.296 0.086,0.406l-0,0.031l-1.805,0l-0,-0.031c0.031,-0.11 0.061,-0.245 0.09,-0.406c0.028,-0.162 0.052,-0.362 0.07,-0.602c0.018,-0.24 0.034,-0.525 0.047,-0.856c0.013,-0.33 0.02,-0.717 0.02,-1.16l-0,-2.211Z" style="fill:rgb(204,17,51);fill-rule:nonzero;"/>
                    <path d="M30.701,0.141c-0.578,-0 -1.119,-0.092 -1.625,-0.274c-0.505,-0.182 -0.945,-0.449 -1.32,-0.801c-0.375,-0.351 -0.67,-0.786 -0.887,-1.304c-0.216,-0.519 -0.324,-1.111 -0.324,-1.778c0,-0.588 0.099,-1.134 0.297,-1.636c0.198,-0.503 0.471,-0.939 0.82,-1.309c0.349,-0.37 0.757,-0.659 1.223,-0.867c0.466,-0.208 0.97,-0.313 1.512,-0.313c0.536,0 1.034,0.093 1.492,0.278c0.458,0.185 0.855,0.453 1.191,0.804c0.336,0.352 0.602,0.787 0.797,1.305c0.196,0.518 0.301,1.108 0.317,1.77c-0.589,-0.011 -1.177,-0.019 -1.766,-0.024c-0.588,-0.005 -1.2,-0.008 -1.836,-0.008c-0.453,0 -0.894,0.003 -1.324,0.008c-0.43,0.005 -0.817,0.013 -1.16,0.024c0.031,0.541 0.116,1.031 0.254,1.468c0.138,0.438 0.328,0.812 0.57,1.121c0.242,0.31 0.536,0.549 0.883,0.715c0.346,0.167 0.738,0.25 1.176,0.25c0.302,0 0.587,-0.035 0.855,-0.105c0.268,-0.07 0.512,-0.168 0.73,-0.293c0.219,-0.125 0.415,-0.272 0.586,-0.442c0.172,-0.169 0.318,-0.352 0.438,-0.55l0.094,0.047l-0.578,1.39c-0.282,0.146 -0.618,0.27 -1.008,0.371c-0.391,0.102 -0.86,0.153 -1.407,0.153Zm-1.039,-4.766c0.521,-0 1.043,-0.001 1.567,-0.004c0.523,-0.003 0.999,-0.012 1.426,-0.027c-0.047,-0.453 -0.136,-0.86 -0.266,-1.219c-0.13,-0.359 -0.297,-0.664 -0.5,-0.914c-0.203,-0.25 -0.443,-0.443 -0.719,-0.578c-0.276,-0.136 -0.58,-0.203 -0.914,-0.203c-0.302,-0 -0.579,0.066 -0.832,0.199c-0.252,0.133 -0.473,0.324 -0.66,0.574c-0.188,0.25 -0.339,0.556 -0.453,0.918c-0.115,0.362 -0.182,0.775 -0.203,1.238c0.234,0.011 0.482,0.016 0.742,0.016l0.812,0Z" style="fill:rgb(204,17,51);fill-rule:nonzero;"/>
                    <path d="M35.201,-4.945c0,-0.443 -0.006,-0.83 -0.019,-1.16c-0.013,-0.331 -0.029,-0.616 -0.047,-0.856c-0.018,-0.24 -0.042,-0.44 -0.07,-0.601c-0.029,-0.162 -0.059,-0.297 -0.09,-0.407l-0,-0.031l1.804,0l0,0.031c-0.041,0.12 -0.076,0.266 -0.105,0.438c-0.029,0.172 -0.051,0.393 -0.066,0.664c0.192,-0.162 0.393,-0.32 0.601,-0.477c0.209,-0.156 0.422,-0.294 0.641,-0.414c0.219,-0.12 0.441,-0.216 0.668,-0.289c0.226,-0.073 0.454,-0.109 0.683,-0.109c0.141,-0 0.263,0.006 0.368,0.019c0.104,0.013 0.197,0.032 0.281,0.055c0.083,0.023 0.159,0.049 0.226,0.078c0.068,0.029 0.133,0.056 0.196,0.082l-0.383,1.492l-0.133,-0.031c-0.062,-0.229 -0.18,-0.413 -0.352,-0.551c-0.171,-0.138 -0.406,-0.207 -0.703,-0.207c-0.161,0 -0.33,0.029 -0.507,0.086c-0.178,0.057 -0.357,0.137 -0.54,0.238c-0.182,0.102 -0.364,0.219 -0.546,0.352c-0.183,0.133 -0.36,0.272 -0.532,0.418c-0.01,0.151 -0.015,0.315 -0.015,0.492l-0,2.578c-0,0.443 0.005,0.83 0.015,1.16c0.011,0.331 0.026,0.616 0.047,0.856c0.021,0.24 0.045,0.44 0.071,0.602c0.026,0.161 0.054,0.296 0.085,0.406l0,0.031l-1.804,0l-0,-0.031c0.031,-0.11 0.061,-0.245 0.09,-0.406c0.028,-0.162 0.052,-0.362 0.07,-0.602c0.018,-0.24 0.034,-0.525 0.047,-0.856c0.013,-0.33 0.019,-0.717 0.019,-1.16l0,-1.89Z" style="fill:rgb(204,17,51);fill-rule:nonzero;"/>
                    <path d="M45.789,-9.422l-0.172,0c-0.042,-0.12 -0.108,-0.255 -0.199,-0.406c-0.091,-0.151 -0.211,-0.293 -0.36,-0.426c-0.148,-0.133 -0.328,-0.243 -0.539,-0.332c-0.211,-0.088 -0.459,-0.133 -0.746,-0.133c-0.255,0 -0.482,0.039 -0.68,0.117c-0.197,0.079 -0.363,0.188 -0.496,0.329c-0.132,0.14 -0.233,0.307 -0.3,0.5c-0.068,0.192 -0.102,0.406 -0.102,0.64c-0,0.375 0.105,0.733 0.316,1.074c0.211,0.342 0.476,0.679 0.793,1.012c0.318,0.333 0.662,0.667 1.032,1c0.369,0.333 0.713,0.68 1.031,1.039c0.318,0.36 0.582,0.736 0.793,1.129c0.211,0.393 0.316,0.816 0.316,1.27c0,0.338 -0.058,0.678 -0.176,1.019c-0.117,0.341 -0.298,0.647 -0.543,0.918c-0.244,0.271 -0.559,0.491 -0.945,0.66c-0.385,0.17 -0.844,0.254 -1.375,0.254c-0.297,0 -0.579,-0.027 -0.847,-0.082c-0.269,-0.055 -0.516,-0.122 -0.743,-0.203c-0.226,-0.081 -0.429,-0.168 -0.609,-0.262c-0.18,-0.093 -0.327,-0.179 -0.441,-0.258l0.179,-1.726l0.196,-0c0.057,0.245 0.151,0.478 0.281,0.699c0.13,0.222 0.29,0.417 0.48,0.586c0.19,0.169 0.408,0.305 0.653,0.406c0.244,0.102 0.513,0.153 0.804,0.153c0.266,-0 0.504,-0.041 0.715,-0.121c0.211,-0.081 0.392,-0.193 0.543,-0.336c0.151,-0.144 0.267,-0.314 0.348,-0.512c0.081,-0.198 0.121,-0.414 0.121,-0.649c-0,-0.328 -0.06,-0.631 -0.18,-0.91c-0.12,-0.278 -0.277,-0.543 -0.472,-0.793c-0.196,-0.25 -0.417,-0.492 -0.665,-0.726c-0.247,-0.235 -0.501,-0.47 -0.761,-0.707c-0.261,-0.237 -0.515,-0.481 -0.762,-0.731c-0.247,-0.25 -0.469,-0.517 -0.664,-0.8c-0.195,-0.284 -0.353,-0.589 -0.473,-0.915c-0.119,-0.325 -0.179,-0.683 -0.179,-1.074c-0,-0.411 0.079,-0.782 0.238,-1.113c0.159,-0.331 0.37,-0.613 0.633,-0.848c0.263,-0.234 0.561,-0.414 0.894,-0.539c0.334,-0.125 0.677,-0.187 1.031,-0.187c0.261,-0 0.5,0.021 0.719,0.062c0.219,0.042 0.416,0.091 0.59,0.149c0.175,0.057 0.327,0.114 0.457,0.172c0.13,0.057 0.237,0.104 0.32,0.14l-0.054,1.461Z" style="fill:rgb(204,17,51);fill-rule:nonzero;"/>
                    <path d="M47.579,-2.305c0,-0.411 0.085,-0.768 0.254,-1.07c0.169,-0.302 0.394,-0.56 0.676,-0.773c0.281,-0.214 0.601,-0.387 0.961,-0.52c0.359,-0.133 0.731,-0.237 1.117,-0.312c0.385,-0.076 0.765,-0.128 1.14,-0.157c0.375,-0.028 0.719,-0.045 1.032,-0.051l-0,-0.398c-0,-0.344 -0.045,-0.641 -0.133,-0.891c-0.089,-0.25 -0.214,-0.457 -0.375,-0.621c-0.162,-0.164 -0.356,-0.286 -0.582,-0.367c-0.227,-0.081 -0.475,-0.121 -0.746,-0.121c-0.188,0 -0.373,0.016 -0.555,0.047c-0.182,0.031 -0.371,0.083 -0.566,0.156c-0.196,0.073 -0.401,0.172 -0.617,0.297c-0.217,0.125 -0.45,0.284 -0.7,0.477l-0.078,-0.047l0.531,-1.102c0.172,-0.078 0.342,-0.142 0.508,-0.191c0.167,-0.05 0.336,-0.09 0.508,-0.121c0.172,-0.032 0.348,-0.054 0.527,-0.067c0.18,-0.013 0.369,-0.019 0.567,-0.019c0.547,-0 1.014,0.066 1.402,0.199c0.388,0.133 0.706,0.315 0.953,0.547c0.248,0.232 0.429,0.502 0.543,0.812c0.115,0.31 0.172,0.642 0.172,0.996l0,2.547c0,0.443 0.007,0.83 0.02,1.16c0.013,0.331 0.028,0.616 0.047,0.856c0.018,0.24 0.041,0.44 0.07,0.601c0.028,0.162 0.058,0.297 0.09,0.407l-0,0.031l-1.727,-0l0,-0.031c0.026,-0.084 0.046,-0.177 0.059,-0.282c0.013,-0.104 0.024,-0.229 0.035,-0.375c-0.11,0.094 -0.238,0.191 -0.387,0.29c-0.148,0.099 -0.318,0.188 -0.508,0.269c-0.19,0.081 -0.401,0.146 -0.632,0.195c-0.232,0.05 -0.486,0.075 -0.762,0.075c-0.906,-0 -1.607,-0.213 -2.102,-0.637c-0.495,-0.425 -0.742,-1.027 -0.742,-1.809Zm5.18,-2.273c-0.474,0.005 -0.93,0.032 -1.367,0.082c-0.438,0.049 -0.825,0.152 -1.161,0.308c-0.336,0.157 -0.604,0.379 -0.804,0.668c-0.201,0.29 -0.301,0.674 -0.301,1.153c-0,0.614 0.154,1.083 0.461,1.406c0.307,0.323 0.732,0.484 1.273,0.484c0.25,0 0.478,-0.035 0.684,-0.105c0.206,-0.07 0.388,-0.159 0.547,-0.266c0.159,-0.106 0.293,-0.224 0.402,-0.351c0.109,-0.128 0.193,-0.252 0.25,-0.371c0.011,-0.198 0.016,-0.418 0.016,-0.66l-0,-2.348Z" style="fill:rgb(204,17,51);fill-rule:nonzero;"/>
                    <path d="M56.94,-8l-0,0.031c-0.011,0.026 -0.018,0.065 -0.024,0.117c-0.005,0.053 -0.007,0.099 -0.007,0.141c-0,0.162 0.023,0.34 0.07,0.535c0.047,0.196 0.13,0.439 0.25,0.731l1.867,4.445l1.891,-4.383c0.078,-0.193 0.161,-0.403 0.25,-0.633c0.088,-0.229 0.133,-0.461 0.133,-0.695c-0,-0.068 -0.006,-0.124 -0.016,-0.168c-0.01,-0.044 -0.021,-0.074 -0.031,-0.09l-0,-0.031l1.406,0l-0,0.031c-0.094,0.099 -0.212,0.275 -0.356,0.528c-0.143,0.252 -0.295,0.569 -0.457,0.949l-2.882,6.601l-0.461,0l-2.672,-6.218c-0.094,-0.23 -0.194,-0.45 -0.301,-0.661c-0.107,-0.21 -0.208,-0.399 -0.305,-0.566c-0.096,-0.167 -0.181,-0.306 -0.254,-0.418c-0.072,-0.112 -0.122,-0.183 -0.148,-0.215l-0,-0.031l2.047,0Z" style="fill:rgb(204,17,51);fill-rule:nonzero;"/>
                    <path d="M66.707,0.141c-0.578,-0 -1.12,-0.092 -1.625,-0.274c-0.506,-0.182 -0.946,-0.449 -1.321,-0.801c-0.375,-0.351 -0.67,-0.786 -0.886,-1.304c-0.216,-0.519 -0.325,-1.111 -0.325,-1.778c0,-0.588 0.099,-1.134 0.297,-1.636c0.198,-0.503 0.472,-0.939 0.821,-1.309c0.349,-0.37 0.756,-0.659 1.222,-0.867c0.466,-0.208 0.97,-0.313 1.512,-0.313c0.536,0 1.034,0.093 1.492,0.278c0.459,0.185 0.856,0.453 1.192,0.804c0.336,0.352 0.601,0.787 0.796,1.305c0.196,0.518 0.301,1.108 0.317,1.77c-0.589,-0.011 -1.177,-0.019 -1.766,-0.024c-0.588,-0.005 -1.2,-0.008 -1.836,-0.008c-0.453,0 -0.894,0.003 -1.324,0.008c-0.43,0.005 -0.816,0.013 -1.16,0.024c0.031,0.541 0.116,1.031 0.254,1.468c0.138,0.438 0.328,0.812 0.57,1.121c0.242,0.31 0.537,0.549 0.883,0.715c0.346,0.167 0.738,0.25 1.176,0.25c0.302,0 0.587,-0.035 0.855,-0.105c0.268,-0.07 0.512,-0.168 0.731,-0.293c0.218,-0.125 0.414,-0.272 0.586,-0.442c0.171,-0.169 0.317,-0.352 0.437,-0.55l0.094,0.047l-0.578,1.39c-0.282,0.146 -0.617,0.27 -1.008,0.371c-0.391,0.102 -0.859,0.153 -1.406,0.153Zm-1.039,-4.766c0.52,-0 1.043,-0.001 1.566,-0.004c0.523,-0.003 0.999,-0.012 1.426,-0.027c-0.047,-0.453 -0.136,-0.86 -0.266,-1.219c-0.13,-0.359 -0.297,-0.664 -0.5,-0.914c-0.203,-0.25 -0.443,-0.443 -0.719,-0.578c-0.276,-0.136 -0.58,-0.203 -0.914,-0.203c-0.302,-0 -0.579,0.066 -0.832,0.199c-0.252,0.133 -0.472,0.324 -0.66,0.574c-0.187,0.25 -0.338,0.556 -0.453,0.918c-0.115,0.362 -0.182,0.775 -0.203,1.238c0.234,0.011 0.482,0.016 0.742,0.016l0.813,0Z" style="fill:rgb(204,17,51);fill-rule:nonzero;"/>
                    <path d="M74.769,-8.141c0.214,0 0.427,0.019 0.641,0.055c0.213,0.037 0.422,0.089 0.625,0.156c0.203,0.068 0.396,0.151 0.578,0.25c0.182,0.099 0.346,0.211 0.492,0.336l-0,-1.281c-0,-0.443 -0.005,-0.829 -0.016,-1.16c-0.01,-0.331 -0.026,-0.616 -0.047,-0.856c-0.02,-0.239 -0.044,-0.44 -0.07,-0.601c-0.026,-0.162 -0.055,-0.297 -0.086,-0.406l0,-0.032l1.805,0l-0,0.032c-0.031,0.109 -0.061,0.244 -0.09,0.406c-0.029,0.161 -0.052,0.362 -0.07,0.601c-0.018,0.24 -0.034,0.525 -0.047,0.856c-0.013,0.331 -0.02,0.717 -0.02,1.16l0,5.57c0,0.443 0.007,0.83 0.02,1.16c0.013,0.331 0.029,0.616 0.047,0.856c0.018,0.24 0.041,0.44 0.07,0.602c0.029,0.161 0.059,0.296 0.09,0.406l-0,0.031l-1.727,0l0,-0.031c0.016,-0.042 0.029,-0.103 0.039,-0.184c0.011,-0.081 0.024,-0.181 0.039,-0.301c-0.265,0.167 -0.598,0.318 -1,0.454c-0.401,0.135 -0.867,0.203 -1.398,0.203c-0.62,-0 -1.182,-0.097 -1.687,-0.289c-0.506,-0.193 -0.937,-0.469 -1.293,-0.829c-0.357,-0.359 -0.632,-0.795 -0.825,-1.308c-0.192,-0.513 -0.289,-1.09 -0.289,-1.731c0,-0.588 0.104,-1.134 0.313,-1.636c0.208,-0.503 0.5,-0.939 0.875,-1.309c0.375,-0.37 0.82,-0.659 1.336,-0.867c0.515,-0.208 1.08,-0.313 1.695,-0.313Zm2.336,2.172c-0.208,-0.547 -0.507,-0.95 -0.895,-1.211c-0.388,-0.26 -0.824,-0.39 -1.308,-0.39c-0.406,-0 -0.781,0.071 -1.125,0.215c-0.344,0.143 -0.638,0.35 -0.883,0.621c-0.245,0.27 -0.436,0.602 -0.574,0.996c-0.138,0.393 -0.207,0.84 -0.207,1.34c-0,0.562 0.062,1.086 0.187,1.57c0.125,0.484 0.309,0.905 0.551,1.262c0.242,0.356 0.543,0.635 0.902,0.836c0.36,0.2 0.774,0.3 1.243,0.3c0.244,0 0.474,-0.028 0.687,-0.086c0.214,-0.057 0.409,-0.13 0.586,-0.218c0.177,-0.089 0.333,-0.187 0.469,-0.293c0.135,-0.107 0.247,-0.213 0.336,-0.317c0.01,-0.224 0.018,-0.479 0.023,-0.765c0.005,-0.287 0.008,-0.602 0.008,-0.946l-0,-2.914Z" style="fill:rgb(204,17,51);fill-rule:nonzero;"/>
                </g>
                <g transform="matrix(2.81988,0,0,2.82152,1530.59,1973.75)">
                    <path d="M0.281,-0.016c0.029,-0.041 0.061,-0.103 0.098,-0.185c0.036,-0.082 0.065,-0.186 0.086,-0.311c0.028,-0.182 0.06,-0.387 0.096,-0.615c0.035,-0.228 0.071,-0.467 0.109,-0.717c0.038,-0.25 0.075,-0.506 0.113,-0.767c0.038,-0.262 0.074,-0.52 0.11,-0.774c0.035,-0.254 0.069,-0.498 0.101,-0.734c0.033,-0.236 0.062,-0.451 0.088,-0.647c0.026,-0.195 0.048,-0.365 0.064,-0.509c0.017,-0.145 0.03,-0.254 0.038,-0.327l0.496,0l2.457,4.594l2.437,-4.594l0.371,0l0.641,4.641c0.018,0.146 0.038,0.271 0.059,0.375c0.02,0.104 0.041,0.193 0.062,0.268c0.021,0.074 0.041,0.135 0.061,0.183c0.019,0.048 0.038,0.088 0.056,0.119l0,0.016l-0.984,0l-0,-0.016c0.013,-0.028 0.025,-0.075 0.037,-0.14c0.012,-0.065 0.018,-0.143 0.018,-0.235c-0,-0.033 -0.002,-0.068 -0.004,-0.103c-0.003,-0.035 -0.007,-0.074 -0.012,-0.115l-0.496,-3.743l-2.305,4.336l-0.269,-0.031l-2.321,-4.344c-0.091,0.618 -0.17,1.188 -0.238,1.711c-0.029,0.224 -0.057,0.448 -0.086,0.67c-0.029,0.223 -0.054,0.431 -0.076,0.623c-0.022,0.193 -0.04,0.363 -0.053,0.51c-0.013,0.147 -0.019,0.256 -0.019,0.326c-0,0.089 0.002,0.167 0.007,0.235c0.006,0.067 0.011,0.125 0.016,0.171c0.008,0.055 0.016,0.103 0.023,0.145l-0.781,-0l0,-0.016Z" style="fill:rgb(204,17,51);fill-rule:nonzero;"/>
                    <path d="M15.511,-4.07c-0,-0.222 -0.003,-0.415 -0.008,-0.58c-0.005,-0.166 -0.013,-0.309 -0.023,-0.43c-0.011,-0.121 -0.022,-0.222 -0.035,-0.303c-0.013,-0.081 -0.028,-0.148 -0.043,-0.203l-0,-0.016l0.695,0l-0,0.016c-0.016,0.055 -0.031,0.122 -0.045,0.203c-0.014,0.081 -0.026,0.182 -0.035,0.303c-0.009,0.121 -0.017,0.264 -0.024,0.43c-0.006,0.165 -0.009,0.358 -0.009,0.58l-0,2.109c-0,0.372 -0.054,0.69 -0.161,0.953c-0.106,0.263 -0.255,0.479 -0.445,0.647c-0.19,0.168 -0.418,0.29 -0.683,0.367c-0.266,0.077 -0.556,0.115 -0.872,0.115c-0.315,0 -0.608,-0.036 -0.88,-0.109c-0.273,-0.073 -0.51,-0.191 -0.711,-0.354c-0.202,-0.163 -0.36,-0.373 -0.475,-0.633c-0.115,-0.259 -0.172,-0.574 -0.172,-0.947l0,-2.148c0,-0.222 -0.002,-0.415 -0.008,-0.58c-0.005,-0.166 -0.013,-0.309 -0.023,-0.43c-0.011,-0.121 -0.023,-0.222 -0.037,-0.303c-0.015,-0.081 -0.029,-0.148 -0.045,-0.203l-0,-0.016l0.937,0l0,0.016c-0.015,0.055 -0.03,0.122 -0.045,0.203c-0.014,0.081 -0.026,0.182 -0.037,0.303c-0.01,0.121 -0.018,0.264 -0.023,0.43c-0.005,0.165 -0.008,0.358 -0.008,0.58l0,2.191c0,0.31 0.046,0.566 0.139,0.768c0.092,0.201 0.214,0.362 0.365,0.48c0.151,0.119 0.323,0.201 0.516,0.248c0.192,0.047 0.389,0.071 0.589,0.071c0.201,-0 0.398,-0.024 0.59,-0.071c0.193,-0.047 0.364,-0.129 0.514,-0.248c0.15,-0.118 0.271,-0.279 0.363,-0.48c0.093,-0.202 0.139,-0.458 0.139,-0.768l-0,-2.191Z" style="fill:rgb(204,17,51);fill-rule:nonzero;"/>
                    <path d="M22.319,-4.711l-0.086,0c-0.021,-0.06 -0.054,-0.128 -0.1,-0.203c-0.045,-0.076 -0.105,-0.147 -0.179,-0.213c-0.075,-0.066 -0.165,-0.122 -0.27,-0.166c-0.105,-0.044 -0.23,-0.066 -0.373,-0.066c-0.128,-0 -0.241,0.019 -0.34,0.058c-0.099,0.039 -0.182,0.094 -0.248,0.164c-0.066,0.071 -0.116,0.154 -0.15,0.25c-0.034,0.097 -0.051,0.203 -0.051,0.321c-0,0.187 0.053,0.366 0.158,0.537c0.106,0.17 0.238,0.339 0.397,0.506c0.158,0.166 0.33,0.333 0.515,0.5c0.185,0.166 0.357,0.339 0.516,0.519c0.159,0.18 0.291,0.368 0.396,0.565c0.106,0.196 0.158,0.408 0.158,0.634c0,0.17 -0.029,0.34 -0.087,0.51c-0.059,0.171 -0.149,0.324 -0.272,0.459c-0.122,0.135 -0.28,0.246 -0.473,0.33c-0.192,0.085 -0.421,0.127 -0.687,0.127c-0.148,0 -0.29,-0.014 -0.424,-0.041c-0.134,-0.027 -0.258,-0.061 -0.371,-0.101c-0.113,-0.041 -0.215,-0.084 -0.305,-0.131c-0.089,-0.047 -0.163,-0.09 -0.22,-0.129l0.089,-0.864l0.098,0c0.029,0.123 0.076,0.239 0.141,0.35c0.065,0.111 0.145,0.208 0.24,0.293c0.095,0.085 0.204,0.152 0.326,0.203c0.123,0.051 0.257,0.076 0.403,0.076c0.132,0 0.251,-0.02 0.357,-0.06c0.105,-0.041 0.196,-0.097 0.271,-0.168c0.076,-0.072 0.134,-0.157 0.174,-0.256c0.041,-0.099 0.061,-0.207 0.061,-0.324c-0,-0.164 -0.03,-0.316 -0.09,-0.455c-0.06,-0.14 -0.139,-0.272 -0.236,-0.397c-0.098,-0.125 -0.209,-0.246 -0.332,-0.363c-0.124,-0.117 -0.251,-0.235 -0.381,-0.354c-0.13,-0.118 -0.257,-0.24 -0.381,-0.365c-0.124,-0.125 -0.234,-0.258 -0.332,-0.4c-0.098,-0.142 -0.177,-0.295 -0.236,-0.457c-0.06,-0.163 -0.09,-0.342 -0.09,-0.537c-0,-0.206 0.039,-0.392 0.119,-0.557c0.079,-0.165 0.185,-0.307 0.316,-0.424c0.132,-0.117 0.281,-0.207 0.447,-0.269c0.167,-0.063 0.339,-0.094 0.516,-0.094c0.13,-0 0.25,0.01 0.359,0.031c0.11,0.021 0.208,0.046 0.295,0.074c0.088,0.029 0.164,0.058 0.229,0.086c0.065,0.029 0.118,0.052 0.16,0.071l-0.027,0.73Z" style="fill:rgb(204,17,51);fill-rule:nonzero;"/>
                    <path d="M26.459,-0.016c0.015,-0.054 0.03,-0.122 0.043,-0.203c0.013,-0.08 0.024,-0.181 0.035,-0.301c0.01,-0.119 0.018,-0.262 0.023,-0.427c0.005,-0.166 0.008,-0.359 0.008,-0.58l-0,-2.543c-0,-0.222 -0.003,-0.415 -0.008,-0.58c-0.005,-0.166 -0.013,-0.309 -0.023,-0.43c-0.011,-0.121 -0.022,-0.222 -0.035,-0.303c-0.013,-0.081 -0.028,-0.148 -0.043,-0.203l-0,-0.016l0.933,0l0,0.016c-0.015,0.055 -0.03,0.122 -0.045,0.203c-0.014,0.081 -0.026,0.182 -0.035,0.303c-0.009,0.121 -0.017,0.264 -0.023,0.43c-0.007,0.165 -0.01,0.358 -0.01,0.58l-0,2.543c-0,0.221 0.003,0.414 0.01,0.58c0.006,0.165 0.014,0.308 0.023,0.427c0.009,0.12 0.021,0.221 0.035,0.301c0.015,0.081 0.03,0.149 0.045,0.203l0,0.016l-0.933,0l-0,-0.016Z" style="fill:rgb(204,17,51);fill-rule:nonzero;"/>
                    <path d="M35.876,-4.742l-0.035,0.015c-0.203,-0.187 -0.448,-0.337 -0.733,-0.449c-0.285,-0.112 -0.598,-0.168 -0.939,-0.168c-0.328,0 -0.629,0.052 -0.903,0.155c-0.273,0.102 -0.508,0.252 -0.705,0.447c-0.196,0.195 -0.349,0.435 -0.459,0.719c-0.109,0.283 -0.164,0.606 -0.164,0.968c0,0.399 0.052,0.77 0.157,1.116c0.104,0.345 0.259,0.643 0.464,0.896c0.206,0.253 0.463,0.451 0.772,0.596c0.308,0.144 0.668,0.217 1.08,0.217c0.148,-0 0.297,-0.016 0.445,-0.047c0.149,-0.032 0.291,-0.078 0.428,-0.139c0.137,-0.061 0.266,-0.135 0.387,-0.223c0.121,-0.087 0.231,-0.187 0.33,-0.299l0.043,0.028l-0.313,0.797c-0.195,0.075 -0.411,0.133 -0.646,0.174c-0.236,0.04 -0.474,0.06 -0.713,0.06c-0.482,0 -0.923,-0.07 -1.322,-0.209c-0.4,-0.139 -0.744,-0.336 -1.032,-0.592c-0.287,-0.255 -0.511,-0.562 -0.672,-0.92c-0.16,-0.358 -0.24,-0.755 -0.24,-1.193c0,-0.247 0.032,-0.491 0.096,-0.73c0.064,-0.24 0.157,-0.468 0.279,-0.684c0.123,-0.216 0.274,-0.415 0.453,-0.596c0.18,-0.181 0.385,-0.338 0.616,-0.47c0.23,-0.133 0.484,-0.237 0.761,-0.311c0.278,-0.074 0.578,-0.111 0.901,-0.111c0.502,-0 0.968,0.077 1.398,0.23l0.266,0.723Z" style="fill:rgb(204,17,51);fill-rule:nonzero;"/>
                </g>
            </g>
        </g>
    </g>
</svg>
