<?xml version="1.0" encoding="UTF-8" standalone="no"?>
<!DOCTYPE svg PUBLIC "-//W3C//DTD SVG 1.1//EN" "http://www.w3.org/Graphics/SVG/1.1/DTD/svg11.dtd">
<svg width="100%" height="100%" viewBox="0 0 210 235" version="1.1" xmlns="http://www.w3.org/2000/svg" xmlns:xlink="http://www.w3.org/1999/xlink" xml:space="preserve" xmlns:serif="http://www.serif.com/" style="fill-rule:evenodd;clip-rule:evenodd;stroke-linejoin:round;stroke-miterlimit:2;">
    <g transform="matrix(1,0,0,1,-2322,-568)">
        <g id="logo-CherryonTop" transform="matrix(1,0,0,1,-76,-1148)">
            <g>
                <g transform="matrix(0.11811,0,0,0.11811,2393.66,1710.66)">
                    <path d="M974,525c29,0 57,2 85,8c-2,9 -2,19 0,29c12,61 82,120 156,132c38,6 70,-2 90,-19c68,78 109,179 109,290c0,243 -197,441 -440,441c-244,0 -441,-198 -441,-441c0,-243 197,-440 441,-440Zm-190,192c26,-20 63,-15 83,11c19,26 15,63 -11,82c-26,20 -63,15 -83,-11c-19,-25 -14,-62 11,-82Zm241,440c29,-8 60,9 67,39c8,29 -9,59 -38,67c-26,7 -53,11 -80,11c-171,0 -309,-139 -309,-309c0,-18 2,-36 5,-53c5,-30 34,-50 64,-45c30,5 50,34 44,64c-2,11 -3,23 -3,34c0,110 89,198 199,198c17,0 34,-2 51,-6Z" style="fill:rgb(204,17,51);"/>
                </g>
                <g transform="matrix(0.11811,0,0,0.11811,2393.66,1710.66)">
                    <path d="M1160,566c-15,19 -12,47 8,62c19,14 47,11 62,-9c19,-24 48,-40 81,-40c10,0 19,2 27,4c23,6 47,-8 54,-31c6,-24 -8,-48 -31,-54c-16,-5 -33,-7 -50,-7c-62,0 -116,29 -151,75Z" style="fill:rgb(204,17,51);"/>
                </g>
                <g transform="matrix(0.11811,0,0,0.11811,2393.66,1710.66)">
                    <path d="M1077,177c-12,-1 -21,-13 -19,-25c1,-13 13,-22 25,-20c209,28 392,130 522,279c131,149 209,343 209,554c0,93 -15,184 -45,270c-29,87 -72,168 -129,242c-7,10 -22,12 -32,4c-10,-8 -12,-22 -4,-32c53,-70 94,-147 122,-229c28,-81 42,-167 42,-255c0,-199 -74,-383 -197,-524c-123,-140 -296,-238 -494,-264Z" style="fill:rgb(204,17,51);fill-rule:nonzero;"/>
                </g>
            </g>
            <g transform="matrix(0.11811,0,0,0.11811,2393.66,1710.66)">
                <path d="M1287,1780c21,36 73,45 129,13c72,-41 88,-117 50,-184c-38,-65 -110,-81 -175,-44c-58,33 -77,90 -55,129c5,9 11,11 17,8c4,-2 6,-6 10,-16c4,-20 15,-36 38,-50c38,-21 81,-12 110,37c20,35 14,64 -8,77c-16,9 -31,6 -39,-8l-4,-7c-12,-20 -31,-28 -55,-14c-23,13 -30,37 -18,59Zm-140,236c1,12 9,20 21,18c9,-1 18,-5 32,-13l45,-24c13,-7 17,-14 16,-23c-1,-8 -6,-13 -14,-16l-7,0c-7,-2 -11,-6 -13,-19l-31,-247c-2,-16 0,-21 5,-25l5,-3c7,-6 11,-12 9,-21c-1,-12 -10,-18 -23,-16l-98,12c-11,2 -17,10 -16,22c1,7 5,12 12,15l6,3c6,2 9,7 11,24l13,106l0,1c-12,14 -24,20 -36,22c-19,2 -29,-9 -35,-34l-21,-86c-4,-16 -1,-21 5,-25l5,-4c6,-5 8,-11 7,-18c-1,-12 -9,-18 -21,-17l-99,13c-12,1 -19,9 -18,21c1,9 6,14 14,18l6,2c6,3 8,7 11,23l27,111c11,45 36,71 78,66c26,-4 51,-20 82,-56l22,170Zm-493,-254c-12,51 21,101 88,117c85,19 144,-25 161,-99c17,-74 -21,-135 -99,-153c-68,-16 -120,14 -131,56c-2,11 1,16 7,17c5,1 9,0 18,-5c18,-12 42,-18 67,-12c36,8 58,34 57,75l-116,-27c-27,-6 -46,5 -52,31Zm110,77c-18,-4 -30,-23 -23,-52c3,-11 9,-15 20,-12l58,13c-10,41 -32,56 -55,51Zm-272,-95c-8,16 -6,23 1,28c6,4 15,6 29,9l51,10c14,3 21,0 27,-8c4,-7 3,-13 -1,-20l-5,-6c-4,-6 -5,-11 2,-22l55,-85c8,-13 13,-16 20,-16l6,1c9,0 15,-2 20,-10c7,-10 4,-20 -7,-27l-102,-65c-11,-8 -21,-6 -28,4c-5,9 -5,18 3,26l14,12c8,6 7,15 -1,27l-41,65c-19,30 -39,38 -51,30c-6,-4 -8,-10 -2,-19l5,-8c11,-17 7,-35 -14,-49c-20,-13 -43,-7 -64,25c-21,34 -16,63 10,80c26,16 56,15 87,-10l-14,28Zm-208,-177c-12,13 -13,21 -7,27c4,6 13,10 25,17l46,24c13,7 21,7 28,1c6,-6 7,-12 5,-20l-3,-7c-2,-7 -2,-12 9,-21l76,-66c12,-10 17,-11 23,-9l6,2c9,3 16,2 22,-4c10,-8 10,-18 1,-28l-79,-91c-9,-10 -19,-11 -28,-4c-8,7 -11,16 -4,26l10,15c5,9 2,17 -9,26l-58,50c-27,24 -48,26 -57,15c-5,-5 -5,-12 3,-19l7,-6c16,-14 17,-32 1,-51c-16,-18 -40,-19 -68,6c-31,26 -34,55 -14,79c20,23 50,30 86,15l-21,23Zm104,-329c29,0 40,5 44,15c2,8 0,14 -9,23l-9,9c-17,17 -23,28 -16,46c8,20 28,27 51,18c37,-15 54,-52 37,-95c-17,-43 -50,-56 -129,-57l-219,-4c-25,-1 -33,-4 -43,-11c-8,-7 -15,-7 -22,-4c-11,4 -15,14 -10,26l25,64c5,11 14,16 25,12c9,-4 13,-9 14,-20l-1,-8c0,-12 10,-19 29,-19l109,0l-80,76c-14,15 -24,17 -32,9l-5,-5c-7,-7 -14,-10 -23,-7c-11,5 -15,14 -10,26l43,110c4,12 14,16 26,12c8,-3 12,-9 14,-18c2,-12 2,-18 13,-29l164,-169l14,0Zm-344,-202c5,75 63,123 135,118c75,-6 124,-61 118,-135c-6,-75 -63,-123 -136,-117c-74,5 -123,60 -117,134Zm220,-37c11,41 -16,79 -76,96c-56,16 -101,-1 -112,-40c-11,-40 17,-78 77,-95c55,-15 101,1 111,39Zm-188,-235c-9,-3 -16,1 -19,9c-1,6 -1,13 0,25l2,40c1,10 4,15 10,17c6,1 10,-1 14,-7l5,-15c3,-6 8,-8 19,-5l131,37c11,3 15,8 15,16l0,11c1,7 4,12 10,13c7,2 13,-1 16,-10l23,-84c3,-8 0,-14 -8,-16c-5,-2 -10,0 -14,5l-5,9c-5,7 -11,9 -23,5l-126,-36l-2,-3c-13,-27 -16,-47 -11,-63c6,-23 24,-30 54,-25l117,17c12,2 16,8 16,16l0,10c1,7 4,11 9,12c8,2 13,-1 16,-9l24,-84c2,-9 -1,-15 -8,-18c-7,-1 -11,1 -16,7l-5,8c-5,7 -10,8 -22,6l-132,-20c-42,-7 -72,7 -83,44c-8,26 -2,56 18,95l-25,-7Zm116,-237c8,-5 14,-6 25,2l91,65c44,31 80,22 110,-20c27,-38 22,-87 -7,-108c-8,-6 -15,-5 -19,-1c-6,9 5,27 -6,43c-10,14 -24,15 -41,2l-91,-65l18,-25c18,-26 16,-43 3,-52c-9,-6 -18,-4 -26,6l-32,45l-36,-25c-12,-9 -23,-6 -30,4c-6,8 -6,22 -1,36l14,33c5,13 5,20 1,26l-6,8c-7,10 -5,22 4,29c8,5 15,6 23,1l6,-4Zm198,-301c-65,51 -75,131 -30,187c48,61 124,70 188,19c65,-51 75,-130 30,-187c-48,-61 -124,-69 -188,-19Zm147,156c-16,19 -49,16 -95,-20c-45,-36 -56,-68 -41,-86c16,-20 50,-16 95,20c44,34 56,67 41,86Zm137,-285c-4,-12 -13,-18 -24,-15c-9,3 -18,8 -31,19l-36,28c-11,9 -15,16 -12,25c2,8 7,12 16,14l7,-1c7,1 12,4 15,17l62,217c4,15 3,21 -1,25l-5,4c-6,7 -8,13 -6,22c3,12 13,16 25,13l97,-28c13,-3 19,-12 15,-24c-2,-8 -8,-13 -16,-15l-8,-1c-7,-1 -10,-5 -15,-20l-18,-65c17,5 36,5 56,-1c69,-20 106,-85 82,-166c-20,-71 -75,-107 -132,-91c-30,9 -52,29 -67,57l-4,-14Zm46,21c28,-8 56,11 71,61c14,50 2,83 -26,91c-13,3 -26,2 -40,-7l-35,-122c8,-12 17,-20 30,-23Z" style="fill:rgb(204,17,51);fill-rule:nonzero;"/>
            </g>
        </g>
    </g>
</svg>
