<?xml version="1.0" encoding="UTF-8" standalone="no"?>
<!DOCTYPE svg PUBLIC "-//W3C//DTD SVG 1.1//EN" "http://www.w3.org/Graphics/SVG/1.1/DTD/svg11.dtd">
<svg width="100%" height="100%" viewBox="0 0 158 183" version="1.1" xmlns="http://www.w3.org/2000/svg" xmlns:xlink="http://www.w3.org/1999/xlink" xml:space="preserve" xmlns:serif="http://www.serif.com/" style="fill-rule:evenodd;clip-rule:evenodd;stroke-linejoin:round;stroke-miterlimit:2;">
    <g transform="matrix(1,0,0,1,-1736,-594)">
        <g id="logo-BSharp" transform="matrix(0.11811,0,0,0.11811,1732.27,590.094)">
            <path d="M870,1582l75,-364l-214,0l-74,364l213,0Zm-247,-1544l-215,1051l-9,43l632,0l35,-172l61,-300l44,-214l9,-43l-418,0l75,-365l-214,0Zm34,880l61,-301l204,0l-61,301l-204,0Zm607,85l-178,0l-29,143l-76,72l239,0l44,-215Zm-73,-515l-44,215l178,0l44,-215l-178,0Zm-236,-364l-49,251l214,0l49,-251l-214,0Zm-536,579l43,-215l-275,0l-44,215l276,0Zm-381,515l275,0l-74,364l214,0l74,-364l-214,0l44,-215l-275,0l-44,215Z" style="fill:rgb(204,17,51);"/>
        </g>
    </g>
</svg>
