<?xml version="1.0" encoding="UTF-8" standalone="no"?>
<!DOCTYPE svg PUBLIC "-//W3C//DTD SVG 1.1//EN" "http://www.w3.org/Graphics/SVG/1.1/DTD/svg11.dtd">
<svg width="100%" height="100%" viewBox="0 0 169 169" version="1.1" xmlns="http://www.w3.org/2000/svg" xmlns:xlink="http://www.w3.org/1999/xlink" xml:space="preserve" xmlns:serif="http://www.serif.com/" style="fill-rule:evenodd;clip-rule:evenodd;stroke-miterlimit:2;">
    <g transform="matrix(1,0,0,1,-2298,-1716)">
        <g id="team-icons-process-deliver" transform="matrix(1,0,0,1,0,72)">
            <g id="boxes">
                <g transform="matrix(0.11811,0,0,0.11811,1353.04,1641.79)">
                    <rect x="8044" y="59" width="1344" height="1344" style="fill:none;stroke:rgb(0,0,44);stroke-width:35.28px;"/>
                </g>
                <g transform="matrix(0.11811,0,0,0.11811,1353.04,1641.79)">
                    <rect x="8044" y="59" width="1008" height="1008" style="fill:none;stroke:rgb(0,0,44);stroke-width:35.28px;"/>
                </g>
                <g transform="matrix(0.11811,0,0,0.11811,1353.04,1641.79)">
                    <rect x="8044" y="59" width="1176" height="1176" style="fill:none;stroke:rgb(0,0,44);stroke-width:35.28px;"/>
                </g>
            </g>
            <g id="highlight-circle" transform="matrix(0.11811,0,0,0.11811,1353.04,1641.79)">
                <path d="M8726,385c-98,-98 -257,-98 -356,0c-98,99 -98,258 0,356c99,99 258,99 356,0c99,-98 99,-257 0,-356Z" style="fill:none;stroke:rgb(204,17,51);stroke-width:35.28px;"/>
            </g>
        </g>
    </g>
</svg>
