<?xml version="1.0" encoding="UTF-8" standalone="no"?>
<!DOCTYPE svg PUBLIC "-//W3C//DTD SVG 1.1//EN" "http://www.w3.org/Graphics/SVG/1.1/DTD/svg11.dtd">
<svg width="100%" height="100%" viewBox="0 0 248 169" version="1.1" xmlns="http://www.w3.org/2000/svg" xmlns:xlink="http://www.w3.org/1999/xlink" xml:space="preserve" xmlns:serif="http://www.serif.com/" style="fill-rule:evenodd;clip-rule:evenodd;stroke-miterlimit:2;">
    <g transform="matrix(1,0,0,1,-1355,-1716)">
        <g id="team-icons-process-talk" transform="matrix(1,0,0,1,0,72)">
            <g id="intersect">
                <g transform="matrix(0.11811,0,0,0.11811,1353.04,1641.79)">
                    <path d="M731,1403c370,0 672,-302 672,-672c0,-370 -302,-672 -672,-672c-370,0 -672,302 -672,672c0,370 302,672 672,672Z" style="fill:none;stroke:rgb(0,0,44);stroke-width:35.28px;"/>
                </g>
                <g transform="matrix(0.11811,0,0,0.11811,1353.04,1641.79)">
                    <path d="M1403,1403c370,0 672,-302 672,-672c0,-370 -302,-672 -672,-672c-370,0 -672,302 -672,672c0,370 302,672 672,672Z" style="fill:none;stroke:rgb(0,0,44);stroke-width:35.28px;"/>
                </g>
            </g>
            <g transform="matrix(0.11811,0,0,0.11811,1353.04,1641.79)">
                <path d="M1067,1067c185,0 336,-151 336,-336c0,-185 -151,-336 -336,-336c-185,0 -336,151 -336,336c0,185 151,336 336,336Z" style="fill:none;stroke:rgb(204,17,51);stroke-width:35.28px;"/>
            </g>
        </g>
    </g>
</svg>
