<?xml version="1.0" encoding="UTF-8" standalone="no"?>
<!DOCTYPE svg PUBLIC "-//W3C//DTD SVG 1.1//EN" "http://www.w3.org/Graphics/SVG/1.1/DTD/svg11.dtd">
<svg width="100%" height="100%" viewBox="0 0 195 238" version="1.1" xmlns="http://www.w3.org/2000/svg" xmlns:xlink="http://www.w3.org/1999/xlink" xml:space="preserve" xmlns:serif="http://www.serif.com/" style="fill-rule:evenodd;clip-rule:evenodd;stroke-linecap:round;stroke-linejoin:round;stroke-miterlimit:2;">
    <g transform="matrix(1,0,0,1,-1612,-2176)">
        <g id="team-icons-service-product" transform="matrix(1,0,0,1,348,-215)">
            <g id="highlight-2-circles">
                <g transform="matrix(0.19,0,0,0.19,899.954,2376.62)">
                    <path d="M2428,584c147,0 266,69 266,154c0,85 -119,153 -266,153c-147,0 -266,-68 -266,-153c0,-85 119,-154 266,-154Z" style="fill:none;stroke:rgb(204,17,51);stroke-width:21.93px;"/>
                </g>
                <g transform="matrix(0.19,0,0,0.19,899.954,2376.62)">
                    <path d="M2590,860c63,28 103,72 103,121c0,85 -119,154 -265,154c-147,0 -266,-69 -266,-154c0,-49 41,-93 104,-121" style="fill:none;stroke:rgb(204,17,51);stroke-width:21.93px;"/>
                </g>
            </g>
            <g id="box">
                <g transform="matrix(0.19,0,0,0.19,899.954,2376.62)">
                    <path d="M2644,285l34,20l250,144l0,578l-500,288l-500,-288l0,-578l250,-144l59,-34" style="fill:none;stroke:rgb(0,0,44);stroke-width:21.93px;"/>
                </g>
                <g transform="matrix(0.19,0,0,0.19,899.954,2376.62)">
                    <path d="M2237,271l-309,178l500,289l500,-289l-284,-164" style="fill:none;stroke:rgb(0,0,44);stroke-width:21.93px;"/>
                </g>
                <g transform="matrix(0.19,0,0,0.19,899.954,2376.62)">
                    <path d="M2428,1315l0,-577" style="fill:none;stroke:rgb(0,0,44);stroke-width:21.93px;"/>
                </g>
            </g>
            <g id="highlight-1-circle" transform="matrix(0.19,0,0,0.19,899.954,2376.62)">
                <path d="M2238,267c61,-123 194,-200 299,-172c104,28 140,151 80,274c-60,123 -194,200 -299,172c-104,-28 -140,-150 -80,-274Z" style="fill:none;stroke:rgb(204,17,51);stroke-width:21.93px;"/>
            </g>
        </g>
    </g>
</svg>
