<?xml version="1.0" encoding="UTF-8" standalone="no"?>
<!DOCTYPE svg PUBLIC "-//W3C//DTD SVG 1.1//EN" "http://www.w3.org/Graphics/SVG/1.1/DTD/svg11.dtd">
<svg width="100%" height="100%" viewBox="0 0 196 241" version="1.1" xmlns="http://www.w3.org/2000/svg" xmlns:xlink="http://www.w3.org/1999/xlink" xml:space="preserve" xmlns:serif="http://www.serif.com/" style="fill-rule:evenodd;clip-rule:evenodd;stroke-linecap:round;stroke-linejoin:round;stroke-miterlimit:2;">
    <g transform="matrix(1,0,0,1,-2440,-2187)">
        <g id="team-icons-service-concierge" transform="matrix(1,0,0,1,2235.77,1982.38)">
            <g id="boxes">
                <g transform="matrix(0.11811,0,0,0.11811,0,0)">
                    <path d="M3087,2030l276,0l0,1333l-552,0m-390,0l-391,0l0,-276" style="fill:none;stroke:rgb(0,0,44);stroke-width:35.28px;"/>
                </g>
                <g transform="matrix(0.11811,0,0,0.11811,0,0)">
                    <path d="M2421,3087l-667,0l0,-1333l1333,0l0,1333" style="fill:none;stroke:rgb(0,0,44);stroke-width:35.28px;"/>
                </g>
            </g>
            <g id="highlight-asterisk-pointer">
                <g id="pointer">
                    <g transform="matrix(0.11811,0,0,0.11811,0,0)">
                        <path d="M2941,3678l-130,-315" style="fill:none;stroke:rgb(204,17,51);stroke-width:35.28px;"/>
                    </g>
                    <g transform="matrix(0.11811,0,0,0.11811,0,0)">
                        <path d="M3363,3363l-552,0l-390,391l0,-1333l942,942Z" style="fill:none;stroke:rgb(204,17,51);stroke-width:35.28px;"/>
                    </g>
                </g>
                <g id="asterisk">
                    <g transform="matrix(0.11811,0,0,0.11811,0,0)">
                        <path d="M2067,2774l707,-707" style="fill:none;stroke:rgb(204,17,51);stroke-width:35.28px;"/>
                    </g>
                    <g transform="matrix(0.11811,0,0,0.11811,0,0)">
                        <path d="M2774,2774l-707,-707" style="fill:none;stroke:rgb(204,17,51);stroke-width:35.28px;"/>
                    </g>
                    <g transform="matrix(0.11811,0,0,0.11811,0,0)">
                        <path d="M2421,2921l0,-1000" style="fill:none;stroke:rgb(204,17,51);stroke-width:35.28px;"/>
                    </g>
                    <g transform="matrix(0.11811,0,0,0.11811,0,0)">
                        <path d="M2921,2421l-1000,0" style="fill:none;stroke:rgb(204,17,51);stroke-width:35.28px;"/>
                    </g>
                </g>
            </g>
        </g>
    </g>
</svg>
