<?xml version="1.0" encoding="UTF-8" standalone="no"?>
<!DOCTYPE svg PUBLIC "-//W3C//DTD SVG 1.1//EN" "http://www.w3.org/Graphics/SVG/1.1/DTD/svg11.dtd">
<svg width="100%" height="100%" viewBox="0 0 195 195" version="1.1" xmlns="http://www.w3.org/2000/svg" xmlns:xlink="http://www.w3.org/1999/xlink" xml:space="preserve" xmlns:serif="http://www.serif.com/" style="fill-rule:evenodd;clip-rule:evenodd;stroke-linecap:round;stroke-linejoin:round;stroke-miterlimit:2;">
    <g transform="matrix(1,0,0,1,-1892,-2189)">
        <g id="team-icons-service-web" transform="matrix(1,0,0,1,348,-215)">
            <g id="highlight-phone">
                <g transform="matrix(0.19,0,0,0.19,822.741,2368.51)">
                    <path d="M4809,1202l-300,-149l0,-701l300,-150l0,1000Z" style="fill:none;stroke:rgb(204,17,51);stroke-width:21.93px;"/>
                </g>
                <g transform="matrix(0.19,0,0,0.19,822.741,2368.51)">
                    <path d="M4624,953c-15,0 -21,18 -21,37c0,25 15,54 39,54c13,0 21,-15 21,-33c0,-31 -17,-58 -39,-58Z" style="fill:none;fill-rule:nonzero;stroke:rgb(204,17,51);stroke-width:21.93px;"/>
                </g>
            </g>
            <g id="screens">
                <g transform="matrix(0.19,0,0,0.19,822.741,2368.51)">
                    <path d="M4459,1028l0,-652m-325,-87l-325,-87l0,1000l325,-87" style="fill:none;stroke:rgb(0,0,44);stroke-width:21.93px;"/>
                </g>
                <g transform="matrix(0.19,0,0,0.19,822.741,2368.51)">
                    <path d="M4459,1028l0,-652m-81,-43l-244,-131l0,1000l244,-130" style="fill:none;stroke:rgb(0,0,44);stroke-width:21.93px;"/>
                </g>
                <g transform="matrix(0.19,0,0,0.19,822.741,2368.51)">
                    <path d="M4459,352l-81,-150l0,1000l81,-149l0,-701Z" style="fill:none;stroke:rgb(0,0,44);stroke-width:21.93px;"/>
                </g>
            </g>
        </g>
    </g>
</svg>
