<svg id="Layer_1" data-name="Layer 1" xmlns="http://www.w3.org/2000/svg" viewBox="0 0 984.77 598.76"><defs><style>.cls-1,.cls-10,.cls-11,.cls-12,.cls-13,.cls-14,.cls-15,.cls-16,.cls-17,.cls-18,.cls-19,.cls-2,.cls-20,.cls-4,.cls-5,.cls-6,.cls-7,.cls-8,.cls-9{fill:none;}.cls-1,.cls-10,.cls-11,.cls-12,.cls-13,.cls-14,.cls-15,.cls-16,.cls-17,.cls-18,.cls-19,.cls-2,.cls-20,.cls-3,.cls-4,.cls-5,.cls-6,.cls-7,.cls-8,.cls-9{stroke:#c13;stroke-linecap:round;}.cls-1,.cls-10,.cls-11,.cls-12,.cls-13,.cls-16,.cls-17,.cls-18,.cls-19,.cls-2,.cls-20,.cls-3,.cls-4,.cls-5,.cls-6,.cls-7,.cls-8,.cls-9{stroke-linejoin:round;}.cls-1{stroke-width:3.03px;}.cls-2{stroke-width:2.95px;}.cls-3{fill:#c13;stroke-dasharray:3.12 6.23 9.35 0;}.cls-15,.cls-20,.cls-3,.cls-7{stroke-width:3.12px;}.cls-11,.cls-12,.cls-14,.cls-4,.cls-6,.cls-8{stroke-width:2.02px;}.cls-4{stroke-dasharray:2.02 4.03 6.05 0;}.cls-5{stroke-width:18.07px;stroke-dasharray:18.07 36.14 54.22 0;}.cls-6{stroke-dasharray:2.02 6.05 2.02 0;}.cls-7{stroke-dasharray:3.12 9.35 3.12 0;}.cls-8{stroke-dasharray:2.02 6.05 0 0;}.cls-9{stroke-width:2.34px;stroke-dasharray:2.34 4.68 0 0;}.cls-10{stroke-width:1.51px;stroke-dasharray:1.51 3.03 0 0;}.cls-11{stroke-dasharray:2.02 6.05 4.03 0;}.cls-12,.cls-14{stroke-dasharray:2.02 5.04 0 0;}.cls-13{stroke-width:2.11px;stroke-dasharray:2.11 5.28 0 0;}.cls-14,.cls-15{stroke-linejoin:bevel;}.cls-15{stroke-dasharray:3.12 7.79 0 0;}.cls-16{stroke-width:2.02px;stroke-dasharray:2.02 6.05 2.02 0;}.cls-17{stroke-width:9.9px;stroke-dasharray:9.9 29.7 19.8 0;}.cls-18{stroke-width:24.37px;stroke-dasharray:24.37 73.1 48.74 0;}.cls-19{stroke-width:5.59px;stroke-dasharray:5.59 16.78 11.19 0;}.cls-20{stroke-dasharray:3.12 9.35 6.23 0;}</style></defs><g id="Crusader-Eben_Joe" data-name="Crusader-Eben Joe"><g id="Joe"><g id="Joe-FaceMain"><path class="cls-1" d="M694.21,401.67c9.17,2.29,42.72,3.1,56.63-8.51,14.56-12.44,25.52-38.79,30.6-56,3.76-12.93,9.65-33.88,10.63-46.31,1.15-14.24.49-36.5-2-43.21-2.29-6.21-4.75-14.89-5.24-21.6-1-13.42-.81-25.53-2.78-38.62-7.2-48.11-25.36-62-65.13-87.22-16-10.15-45.66-20.46-63-20.29-31.75.32-75.61,19-94.92,45.16-12.44,16.86-19.8,36.17-18.65,62.19a306.53,306.53,0,0,0,6.71,48.6c-1.48,0-27.33-7.53-17.68,24.22,2.46,7.86,9.66,17.18,10.8,20.46,1,.32,13.42,27.82,25.53,28a13.29,13.29,0,0,0,9.82-4.09c14.89,40.91,28.47,88.86,37.31,127.15a37,37,0,0,0-7,5.57m198.32-54.39c-23.26-1.85-27.84-10.06-34.34-16" transform="translate(-32.88 -0.63)"/><path class="cls-2" d="M675.23,238.18c-5.89-4.91-9.33-6.71-13.58-6.38-4.91.49-32.9,10.64-36.82,12.6.49.66,24.87-.49,31.58-1.8a6.17,6.17,0,0,1,1.15-8.84c3.43-2.45,8.34-1,9,3.44a4.46,4.46,0,0,1-1.15,4.09C668.85,241,672.28,239,675.23,238.18Z" transform="translate(-32.88 -0.63)"/><path class="cls-2" d="M738.73,233a45.31,45.31,0,0,1,17.67-9.82c8-2.13,15.87-1.64,15.71,7.85l-7.53,1c2.95-11-9.82-9.32-9.49-2.61a5,5,0,0,0,1.31,3.6Z" transform="translate(-32.88 -0.63)"/><path class="cls-2" d="M679.32,269.77a15.24,15.24,0,0,0-6.05,14.07c.81,6.05,8.18,10.15,14.23,8.35,9.5-2.79,17.51,4.41,22.75,5.07,17.51,1.8,18.66-8.18,26.35-9.17.82-.16,1.8.17,1.47.82-.16.82-1,2,0,2,4.91-.17,13.26-10.31,8-18.66-1.31-2-5.73-6.38-8-6.87" transform="translate(-32.88 -0.63)"/><path class="cls-2" d="M678.67,329.33c2.94,1,11.94,3.93,19.31,7a44.73,44.73,0,0,0,19.63,3.27c8.68-.65,15.71-2.62,22.26-8.83,1.31-1.31,11.13-11.95,10.8-14.08-4.09,2.46-11.29,5.89-17.67,4.09-6.88-2.12-12.44,6.22-21.28,3.77-10-2.78-18.16,2.29-24.87,2.29-5.73,0-11.13-1.15-14.89-1.15,9.49-1.47,21.76-9.49,26-10.8,5.07-1.8,10.14-2.62,13.42-1.47,11.29,3.93,11.94-2.46,21.76-2.46,4.91,0,11.62,3.77,17.51,3.77" transform="translate(-32.88 -0.63)"/><path class="cls-1" d="M567.88,278.44c2.29,9.16,5.23,19.8,7.69,26,11.62,29.29,40.75,64.64,83.13,84.77" transform="translate(-32.88 -0.63)"/><path class="cls-1" d="M732,110.37c-27.33-19.8-18-4.25-40.1-2.45-20,1.8-35-12-70.86-6.55-20.78,3.11-46.31,28.15-48.93,46.32-1.31,9.81.17,20.78,3.77,32.72,3.92,12.93,1,18.33-8.35,38.13-4.42,9.17-2.45,28.32.33,41.73-4.42-16.52-15.55-22.91-20.78-24.38" transform="translate(-32.88 -0.63)"/><path class="cls-2" d="M637.1,250.13c5.24-.33,13.09,0,19.8-.49,8.35-.66,18.66-4.09,20.13-10.64" transform="translate(-32.88 -0.63)"/><path class="cls-2" d="M675.23,238.18c-2.29-7.53-6.87-9.82-12.44-10-8.34-.33-23.56,5.73-39.93,12.6" transform="translate(-32.88 -0.63)"/><path class="cls-1" d="M540.06,251.93c0,.82,0,9.82-.33,15.54-.16,3.61-3.11,2.13-4.58-.49-3.11-5.4-5.57-12.43-5.07-18.32.32-6.39,2.45-8.51,5.23-7.7,12.93,3.28,26.68,16.37,22.42,31.42-2,6.71,5.89,9.66,10.48,13.42.81.66,2,1.31,2.29,2.46.65,2.45-4.42,3.43-10.48-1.31-3.43-2.62-12.6-1.8-13.74-11.29" transform="translate(-32.88 -0.63)"/><path class="cls-1" d="M598.64,94.34c-16,7.85-30.43,18.49-39.6,30.76-12.44,16.86-19.8,36.17-18.65,62.19a306.53,306.53,0,0,0,6.71,48.6" transform="translate(-32.88 -0.63)"/><path class="cls-1" d="M717,100.23c-16-10.15-45.66-20.46-63-20.29-16.86.16-37.15,5.56-55.32,14.4" transform="translate(-32.88 -0.63)"/><path class="cls-2" d="M732.18,234.91c10.15,6.55,29.13,10.64,41.07,2.45" transform="translate(-32.88 -0.63)"/><path class="cls-1" d="M612.88,431.61c5.73,20,13.75,43.53,18.82,56.79" transform="translate(-32.88 -0.63)"/></g><g id="Joe-Brows"><path class="cls-3" d="M618.44,227.39a4.35,4.35,0,0,1-.17-1.47" transform="translate(-32.88 -0.63)"/><path class="cls-3" d="M618.27,225.92a3,3,0,0,1,.17-1.31" transform="translate(-32.88 -0.63)"/><path class="cls-4" d="M621.88,222.14c.33.82,0,2,.33,2.79" transform="translate(-32.88 -0.63)"/><path class="cls-4" d="M625.32,219.2c1,1.14.16,2.29.49,3.44" transform="translate(-32.88 -0.63)"/><path class="cls-4" d="M628.92,216.74c1.47,1.31.33,2.62.65,3.93" transform="translate(-32.88 -0.63)"/><path class="cls-4" d="M632.68,214.62c1.8,1.47.49,2.94.66,4.42" transform="translate(-32.88 -0.63)"/><path class="cls-4" d="M636.45,212.65c2.45,1.8.65,3.28.81,4.91" transform="translate(-32.88 -0.63)"/><path class="cls-4" d="M640.37,211c2.79,2.29.66,3.76.82,5.56" transform="translate(-32.88 -0.63)"/><path class="cls-4" d="M644.3,209.71c3.27,2.62.82,4.09.82,6" transform="translate(-32.88 -0.63)"/><path class="cls-4" d="M648.39,208.73c3.6,3.11.66,4.58.66,6.54" transform="translate(-32.88 -0.63)"/><path class="cls-4" d="M652.48,208.07c3.93,3.44.66,4.91.49,7" transform="translate(-32.88 -0.63)"/><path class="cls-4" d="M656.41,207.58c4.42,4.09.82,5.4.49,7.69" transform="translate(-32.88 -0.63)"/><path class="cls-4" d="M660.5,207.42c4.58,4.58.66,5.89.33,8.34" transform="translate(-32.88 -0.63)"/><path class="cls-4" d="M664.59,207.58c4.75,5.07.49,6.22.17,8.84" transform="translate(-32.88 -0.63)"/><path class="cls-4" d="M668.52,207.91c5.07,5.73.49,6.71-.16,9.49" transform="translate(-32.88 -0.63)"/><path class="cls-4" d="M672.45,208.73c5.4,6.21.33,7-.33,10" transform="translate(-32.88 -0.63)"/><path class="cls-4" d="M676.38,209.54c5.56,6.88.16,7.53-.66,10.64" transform="translate(-32.88 -0.63)"/><path class="cls-4" d="M680.14,210.85c5.73,7.37,0,7.86-1,11" transform="translate(-32.88 -0.63)"/><path class="cls-3" d="M777.49,218.42c0-.5,1.18-2.1,1.18-3.73" transform="translate(-32.88 -0.63)"/><path class="cls-4" d="M775.38,212.16c-1.14,1-.16,2.62-.82,3.77" transform="translate(-32.88 -0.63)"/><path class="cls-4" d="M772.11,209.22c-1.31,1.31-.33,3.11-1,4.42" transform="translate(-32.88 -0.63)"/><path class="cls-4" d="M768.84,206.93c-1.8,1.47-.66,3.27-1.31,4.74" transform="translate(-32.88 -0.63)"/><path class="cls-4" d="M765.24,205c-2,1.8-.82,3.6-1.31,5.24" transform="translate(-32.88 -0.63)"/><path class="cls-4" d="M761.47,203.49c-2.29,2.13-.82,3.93-1.31,5.89" transform="translate(-32.88 -0.63)"/><path class="cls-4" d="M757.71,202.34c-2.46,2.46-1,4.42-1.31,6.55" transform="translate(-32.88 -0.63)"/><path class="cls-4" d="M753.94,201.69c-2.78,2.94-1.14,4.91-1.3,7" transform="translate(-32.88 -0.63)"/><path class="cls-4" d="M750,201.36c-2.79,3.44-1.15,5.4-1.15,7.86" transform="translate(-32.88 -0.63)"/><path class="cls-4" d="M746.25,201.53c-2.94,3.76-1.14,5.89-1,8.34" transform="translate(-32.88 -0.63)"/><path class="cls-4" d="M742.49,202.18c-3.11,4.09-1,6.22-.66,9" transform="translate(-32.88 -0.63)"/><path class="cls-4" d="M738.73,203c-3,4.74-.82,6.87-.33,9.65" transform="translate(-32.88 -0.63)"/><path class="cls-4" d="M735.29,204.31c-3.11,5.23-.82,7.36,0,10.31" transform="translate(-32.88 -0.63)"/><path class="cls-5" d="M731.2,205.78a10.49,10.49,0,0,0,.75,11" transform="translate(-32.88 -0.63)"/></g><g id="Joe-Wrinkle"><path class="cls-6" d="M756.24,309.2c8,8.19.16,21.12.49,37.15" transform="translate(-32.88 -0.63)"/><path class="cls-6" d="M666.72,314.93c-4.91,9.33,3.11,20.46,5.73,30.44" transform="translate(-32.88 -0.63)"/><path class="cls-6" d="M738.07,265.35c20.29,3.93,30.44,31.75,30.77,48.93" transform="translate(-32.88 -0.63)"/><path class="cls-6" d="M641,324.42c21.27-13.58,13.74-42.22,38.29-54.65" transform="translate(-32.88 -0.63)"/><path class="cls-6" d="M710.41,308.22c3.77,3.44,12.77,2.62,14.24,0" transform="translate(-32.88 -0.63)"/><path class="cls-7" d="M721.78,304.83c-3.81,1.55-5.17,1-7.71,0" transform="translate(-32.88 -0.63)"/><path class="cls-6" d="M700.27,353.39c13.58-6.06,28.15-8.35,38.46-4.75" transform="translate(-32.88 -0.63)"/><path class="cls-6" d="M707.63,345.7a101,101,0,0,1,27-1.47" transform="translate(-32.88 -0.63)"/></g><g id="Joe-Hair"><path class="cls-8" d="M601.43,95.16C584.9,102.52,569,115,560.68,127.88a89.08,89.08,0,0,0-12.11,28.32,185,185,0,0,0-4.75,35c.17,15.38,2.78,32.89,5.4,45.49" transform="translate(-32.88 -0.63)"/><path class="cls-8" d="M604.21,96.14c-17.19,6.54-34.37,20.78-41.9,34.53a81.88,81.88,0,0,0-9.81,29c-1.48,11-3.44,20.78-5.24,35.51-.49,13.59,1.64,30.11,4.09,42.55" transform="translate(-32.88 -0.63)"/><path class="cls-8" d="M607,97c-17.84,6.05-36.33,22.09-43,36.65a75.39,75.39,0,0,0-7.53,29.46c-.65,11.29-2.78,20.29-5.89,36-1,12.11.82,27.66,3.11,40.09" transform="translate(-32.88 -0.63)"/><path class="cls-8" d="M609.77,97.77c-18.33,5.57-38.29,23.4-44.18,38.62-3.77,9.17-5.4,19.15-5.24,30.28.33,11.45-2,19.8-6.38,36.16C552.5,214,554,228.69,556.1,241" transform="translate(-32.88 -0.63)"/><path class="cls-8" d="M612.55,98.76c-19,4.9-40.25,24.54-45.33,40.42-3.11,9.32-4.09,19.47-2.94,30.93,1.14,11.94-1.31,19.47-6.88,36.65-2,10-.81,24.39,1.15,36.5" transform="translate(-32.88 -0.63)"/><path class="cls-8" d="M615.5,99.57c-19.64,4.26-42.39,25.7-46.64,42.55-2.62,9.49-2.62,19.8-.82,31.42,2.13,12.28-.49,19-7.36,37.15-2.46,9.16-1.48,23.56.49,35.67" transform="translate(-32.88 -0.63)"/><path class="cls-8" d="M618.28,100.39c-20.29,3.77-44.35,27-47.78,44.51-2,9.66-1.15,20.3,1.47,32.08,3.11,12.6.16,18.65-7.86,37.64-3.11,8.67-2.12,23.56,0,36" transform="translate(-32.88 -0.63)"/><path class="cls-8" d="M722.36,104c-16.53-10.14-15.38-1.8-34.53-.33-19.47,1.64-35.67-9.81-69.22-3.6" transform="translate(-32.88 -0.63)"/><path class="cls-8" d="M721.38,103.5c-16.37-10.15-19.15-5.24-37.8-3.93-19,1.48-36.17-7.69-67.59-.65" transform="translate(-32.88 -0.63)"/><path class="cls-8" d="M720.56,103c-16.36-10.15-23.07-8.51-41.4-7.2-18.66,1.31-36.66-5.56-65.79,2.13" transform="translate(-32.88 -0.63)"/><path class="cls-8" d="M719.74,102.52c-16.2-10.15-27.16-11.46-45.33-10.47-18.16,1.14-36.82-3.28-63.82,4.91" transform="translate(-32.88 -0.63)"/><path class="cls-8" d="M718.92,101.86c-16.2-10-31.42-14.07-49.25-13.25-17.84,1-37.15-1.15-62,7.53" transform="translate(-32.88 -0.63)"/><path class="cls-8" d="M718.27,101.37c-16-10-36-16.52-53.68-15.87-17.51.65-37.31,1.15-59.89,10" transform="translate(-32.88 -0.63)"/><path class="cls-8" d="M717.45,100.72c-15.87-10-40.58-18.66-58.09-18.17-17.19.5-37.31,3.28-57.61,12.28" transform="translate(-32.88 -0.63)"/></g><g id="Joe-Eye_details" data-name="Joe-Eye details"><path class="cls-6" d="M728.91,220.84c-4.42,5.72-7.37,18.32-.49,28.8" transform="translate(-32.88 -0.63)"/><path class="cls-6" d="M684.56,224.44c6.87,7,10.14,18.32.65,29.45" transform="translate(-32.88 -0.63)"/><path class="cls-6" d="M728.09,232.45c7.85-8.67,37.15-19,43.36-7.52" transform="translate(-32.88 -0.63)"/></g><g id="Joe-Tash"><path class="cls-9" d="M674.62,310.88c-2.1,4.91-.35,9.77-2.83,11.25" transform="translate(-32.88 -0.63)"/><path class="cls-10" d="M679,309c-2,2.46-.16,8.18-3.11,10.31" transform="translate(-32.88 -0.63)"/><path class="cls-10" d="M683.09,307.24c-1.64,2.29-.17,8-2.79,9.82" transform="translate(-32.88 -0.63)"/><path class="cls-10" d="M687.18,305.6c-1.31,2.13,0,7.7-2.13,9.33" transform="translate(-32.88 -0.63)"/><path class="cls-10" d="M691.27,304.13c-1,2.13.16,7.53-1.48,9" transform="translate(-32.88 -0.63)"/><path class="cls-10" d="M695.52,302.82c-.49,2.13.33,7.53-.82,8.84" transform="translate(-32.88 -0.63)"/><path class="cls-10" d="M699.94,301.84c-.16,2,.33,7.2-.33,8.51" transform="translate(-32.88 -0.63)"/><path class="cls-10" d="M704.36,301a77.63,77.63,0,0,1,.33,8.18" transform="translate(-32.88 -0.63)"/><path class="cls-9" d="M709.43,300.37c.17,1.14.33,3.11.49,4.74" transform="translate(-32.88 -0.63)"/><path class="cls-9" d="M709.92,305.11c.17,1.48.17,2.79.33,3.28" transform="translate(-32.88 -0.63)"/><path class="cls-9" d="M714.42,307.09c-.31-1.06-.18-4.85-.26-7.06" transform="translate(-32.88 -0.63)"/><path class="cls-9" d="M719.13,307.47l-.53-7.76" transform="translate(-32.88 -0.63)"/><path class="cls-9" d="M724.88,308l-1.7-8.14" transform="translate(-32.88 -0.63)"/><path class="cls-9" d="M730.3,308.51c-.82-1.34-1.65-5.78-2.68-9.37" transform="translate(-32.88 -0.63)"/><path class="cls-9" d="M732.82,300.14c.3,2.89,2.47,7.76,3.78,8.25" transform="translate(-32.88 -0.63)"/><path class="cls-9" d="M737.61,301.19c.15,3,3,6.83,3.68,8.35" transform="translate(-32.88 -0.63)"/><path class="cls-9" d="M742,302.31c1.21,3.23,3.7,6.35,4.68,9" transform="translate(-32.88 -0.63)"/><path class="cls-9" d="M746.91,304.3c.94,2.5,4.46,5.84,5.33,8.15" transform="translate(-32.88 -0.63)"/></g><g id="Joe-ChinHair"><path class="cls-6" d="M621.88,365.66c6.71-3.6,17.18,2,27.17-4.42" transform="translate(-32.88 -0.63)"/><path class="cls-6" d="M629.08,371.55c6.22-3.6,16.53,1.31,26-5.23" transform="translate(-32.88 -0.63)"/><path class="cls-6" d="M636,376.46c5.89-3.43,15.87.82,24.71-5.72" transform="translate(-32.88 -0.63)"/><path class="cls-6" d="M642.34,380.72c5.56-3.44,15.38.16,23.73-6.22" transform="translate(-32.88 -0.63)"/><path class="cls-6" d="M648.56,384.32c5.23-3.44,14.72-.33,22.42-6.71" transform="translate(-32.88 -0.63)"/><path class="cls-6" d="M654.45,387.43c4.91-3.44,14.07-.82,21.27-7" transform="translate(-32.88 -0.63)"/><path class="cls-6" d="M660,389.88c4.58-3.11,13.42-1,20.13-7" transform="translate(-32.88 -0.63)"/><path class="cls-6" d="M665.41,392.17c4.26-2.94,12.77-1.31,19-7.36" transform="translate(-32.88 -0.63)"/><path class="cls-6" d="M670.65,394.14c3.93-2.95,12.11-1.64,17.84-7.37" transform="translate(-32.88 -0.63)"/><path class="cls-6" d="M675.56,395.77c3.76-2.78,11.45-2,16.69-7.52" transform="translate(-32.88 -0.63)"/><path class="cls-6" d="M680.3,397.08c3.44-2.45,10.8-2,15.55-7.36" transform="translate(-32.88 -0.63)"/><path class="cls-6" d="M685.05,398.23c3.11-2.29,10-2.13,14.4-7.37" transform="translate(-32.88 -0.63)"/><path class="cls-6" d="M689.47,399.21c2.78-2.13,9.33-2.29,13.25-7.2" transform="translate(-32.88 -0.63)"/><path class="cls-6" d="M693.72,400c2.62-2,8.68-2.46,12.11-7" transform="translate(-32.88 -0.63)"/><path class="cls-6" d="M697.81,400.68c2.29-1.63,8-2.62,11.13-6.87" transform="translate(-32.88 -0.63)"/><path class="cls-6" d="M701.74,401.34c2.13-1.64,7.53-2.78,10.15-6.71" transform="translate(-32.88 -0.63)"/><path class="cls-6" d="M705.67,401.67c2-1.31,6.71-2.79,9-6.39" transform="translate(-32.88 -0.63)"/><path class="cls-6" d="M709.43,402c1.64-1,6.06-2.78,8-6.22" transform="translate(-32.88 -0.63)"/><path class="cls-6" d="M713,402.32c1.48-1,5.4-2.95,6.88-6.06" transform="translate(-32.88 -0.63)"/><path class="cls-6" d="M716.63,402.32c1.15-.49,4.75-2.78,5.89-5.56" transform="translate(-32.88 -0.63)"/><path class="cls-6" d="M720.07,402.48c1-.49,4.09-2.94,4.75-5.4" transform="translate(-32.88 -0.63)"/><path class="cls-6" d="M723.34,402.32c.82,0,3.44-2.78,3.93-4.91" transform="translate(-32.88 -0.63)"/><path class="cls-6" d="M728.09,401.5c.82-.16,3.6-3.27,3.93-5.4" transform="translate(-32.88 -0.63)"/><path class="cls-6" d="M732.67,400.19c.82-.32,3.6-3.6,4.26-5.73" transform="translate(-32.88 -0.63)"/><path class="cls-6" d="M737.09,398.56c.82-.33,3.76-3.93,4.42-6.22" transform="translate(-32.88 -0.63)"/><path class="cls-6" d="M741.34,396.76c1-.5,3.77-4.59,4.59-6.88" transform="translate(-32.88 -0.63)"/><path class="cls-6" d="M745.43,394.46c1-.65,3.93-4.9,4.59-7.2" transform="translate(-32.88 -0.63)"/><path class="cls-6" d="M749.36,391.85c1-.66,3.93-5.24,4.58-7.69" transform="translate(-32.88 -0.63)"/><path class="cls-6" d="M753.13,389.06a36.4,36.4,0,0,0,4.58-8.18" transform="translate(-32.88 -0.63)"/><path class="cls-6" d="M756.56,386a39.07,39.07,0,0,0,4.58-8.84" transform="translate(-32.88 -0.63)"/><path class="cls-6" d="M759.67,382.68a42.48,42.48,0,0,0,4.58-9.49" transform="translate(-32.88 -0.63)"/><path class="cls-6" d="M762.62,379.08a73.88,73.88,0,0,0,4.58-10" transform="translate(-32.88 -0.63)"/><path class="cls-6" d="M765.4,375.15a79,79,0,0,0,4.25-10.47" transform="translate(-32.88 -0.63)"/><path class="cls-6" d="M767.69,371.06c.82-1.31,3.27-8,4.26-11" transform="translate(-32.88 -0.63)"/><path class="cls-6" d="M769.82,366.81a106,106,0,0,0,3.93-11.62" transform="translate(-32.88 -0.63)"/></g><g id="Joe-Neck_details" data-name="Joe-Neck details"><path class="cls-11" d="M708.61,417.7c-17.18,19.15-34.69,50.24-43.2,74" transform="translate(-32.88 -0.63)"/><path class="cls-11" d="M731,438.16c16.86-13.09,45.17-48.6,38.79-71.35,12.44,11,2.94,38-3.6,47.46" transform="translate(-32.88 -0.63)"/></g><g id="Joe-Shirt"><path class="cls-2" d="M823.82,388.25c-25.36,11.29-51.38,44.51-69.88,70C727.76,494.78,697,518,650.85,524.07c-25.53,3.44-57.44-2.45-66.44-27.16-5.24-13.91-4.26-32.73,5.23-46.64,6.22-9.17,18.17-20,23.24-18.66-6.38,1.64-17.18,18.82-19.15,25.7-15.21,50.23,36.66,57.93,72,46.8,21-6.55,37.31-18.17,53.51-34.2,24.22-24.06,44.68-54.33,70-76.59,4.91-4.42,11-9.16,16-11.78C814.49,376.63,823.82,385,823.82,388.25Z" transform="translate(-32.88 -0.63)"/><path class="cls-2" d="M585.39,458.12c-2,5.57-40.1,35.51-51.88,44.52-26.67,20.29-64.15,47.78-66.77,76.25-.65,7.2-1.63,18-1.8,19" transform="translate(-32.88 -0.63)"/><path class="cls-2" d="M820.71,383.66c49.91,19.48,86.08,51.23,109.81,72.66,8.51,7.53,24.71,19.15,37,29.13,27.33,22.26,50.08,81.17,48.61,112.43" transform="translate(-32.88 -0.63)"/><path class="cls-2" d="M939.85,469.91c-60.88-7-88.21,84.6-90.66,128" transform="translate(-32.88 -0.63)"/></g><g id="Joe-Stripes"><path class="cls-2" d="M465.76,588.39c5.57-1.64,78.88-32.57,115-46.81a361.14,361.14,0,0,1,53.51-16.69m53.18-10.31c42.39-7,77.08-9.82,122.08-12.93,7.37-.49,49.43-8.34,77.9-8.67" transform="translate(-32.88 -0.63)"/><path class="cls-2" d="M492.76,597.88c22.91-9,53.68-22.26,72.5-30.28,29.13-12.76,55.8-21.11,105.06-31.58a618.06,618.06,0,0,1,101.13-13.91c27.17-1.31,39.77-.16,103.59-11.29" transform="translate(-32.88 -0.63)"/><path class="cls-2" d="M866.53,527.51c-22.91,14.07-89.68,6.87-159.22,18.16-64.65,10.48-119.63,30-180.51,52.21" transform="translate(-32.88 -0.63)"/><path class="cls-2" d="M581.46,597.88c57.93-23.4,151.54-39.11,212.09-41.41,22.91-1,42.71.82,65.13-7.85" transform="translate(-32.88 -0.63)"/><path class="cls-2" d="M853.93,566.13c-45.82,20.13-100.15.49-219.12,31.75" transform="translate(-32.88 -0.63)"/><path class="cls-2" d="M850,589c-35.18,12-73.8,3.76-112.91,8.84" transform="translate(-32.88 -0.63)"/><path class="cls-2" d="M726.12,489.87c24.88-3.27,49.59-1.8,72.5-2.62,34.86-1.14,79.37-13.58,108.33-10.8" transform="translate(-32.88 -0.63)"/><path class="cls-2" d="M744.45,470.72c14.24-1.31,28.64-1.14,44.19-1,32.24.33,57-6.22,78.38-6.38,25.37-.16,54.66,5.73,55.48,7.2" transform="translate(-32.88 -0.63)"/><path class="cls-2" d="M757.71,453.21c36,3.28,74.29-4.41,109.48-3.92,27.65.16,43.36,5.89,69.55,20.29" transform="translate(-32.88 -0.63)"/><path class="cls-2" d="M772.76,433.58c21.44,1.31,62.35.16,85.43,2.45,33.38,3.27,62.84,14.07,86.08,31.42" transform="translate(-32.88 -0.63)"/><path class="cls-2" d="M788.31,415.74c22.09,4.09,55.48,2.94,66.28,5.07,40.58,7.86,60.38,24.88,74.46,34" transform="translate(-32.88 -0.63)"/><path class="cls-2" d="M803,401.83c21.27,4.25,65.29,6.38,98,29.29" transform="translate(-32.88 -0.63)"/><path class="cls-2" d="M818.75,390.7c14.56,4.42,37.8,8,52,18.66" transform="translate(-32.88 -0.63)"/><path class="cls-2" d="M603.72,517.85c-28.48,7.7-99.66,37.32-136.16,56.46" transform="translate(-32.88 -0.63)"/><path class="cls-2" d="M591.93,509.18c-14.07,5.4-101,32.08-120.11,53.84" transform="translate(-32.88 -0.63)"/><path class="cls-2" d="M584.57,497.4c-10.47,9-73.8,26.51-88.86,36" transform="translate(-32.88 -0.63)"/><path class="cls-2" d="M581.46,484.14C570,493.47,546.11,498.22,527,507.71" transform="translate(-32.88 -0.63)"/><path class="cls-2" d="M582.77,467c-2.62,8-16.86,13.09-26,17.35" transform="translate(-32.88 -0.63)"/><path class="cls-2" d="M875,510.82c46.64-35.68,78.72-36,103.26-14.4" transform="translate(-32.88 -0.63)"/><path class="cls-2" d="M862.44,537.49c56.13-36.16,89.68-59.89,131.25-18" transform="translate(-32.88 -0.63)"/><path class="cls-2" d="M853.93,566.13c12.44-10.47,63.66-48.28,97.37-49.91,30.44-1.47,43.86,12.43,51.39,22.25" transform="translate(-32.88 -0.63)"/><path class="cls-2" d="M850,589c46.64-35.67,81.17-52.69,109.32-54.33,23.4-1.31,43.69,12.11,51.06,25.37" transform="translate(-32.88 -0.63)"/><path class="cls-2" d="M867.52,597.88c15.54-11.62,62.18-43,97.86-44.51,17.83-.66,38.94,7.69,49.42,25.69" transform="translate(-32.88 -0.63)"/><path class="cls-2" d="M899.26,597.88c37.15-20,56.79-27,81.17-25.53,15.06,1,35.19,12.6,35.68,25.53" transform="translate(-32.88 -0.63)"/><path class="cls-2" d="M943.94,597.88c14.73-10.31,51.22-9.82,55.15,0" transform="translate(-32.88 -0.63)"/></g></g><g id="Eben"><g id="Eben-Main"><path class="cls-1" d="M261.2,206.11c-4.25.32-12.43,2.12-12.43,19.31,0,7-1.64,8.18-1.8,12.11-.33,4.58,2.94,8.83,3.6,14.23,1,7.37,1,11.13,2.94,14.41,3.44,5.72,14.4,11.45,21.11,9.81,3.77-.81,3.93-8,9.82-8.34,19,26.35,22.91,99.5,20,129.28-2.62,9-11.13,12.11-19.31,13.91-22.91,4.58-7.86,27.49,3.43,36.49,15.06,11.95,41.9,22.91,67.92,26,27.82,3.44,78.71-4.42,110.46-23.07,11.13-6.71,29.78-26.51,25.85-39.77-6.87-2.45-16.52-7.2-18.82-14.56-6.21-19.15-6.05-73.48-6.05-84.61,1.47-5.89,15.06-31.75,16.69-54.16,3.93,1,6.06,7.2,13.09,4.58C508.31,258,510.6,251.6,510.6,244.4c-.33-11,3.11-17.35,2.78-22.42a140.71,140.71,0,0,0-4.09-23.07c-5.07-11.79-12.43-2.95-15.54-3.6" transform="translate(-32.88 -0.63)"/><g id="Eben-Eyes"><path class="cls-1" d="M356.12,187.94c-7.86,0-14.89,5.08-28.64,5.08-4.25,0-16.36-.82-19-4.59,4.42-2.29,7.2-6.38,15.22-9.49-1,8,3.11,11.13,7.36,11,8.67-.33,9-8.84,6.55-12.11C347.94,178.94,349.57,184.34,356.12,187.94Z" transform="translate(-32.88 -0.63)"/><path class="cls-1" d="M317.83,201.85c17.67-.32,28-5.56,38.29-13.91,1.47-10.31-12.77-17.83-25.69-16.53-9.17,1-25.53,12-29,12.93" transform="translate(-32.88 -0.63)"/><path class="cls-1" d="M407.83,184.67c24.39,7.69,34.2,2.78,49.42-4.75-5.89-2.12-10.63-5.23-17.18-6.71,1.8,3.44.33,11-5.07,11.62-10.15,1.15-11.29-8.67-9-11.62C419.29,175.18,416.18,177.8,407.83,184.67Z" transform="translate(-32.88 -0.63)"/><path class="cls-1" d="M448.42,197.11c-14.24,1.63-35.68-5.24-40.59-12.44m49.42-4.75c-3.43-15.22-36.49-17.83-47.62-7.85" transform="translate(-32.88 -0.63)"/></g><path class="cls-1" d="M287.88,273.2c13.58,33.22,23.4,40.91,33.71,49.91,11.29,9.82,24.06,21.28,37.64,28.48,13.42,7,25.36,7.53,40.42,6.22,16.86-1.31,31.58-6.55,46.15-23.4C456.11,322.62,469,308.22,477.71,286" transform="translate(-32.88 -0.63)"/><path class="cls-1" d="M483.6,211.18c1,7.2,1.47,21.6,1,46" transform="translate(-32.88 -0.63)"/><path class="cls-1" d="M500.13,219.36c16.53,17.35-10,29.79-11.62,27.17-1.31-2,4.25-5.07,5.56-10.31,1.48-5.24-6.54-10.64-6.54-15.22,0-6.55,13.74-19.15,17.18-19.64,4.75-.49,7.2,20.29,6.55,25" transform="translate(-32.88 -0.63)"/><path class="cls-1" d="M252,239.33c-.49-4.09-1.47-22.75,5.73-22.59,5.23,0,12.76,6.22,14.89,10.31C280,241,262,247,270.37,253.4c3.44,2.62,5.89,5.89,1.31,5.07-16-2.78-20.13-21.6-3.44-28.47" transform="translate(-32.88 -0.63)"/><path class="cls-1" d="M431.56,265.51c-9-.16-21.44-5.89-29.13-5.56-4.42.32-6.22,3.43-9.65,4.09-2.29.33-5.4-1.8-10.31-1.8-8.68.16-22.26,10.14-30.28,13.42-4.74,2-3.43,4.58,1,4.91,2.62.32,6.39.81,15.06,4.91,19.15,8.67,36.49,7,51.88-7.37,1.47-1.47,7.69-6.87,12.11-8.34C436.31,268.13,436.31,265.67,431.56,265.51Z" transform="translate(-32.88 -0.63)"/><path class="cls-1" d="M349.25,278.6c9-1.63,24.38-4.25,33.05-4.25,3.77,0,8.51.65,11.62.33,3.93-.33,7.37-2.3,11.13-3.44,7.85-2.13,21.76-2.95,29.62-3.93" transform="translate(-32.88 -0.63)"/><path class="cls-1" d="M350.88,230.33c-5.07,7.36,2.29,16.69,11.13,15,1.64-.32,4.26-1.47,4.42-3.92.49-8,9.16-7.7,12.6-2.3a16.73,16.73,0,0,0,4.42,5.4,10.87,10.87,0,0,0,12.76-1.63c2.78-2.78,3.28-12,10.31-12.11a5.5,5.5,0,0,1,5.24,2.94c1.47,3.11,4.09,4.09,6.55,3.28,6.38-2.13,7.2-10.8,3.76-14.24" transform="translate(-32.88 -0.63)"/><path class="cls-1" d="M403.58,7.44c6.22-1.64,16.53,4.09,20.13,8.18,11.12,1.8,18.65,4.42,18.65,15.06,11.46,2.29,14.57,6.22,18.17,12.93,11,5.23,13.58,7.69,13.91,18.32C478.36,65,486.22,67,486.22,81.08c4.74,4.09,8.67,7,8.34,15.88,4.75,3.43,8.35,11.12,4.42,21.11,5.24,7.69,6.22,12.92.82,21.6,4.91,11.29.49,18.33-2.13,22.42,3.77,6.38,1,10.63-1.31,16.52,1,7.7-1.3,13.26-2.61,16.7" transform="translate(-32.88 -0.63)"/><path class="cls-1" d="M404.89,71.59c20.62,2.13,39.6,6.87,52.85,13.75l6.39,40.25c8.51,0,12.43,25,13.42,31.91,4.25,31.92,4.9,43,7.36,48.77,2.29-5.73,3.27-9.65,8.84-11" transform="translate(-32.88 -0.63)"/><path class="cls-1" d="M403.58,7.44C397.85,3.68,390.81.73,378.7,2.86a43.94,43.94,0,0,0-24.54,3.6C347,5.15,332.39,7.77,328,14.64c-5.89-1-17.84,2.95-24.38,15.55-17.35,6.38-18.66,13.91-19.48,16-14.89,6.88-13.41,18-14.56,21-8.67,5.4-11.45,15.71-8.67,20.62-2.13,3.11-9,11-6.39,20.95-1,1.8-8.83,11.13-3.6,20.94-2.78,6.06-1.3,16.37.66,20.46-4.91,5.4-2.29,16.86,2,18.82-2.29,3.6-4.25,11.45,2.78,20.62-2,4.74-.65,14.4,4.91,16.53" transform="translate(-32.88 -0.63)"/><path class="cls-1" d="M404.89,71.59a228.75,228.75,0,0,0-26.19-1c-36.16.65-72.49,9.82-89.68,30.44l2,40.42c-3.11-2.29-10,4.74-10,12.76,0,7.86,2.12,17.84,2.12,27.82,0,21.6-10.14,18.66-3.11,47.95" transform="translate(-32.88 -0.63)"/><path class="cls-1" d="M288.21,410c-1.31-.82-4.91-2.62-5.24-2.78-7-2.29-23.07,6.38-29.78,10-5.08,11.29.16,24.38,6.38,36C275.77,484,334,503.62,378.38,502c45-1.8,123.88-19.64,138.77-79.53C515,421,507,421.3,497.67,411c-1.8-2-3.6-4.58-6.21-4.74a11.77,11.77,0,0,0-5.41,1.47" transform="translate(-32.88 -0.63)"/><path class="cls-1" d="M251.88,421c-20.46,8.34-95.08,54.33-144.67,71.35C74.48,503.78,40,564.82,34.39,597.88" transform="translate(-32.88 -0.63)"/><path class="cls-1" d="M517,423.1c20.46,13.09,56.46,29.46,66.28,35" transform="translate(-32.88 -0.63)"/><path class="cls-2" d="M256.29,189.58c-2,4.74-.65,14.4,4.91,16.53,8.19,1.8,14.9,5.23,18.82,23.89-7-29.29,3.11-26.35,3.11-47.95,0-10-2.12-20-2.12-27.82,0-8,6.87-15,10-12.76l-2-40.42c31.59-38,127.65-37.15,168.72-15.71l6.39,40.25c8.51,0,12.43,25,13.42,31.91,4.25,31.92,4.9,43,7.36,48.77,2.29-5.73,3.27-9.65,8.84-11,1.31-3.44,3.6-9,2.61-16.7,2.3-5.89,5.08-10.14,1.31-16.52,2.62-4.09,7-11.13,2.13-22.42,5.4-8.68,4.42-13.91-.82-21.6,3.93-10,.33-17.68-4.42-21.11.33-8.84-3.6-11.79-8.34-15.88,0-14.07-7.86-16-11.78-19.15-.33-10.63-2.95-13.09-13.91-18.32-3.6-6.71-6.71-10.64-18.17-12.93,0-10.64-7.53-13.26-18.65-15.06-3.6-4.09-13.91-9.82-20.13-8.18C397.85,3.68,390.81.73,378.7,2.86a43.94,43.94,0,0,0-24.54,3.6C347,5.15,332.39,7.77,328,14.64c-5.89-1-17.84,2.95-24.38,15.55-17.35,6.38-18.66,13.91-19.48,16-14.89,6.88-13.41,18-14.56,21-8.67,5.4-11.45,15.71-8.67,20.62-2.13,3.11-9,11-6.39,20.95-1,1.8-8.83,11.13-3.6,20.94-2.78,6.06-1.3,16.37.66,20.46-4.91,5.4-2.29,16.86,2,18.82C251.22,172.56,249.26,180.41,256.29,189.58Z" transform="translate(-32.88 -0.63)"/></g><g id="Eben-Nose_details" data-name="Eben-Nose details"><path class="cls-12" d="M368.56,242.76c2.78-1.47,6.38-3.43,14.89,1.8a10.66,10.66,0,0,0,6.54,1.31,10.13,10.13,0,0,0,7.2-4.25c4.26-6.87,10.15-4.42,15.55-4.09" transform="translate(-32.88 -0.63)"/><path class="cls-12" d="M362,164.7c4.75,3.61,8,8,9,13.91,1.64,10.15-7,19.15-12.6,26.84" transform="translate(-32.88 -0.63)"/><path class="cls-12" d="M400.63,164.38a38.75,38.75,0,0,0-4.58,11C391.14,196.78,417,201.53,424.52,204" transform="translate(-32.88 -0.63)"/><path class="cls-12" d="M353.66,227.55l18-16" transform="translate(-32.88 -0.63)"/><path class="cls-12" d="M417.65,220,399,209.54" transform="translate(-32.88 -0.63)"/></g><g id="Eben-EyeBrows"><path class="cls-13" d="M300.15,156.52c.33,1.48-.33,3.44,0,5.24" transform="translate(-32.88 -0.63)"/><path class="cls-13" d="M304.73,153.9c1,2-.16,3.93.17,5.9" transform="translate(-32.88 -0.63)"/><path class="cls-13" d="M309.32,151.78c1.47,2.29,0,4.42.16,6.54" transform="translate(-32.88 -0.63)"/><path class="cls-13" d="M313.73,150.14c2.13,2.78,0,4.91.17,7.2" transform="translate(-32.88 -0.63)"/><path class="cls-13" d="M318,148.67c2.78,3.27.16,5.4.16,7.85" transform="translate(-32.88 -0.63)"/><path class="cls-13" d="M322.24,147.69c3.28,3.76.17,5.89.17,8.51" transform="translate(-32.88 -0.63)"/><path class="cls-13" d="M326.34,146.87c3.92,4.25.32,6.38.16,9.16" transform="translate(-32.88 -0.63)"/><path class="cls-13" d="M330.43,146.38c4.25,4.91.16,6.87,0,9.82" transform="translate(-32.88 -0.63)"/><path class="cls-13" d="M334.35,146.21c4.75,5.4.17,7.2-.16,10.48" transform="translate(-32.88 -0.63)"/><path class="cls-13" d="M338.12,146.05c5.23,6,.16,7.85-.33,11.13" transform="translate(-32.88 -0.63)"/><path class="cls-13" d="M341.72,146.21c5.56,6.71.16,8.19-.49,11.79" transform="translate(-32.88 -0.63)"/><path class="cls-13" d="M345.32,146.54c5.89,7.36,0,8.67-.82,12.44" transform="translate(-32.88 -0.63)"/><path class="cls-13" d="M348.59,146.87c6.55,8.18,0,9.33-.82,13.25" transform="translate(-32.88 -0.63)"/><path class="cls-13" d="M352,147.52c6.71,8.84-.17,9.82-1.31,13.75" transform="translate(-32.88 -0.63)"/><path class="cls-13" d="M355.14,148.18c7,9.49-.33,10.31-1.48,14.56" transform="translate(-32.88 -0.63)"/><path class="cls-13" d="M358.25,149c7.36,10.31-.49,10.81-1.8,15.22" transform="translate(-32.88 -0.63)"/><path class="cls-13" d="M361.19,150c7.53,11-.65,11.29-2.12,15.71" transform="translate(-32.88 -0.63)"/><path class="cls-13" d="M461.84,148.18c-.33,1.47.16,3.43-.17,5.23" transform="translate(-32.88 -0.63)"/><path class="cls-13" d="M458.89,146.21c-1,1.64,0,3.77-.49,5.73" transform="translate(-32.88 -0.63)"/><path class="cls-13" d="M455.78,144.58c-1.64,1.8-.33,4.09-.65,6.21" transform="translate(-32.88 -0.63)"/><path class="cls-13" d="M452.51,142.94c-2.29,2.29-.49,4.58-.82,6.87" transform="translate(-32.88 -0.63)"/><path class="cls-13" d="M449.23,141.79c-2.94,2.46-.65,4.91-1,7.37" transform="translate(-32.88 -0.63)"/><path class="cls-13" d="M445.8,140.65c-3.44,2.94-.82,5.4-1,8" transform="translate(-32.88 -0.63)"/><path class="cls-13" d="M442.36,139.83c-4.09,3.44-1,5.89-1,8.67" transform="translate(-32.88 -0.63)"/><path class="cls-13" d="M438.76,139.34c-4.58,3.76-1,6.22-1,9.33" transform="translate(-32.88 -0.63)"/><path class="cls-13" d="M435.16,139c-5.07,4.42-1,6.71-1,10" transform="translate(-32.88 -0.63)"/><path class="cls-13" d="M431.56,138.85c-5.56,5.07-1,7.36-.82,10.64" transform="translate(-32.88 -0.63)"/><path class="cls-13" d="M427.8,139.18c-5.89,5.56-.82,7.69-.66,11.12" transform="translate(-32.88 -0.63)"/><path class="cls-13" d="M424.2,139.67c-6.39,6.22-.82,8.18-.49,11.78" transform="translate(-32.88 -0.63)"/><path class="cls-13" d="M420.43,140.32c-6.71,7-.65,8.84,0,12.6" transform="translate(-32.88 -0.63)"/><path class="cls-13" d="M416.83,141.3c-7,7.86-.49,9.33.17,13.26" transform="translate(-32.88 -0.63)"/><path class="cls-13" d="M413.23,142.61c-7.2,8.51-.33,9.82.66,13.91" transform="translate(-32.88 -0.63)"/><path class="cls-13" d="M409.63,144.25c-7.36,9.33,0,10.31,1.15,14.56" transform="translate(-32.88 -0.63)"/><path class="cls-13" d="M406.2,146.21c-7.53,10.15.32,10.8,1.63,15.06" transform="translate(-32.88 -0.63)"/><path class="cls-13" d="M402.76,148.34c-7.53,11,.65,11.29,2.29,15.71" transform="translate(-32.88 -0.63)"/></g><g id="Eben-Chin"><path class="cls-14" d="M375.92,306.1c13.91-5.57,24.38-8.19,40.09-3.77" transform="translate(-32.88 -0.63)"/><path class="cls-15" d="M374.94,299.39c8.84-.33,19.64-1.31,29.95-2.46m0,0,10.8-1" transform="translate(-32.88 -0.63)"/><path class="cls-14" d="M327.48,277.62c.49,16.69,29.13,62.84,38.62,77.08" transform="translate(-32.88 -0.63)"/><path class="cls-14" d="M460.2,249.31c.65,1.47,8.18,8.18-.66,35.68-3.27,10.3-15.38,55.14-24.54,59.89" transform="translate(-32.88 -0.63)"/></g><g id="Eben-Hair"><path class="cls-16" d="M403.74,14.64c6.05-1.47,15.87,3.6,19.64,7.36,10.31,1.81,17.51,4.26,18,13.75,11.29,2.29,14.89,6.06,18.82,12.44,10,5.56,12.27,8.34,12.76,18.49,3.6,3.6,10.64,6.06,10.8,19.47,4.75,3.6,8.51,6.71,8.51,15.39,4.42,3.92,7.69,11.62,4.42,20.94,4.75,7.7,5.73,13.1,1,21.44,4.42,10.64.49,17.51-1.8,21.44,3.44,6.38,1.15,10.8-.82,16.36,1.15,6.22-.81,10.64-1.3,13.59" transform="translate(-32.88 -0.63)"/><path class="cls-16" d="M403.9,21.68c5.89-1.15,15.06,3.43,19,6.87,9.82,1.64,16.69,3.93,17.67,12.44,11,2.13,15.06,5.89,19.31,11.78,8.84,5.73,11.13,9,11.62,18.82,3.11,3.93,9.65,7,9.82,19.47,4.74,3.11,8.51,6.71,8.67,15.22a20.29,20.29,0,0,1,4.26,20.62c4.25,7.69,5.23,13.26,1.14,21.28,4.09,10,.66,16.52-1.31,20.45,3.28,6.55,1.31,11-.32,16.2,1.3,4.75-.33,8,0,10.48" transform="translate(-32.88 -0.63)"/><path class="cls-16" d="M404.07,28.88c5.72-1,14.4,3.11,18.33,6.05,9.16,1.64,15.71,3.6,17.18,11.13,10.64,2.13,15.38,5.73,20,11.46C467.4,63.24,469.36,67,470,76.34c2.78,4.41,8.51,8,8.83,19.63,4.59,2.62,8.35,6.71,8.68,14.89,3.92,4.75,6.71,12.44,4.25,20.3,3.93,7.85,4.75,13.58,1.47,21.27,3.6,9.33.66,15.55-1,19.47,3,6.71,1.48,11,.17,15.88,1.47,3.27.32,5.73,1.31,7.53" transform="translate(-32.88 -0.63)"/><path class="cls-16" d="M404.23,36.08c5.73-.82,13.58,2.62,17.84,5.24,8.34,1.47,14.56,3.43,16.69,9.81,10.31,2.3,15.55,5.73,20.46,11,6.71,5.89,8.51,10.14,9.16,19.14,2.62,4.75,7.53,8.84,8,19.64,4.58,2.29,8.18,6.55,8.84,14.73,3.6,5.07,6.05,12.93,4.25,20,3.27,7.85,4.26,13.74,1.47,21.11,3.11,8.67.82,14.72-.32,18.49,2.45,6.87,1.31,11.13.65,15.71,1.47,1.8.66,3.11,2.46,4.42" transform="translate(-32.88 -0.63)"/><path class="cls-16" d="M404.23,43.12c5.73-.5,13.09,2.45,17.35,4.74,7.69,1.31,13.74,3,16.2,8.35,10.14,2.29,15.87,5.56,21.27,10.47,5.4,6.22,7.2,11,7.86,19.47,2.29,5.08,6.54,9.66,7,19.64,4.59,1.8,8,6.55,9,14.4,3.28,5.57,5.57,13.42,4.1,19.8,2.94,7.86,3.76,13.91,1.8,20.95,2.61,8,1,13.75,0,17.51,2.29,7,1.47,11.29,1.14,15.55,1.64.32,1.15.49,3.77,1.31" transform="translate(-32.88 -0.63)"/><path class="cls-16" d="M404.39,50.32c5.57-.33,12.44,2.12,16.86,3.92,6.87,1.31,12.6,2.79,15.55,7,9.82,2.29,16.36,5.56,21.92,10.15,4.42,6.21,5.9,11.45,6.71,19.47,2,5.56,5.4,10.64,6.06,19.8,4.42,1.31,7.85,6.55,9.16,14.24,3,5.89,4.91,13.74,3.93,19.47,2.46,7.86,3.44,14.08,2.13,20.62,2.13,7.53,1,12.93.33,16.69,2,7.2,1.63,11.46,1.63,15.39,2-1.31,1.8-2.13,5.08-1.8" transform="translate(-32.88 -0.63)"/><path class="cls-16" d="M404.56,57.35c5.4,0,11.62,1.8,16.2,3.44,6.38,1,11.62,2.45,15.22,5.56A64.72,64.72,0,0,1,458.4,76c3.27,6.38,4.74,12.11,5.56,19.8,1.64,5.89,4.26,11.45,5.07,19.8,4.42,1,7.7,6.55,9.33,13.91,2.62,6.38,4.42,14.4,3.93,19.31,2,7.86,2.78,14.24,2.13,20.46,1.63,6.87,1.14,12.11,1,15.87a88.71,88.71,0,0,1,2,14.89c2.13-2.62,2.29-4.42,6.39-4.74" transform="translate(-32.88 -0.63)"/><path class="cls-16" d="M404.72,64.55a81.55,81.55,0,0,1,15.71,2.62c5.57,1,10.64,2.13,14.57,4.42,9.32,2.29,16.85,5.24,23.07,9a98.34,98.34,0,0,1,4.42,20c1.31,6.38,3.11,12.43,4.09,20,4.42.49,7.53,6.38,9.33,13.75,2.45,6.71,3.93,14.72,3.93,18.82a103,103,0,0,1,2.45,20.45,95.23,95.23,0,0,1,1.31,14.89c1.31,7.37,1.64,11.62,2.62,14.73,2.12-4.09,2.78-7,7.53-7.85" transform="translate(-32.88 -0.63)"/><path class="cls-16" d="M403.74,14.64c-6.06-3.6-13.42-6.22-25-4.25-4.09-.33-13.42-1.31-23.24,3.27-7-1.15-20.45,1.31-24.87,7.53-6.22-.82-17.84,2.94-24.55,14.23-16.2,6.06-18.16,13.1-19.63,15.39-13.91,6.54-13.1,16.85-14.73,20.13-7.69,5.56-10,15.54-7.69,20.61-1.8,3.44-7.7,11.13-5.4,21-1.31,1.15-9,10.31-4.26,20-2.45,5.72-1.14,15.54.66,19.63-4.26,5.24-2,16,1.8,18.33-2,4.26-4.1,11.95,2.12,20.62a17.67,17.67,0,0,0,1.8,15.22" transform="translate(-32.88 -0.63)"/><path class="cls-16" d="M403.9,21.68a39.27,39.27,0,0,0-25.2-3.77c-4.09-.32-12.93-1.14-22.09,2.95-6.55-1-19,1.14-23.24,6.71-6.54-.49-17.84,2.94-24.71,13.25-15.05,5.57-17.84,12.11-20,14.57-12.93,6.22-12.93,15.87-14.9,19.31-6.7,5.73-8.67,15.22-6.54,20.62-1.47,3.76-6.71,11.45-4.75,20.78-1.47.82-9,9.49-4.91,19-2.12,5.73-1,14.73.66,19-3.6,5.07-1.47,15.22,1.8,17.83-1.64,5.08-3.93,12.28,1.31,20.62a21,21,0,0,0,.49,13.75" transform="translate(-32.88 -0.63)"/><path class="cls-16" d="M404.07,28.88a46.07,46.07,0,0,0-25.37-3.44c-4.09-.33-12.27-.82-20.78,2.62-6.38-.82-17.67,1.15-21.93,6.05-6.87-.32-17.67,3-24.71,12.11C297.21,51.3,293.77,57.35,291.15,60c-11.95,5.89-12.93,14.73-15,18.49-5.73,5.89-7.37,14.89-5.57,20.46-1.31,4.42-5.73,11.78-3.93,20.78-1.63.33-9.16,8.84-5.56,18.17-2,5.4-.82,13.74.65,18-3.1,5.23-1.14,14.4,1.64,17.51-1.47,5.89-3.6,12.76.49,20.78a21.93,21.93,0,0,0,0,12.6" transform="translate(-32.88 -0.63)"/><path class="cls-16" d="M404.23,36.08A51.26,51.26,0,0,0,378.7,33c-4.25-.16-11.78-.66-19.64,2.29-6.05-.65-16.2,1.15-20.45,5.24-7.2,0-17.68,2.94-24.71,11-13.09,4.75-17.18,10.31-20.46,13.09-11,5.57-12.6,13.75-15.22,17.68-4.74,5.89-6.05,14.72-4.42,20.45-1,4.75-4.58,12.11-3.1,20.62-2,0-9.33,8.18-6.39,17.35-1.63,5.07-.49,12.76.82,17.18-2.45,5.07-.82,13.58,1.47,17-1.14,6.71-3.43,13.09-.16,20.78a22.14,22.14,0,0,0-.49,12" transform="translate(-32.88 -0.63)"/><path class="cls-16" d="M404.23,43.12A64.58,64.58,0,0,0,378.7,40.5c-4.25-.17-11.29-.49-18.33,2-5.72-.49-14.72,1-19.14,4.42-7.53.33-17.51,3.11-24.71,10-12.11,4.26-16.7,9.33-20.62,12.44C285.75,74.37,283.3,81.74,280.35,86a30.4,30.4,0,0,0-3.27,20.46c-.82,5.07-3.6,12.27-2.29,20.45-2.29-.49-9.49,7.53-7.2,16.37-1.15,4.91-.17,11.94,1,16.36-2,5.07-.49,12.93,1.47,16.53-1,7.69-3.44,13.75-1.14,21a25.43,25.43,0,0,0-.82,11.45" transform="translate(-32.88 -0.63)"/><path class="cls-16" d="M404.39,50.32A74.86,74.86,0,0,0,378.7,48c-4.42-.16-10.64-.32-17.18,1.64-5.4-.16-13.26,1-17.67,3.77-7.7.49-17.35,2.94-24.88,8.83-11,3.77-16.2,8.35-20.78,11.62-9.17,4.75-12.44,11.46-15.55,15.87a36.5,36.5,0,0,0-2.29,20.3c-.49,5.56-2.62,12.6-1.47,20.45-2.46-.82-9.66,6.88-7.86,15.55-1,4.58-.16,11.13.82,15.55-1.14,4.9,0,12.11,1.47,16-.81,8.35-3.11,14.24-2,21a26.06,26.06,0,0,0-.82,11.62" transform="translate(-32.88 -0.63)"/><path class="cls-16" d="M404.56,57.35a100.77,100.77,0,0,0-25.86-1.8c-4.42,0-10.14-.16-16,1.31-5.07,0-11.78,1-16,3-8.19.82-17.51,3.11-25,7.85-10,3.28-15.87,7.37-21.11,10.8-8.18,4.42-12.11,10.31-15.71,15.06a56.74,56.74,0,0,0-1.15,20.29c-.32,5.89-1.47,12.93-.65,20.46-2.78-1.48-9.82,6-8.67,14.56-.66,4.42.16,10.15,1,14.73-.66,4.74.32,11.13,1.31,15.55-.49,9.16-2.95,14.56-2.62,20.94a27.51,27.51,0,0,0-1,12.6" transform="translate(-32.88 -0.63)"/><path class="cls-16" d="M404.72,64.55a148.79,148.79,0,0,0-26-1.47,93.83,93.83,0,0,0-14.73,1,54.64,54.64,0,0,0-14.72,2.29c-8.51,1-17.35,3-25,6.55a91.79,91.79,0,0,0-21.28,10.15c-7.36,4.09-12.11,9.32-16,14.23a104.21,104.21,0,0,0,0,20.29c0,6.22-.49,13.1.16,20.3-3.11-1.8-10,5.4-9.33,13.58-.33,4.25.33,9.33,1,13.91,0,4.74.66,10.47,1.15,15.22-.16,10-2.78,15-3.44,21.11-1.14,3.76-1.8,8.18-.82,14.89" transform="translate(-32.88 -0.63)"/></g><g id="Eben-Neck_details" data-name="Eben-Neck details"><path class="cls-17" d="M353.71,401.29c10.7,6.08,22.37,9.9,34.28,9.9m0,0c12.83-.37,25-5.57,36-13.32" transform="translate(-32.88 -0.63)"/><path class="cls-18" d="M374.42,454.61a22.59,22.59,0,0,0,12.5,4.29m0,0c4.68-.16,9.12-2.41,13.12-5.77" transform="translate(-32.88 -0.63)"/><path class="cls-19" d="M362,447.07c12.3,20,20.58,21,24.93,21m0,0c4.68-.85,13.48-1.28,24.9-22.39" transform="translate(-32.88 -0.63)"/><path class="cls-20" d="M368.39,374.17A46,46,0,0,0,388,378.92m0,0a42.79,42.79,0,0,0,20.62-6.38" transform="translate(-32.88 -0.63)"/></g></g></g></svg>