<svg id="Layer_1" data-name="Layer 1" xmlns="http://www.w3.org/2000/svg" viewBox="0 0 580.2 598.34"><defs><style>.cls-1,.cls-3,.cls-4{fill:none;stroke-linecap:round;stroke-linejoin:round;}.cls-1{stroke:#cce;stroke-width:2.19px;stroke-dasharray:2.19 8.77 0 0;}.cls-2{fill:#cce;}.cls-3{stroke:#00002c;}.cls-3,.cls-4{stroke-width:3.17px;}.cls-4{stroke:#c13;}</style></defs><g id="Concierge-icon-with-orbit"><g id="orbiting-icons"><g id="orbits"><path class="cls-1" d="M688.12,454.46c-90.23,90.35-236.71,90.35-326.94,0s-90.35-236.71,0-326.93,236.71-90.35,326.94,0A230.75,230.75,0,0,1,748,231.15" transform="translate(-234.55 -0.89)"/><path class="cls-1" d="M352.78,313.58A172.9,172.9,0,0,0,458.35,451.17c88.4,36.65,189.83-5.35,226.48-93.75s-5.36-190-93.76-226.6a173.22,173.22,0,0,0-204,54.67" transform="translate(-234.55 -0.89)"/><path class="cls-1" d="M524.71,2C365.08,2,235.64,131.42,235.64,291.06S365.08,580,524.71,580,813.65,450.69,813.65,291.06" transform="translate(-234.55 -0.89)"/></g><g id="icons"><path class="cls-2" d="M763.85,215.2a22.32,22.32,0,0,0-35.19,26.91l-3.16,11.56,11.81-3A23.22,23.22,0,0,0,748,253.31a22.21,22.21,0,0,0,15.83-38.11ZM748,249.53a18.22,18.22,0,0,1-9.49-2.55l-.74-.37-6.94,1.83,1.83-6.94-.49-.61a19.36,19.36,0,0,1-2.8-10A18.6,18.6,0,0,1,748,212.4a18.41,18.41,0,0,1,13.15,5.48A18.42,18.42,0,0,1,748,249.53Zm10.11-13.88-3.78-1.82a.82.82,0,0,0-1.21.24,16.92,16.92,0,0,1-1.83,2.19c-.24.37-.61.49-1.22.12-3.28-1.58-5.35-2.92-7.55-6.57-.61-1,.61-1,1.59-3a1,1,0,0,0,0-1c-.13-.24-1.22-3-1.71-4.14s-1-1-1.34-1h-1a2.55,2.55,0,0,0-1.58.61,6.57,6.57,0,0,0-1.95,4.74c0,2.68,2.07,5.36,2.31,5.73s3.9,6.09,9.5,8.52c3.65,1.46,5,1.58,6.82,1.34,1-.12,3.28-1.34,3.65-2.68a4.76,4.76,0,0,0,.36-2.68C759.1,236,758.74,235.9,758.13,235.65Z" transform="translate(-234.55 -0.89)"/><path class="cls-2" d="M298.35,231.64A11.57,11.57,0,1,0,310,243.2,11.64,11.64,0,0,0,298.35,231.64Zm0,19.11a7.56,7.56,0,0,1-7.43-7.55,7.49,7.49,0,1,1,15,0A7.59,7.59,0,0,1,298.35,250.75Zm14.86-19.6a2.66,2.66,0,0,1-2.8,2.68,2.63,2.63,0,0,1-2.68-2.68,2.71,2.71,0,0,1,2.68-2.68A2.73,2.73,0,0,1,313.21,231.15Zm7.55,2.8c-.12-3.65-1-6.82-3.66-9.5s-5.72-3.41-9.37-3.65-14.86-.24-18.63,0-6.82,1-9.5,3.65-3.41,5.85-3.65,9.5-.12,14.85,0,18.63c.24,3.53,1.09,6.82,3.65,9.37s5.85,3.54,9.5,3.66,14.85.24,18.63,0,6.82-1,9.37-3.66,3.54-5.84,3.66-9.37C321,248.8,321,237.6,320.76,234ZM316,256.48a7.93,7.93,0,0,1-4.26,4.38c-3.05,1.09-10.11.85-13.4.85s-10.23.24-13.27-.85a7.9,7.9,0,0,1-4.26-4.38c-1.22-2.93-.85-10-.85-13.28s-.37-10.35.85-13.27a7.34,7.34,0,0,1,4.26-4.26c3-1.22,10.11-1,13.27-1s10.35-.25,13.4,1a7.71,7.71,0,0,1,4.26,4.26c1.22,2.92.85,10,.85,13.27S317.23,253.55,316,256.48Z" transform="translate(-234.55 -0.89)"/><path class="cls-2" d="M360.45,69.08a20.76,20.76,0,1,0-24,20.46V75.05h-5.35v-6h5.35V64.46c0-5.24,3.05-8.16,7.8-8.16a28.51,28.51,0,0,1,4.75.48V61.9h-2.68c-2.56,0-3.41,1.58-3.41,3.29v3.89h5.84l-1,6h-4.87V89.54A20.61,20.61,0,0,0,360.45,69.08Z" transform="translate(-234.55 -0.89)"/><path class="cls-2" d="M696.15,454.46a38.31,38.31,0,0,1-.24,5.36H680.32c-.12-1.71-.24-3.41-.24-5.36s.12-3.65.24-5.36h15.59A39.26,39.26,0,0,1,696.15,454.46Zm12.79-5.36a20,20,0,0,1,.73,5.36,19.29,19.29,0,0,1-.73,5.36H698.59a40.08,40.08,0,0,0,0-10.72Zm-.86-2.67h-9.86c-.73-5.36-2.43-9.87-4.63-12.67A21.58,21.58,0,0,1,708.08,446.43Zm-12.54,0H680.69a38.63,38.63,0,0,1,2.31-7.92,14.27,14.27,0,0,1,2.8-4.38,3.53,3.53,0,0,1,2.32-1.1,3.74,3.74,0,0,1,2.43,1.1,20.84,20.84,0,0,1,2.8,4.38A38.36,38.36,0,0,1,695.54,446.43Zm-27.27,0a21.14,21.14,0,0,1,14.37-12.67c-2.07,2.8-3.78,7.31-4.63,12.67Zm9.37,2.67c-.12,1.71-.24,3.54-.24,5.36s.12,3.65.24,5.36H667.42a18.92,18.92,0,0,1-.73-5.36,19.59,19.59,0,0,1,.73-5.36ZM683,470.53a38.71,38.71,0,0,1-2.31-7.91h14.85a38.43,38.43,0,0,1-2.19,7.91,17.21,17.21,0,0,1-2.8,4.27,3.48,3.48,0,0,1-2.43,1.21,3.29,3.29,0,0,1-2.32-1.21A12.39,12.39,0,0,1,683,470.53Zm-.36,4.75a21.1,21.1,0,0,1-14.37-12.66H678A30.58,30.58,0,0,0,682.64,475.28Zm11,0c2.2-2.92,3.9-7.3,4.63-12.66h9.86A21.54,21.54,0,0,1,693.59,475.28Z" transform="translate(-234.55 -0.89)"/><path class="cls-2" d="M368.12,459.45l-13.76-23.74h13.52l13.76,23.74Zm-11.56,1.95-6.7,11.93h26.06l6.69-11.93Zm-3.9-22.77-13,22.77,6.82,11.93,13.15-22.76Z" transform="translate(-234.55 -0.89)"/><path class="cls-2" d="M517.77,583.53c-.24,1.58-1.46,9.13-1.83,11.2,0,.12,0,.25-.24.25h-6.21a1.21,1.21,0,0,1-1.1-1.22l5-31.17a1.7,1.7,0,0,1,1.7-1.46c12.79,0,13.76-.25,17,1,5.11,1.95,5.48,6.7,3.77,11.81s-6.09,7.55-11.81,7.55C520.45,581.58,518.26,580.85,517.77,583.53Zm20.58-12c-.12-.13-.12-.25-.25.12a13.35,13.35,0,0,1-.73,2.8c-3.28,9.5-12.54,8.64-17.17,8.64a.84.84,0,0,0-.85.86c-2,11.81-2.31,14.24-2.31,14.24a1,1,0,0,0,1,1.1h5.24a1.56,1.56,0,0,0,1.46-1.34c.12-.37-.12.61,1.22-7.67.36-1.83,1.21-1.59,2.43-1.59,6,0,10.6-2.43,12.06-9.49C540.9,576.35,540.78,573.18,538.35,571.48Z" transform="translate(-234.55 -0.89)"/><path class="cls-2" d="M516.06,64.82a3.92,3.92,0,0,1-3.89,3.9,4,4,0,1,1,0-7.92h3.89Zm2.07,0a3.9,3.9,0,1,1,7.8,0v9.86a3.9,3.9,0,0,1-7.8,0ZM522,48.87a3.85,3.85,0,0,1-3.9-3.9,3.9,3.9,0,1,1,7.8,0v3.9Zm0,2.07a3.9,3.9,0,1,1,0,7.79h-9.86a3.9,3.9,0,1,1,0-7.79Zm15.83,3.9a4,4,0,0,1,4-3.9,3.9,3.9,0,0,1,0,7.79h-4Zm-2,0a4,4,0,0,1-7.91,0V45a4,4,0,1,1,7.91,0ZM532,70.67a4,4,0,0,1,3.89,4,4,4,0,0,1-7.91,0v-4Zm0-2a4,4,0,1,1,0-7.92h9.86a4,4,0,0,1,0,7.92Z" transform="translate(-234.55 -0.89)"/></g></g><g id="team-icons-service-concierge"><g id="boxes"><path class="cls-3" d="M605.8,243.45h33.61V405.76H572.2m-47.49,0H477.1V372.15" transform="translate(-234.55 -0.89)"/><path class="cls-3" d="M524.71,372.15H443.49V209.84H605.8V372.15" transform="translate(-234.55 -0.89)"/></g><g id="highlight-asterisk-pointer"><g id="pointer"><path class="cls-4" d="M588,444.11,572.2,405.76" transform="translate(-234.55 -0.89)"/><path class="cls-4" d="M639.41,405.76H572.2l-47.49,47.61V291.06Z" transform="translate(-234.55 -0.89)"/></g><g id="asterisk"><path class="cls-4" d="M481.61,334,567.69,248" transform="translate(-234.55 -0.89)"/><path class="cls-4" d="M567.69,334,481.61,248" transform="translate(-234.55 -0.89)"/><path class="cls-4" d="M524.71,351.94V230.17" transform="translate(-234.55 -0.89)"/><path class="cls-4" d="M585.59,291.06H463.83" transform="translate(-234.55 -0.89)"/></g></g></g></g></svg>