<svg id="Layer_1" data-name="Layer 1" xmlns="http://www.w3.org/2000/svg" viewBox="0 0 1047.87 308.62"><defs><style>.cls-1{fill:#c13;}.cls-2{fill:#a60e31;}</style></defs><g id="logo-Kotoku"><path class="cls-1" d="M979,407.56a30.51,30.51,0,0,1-8.48.8c-18.18,0-26.66-12.12-26.66-38V235.07H886.46V381.3c0,46.05,21,73.92,59,73.92,14.55,0,25.45-4.44,33.53-11.71ZM486.14,235.07H453.82V176.49H396.46v58.58H364.15V279.5h122Zm-416.08,122,44,93.32h63L109.65,319.49l65-84.42H110.86l-40.8,57.36Zm204-80c12.93,4.44,19.8,16.16,19.8,35.55v60.19c0,19.39-6.87,31.1-19.8,35.14v46.86c52.11-4.85,79.58-41.2,79.58-111.9s-27.47-107.45-79.58-112.3ZM577,408q-19.38-6.06-19.39-35.14V312.63c0-19.39,6.47-31.11,19.39-35.55V230.62c-52.11,4.85-79.58,41.61-79.58,112.3S524.92,450,577,454.82ZM695.8,450.38h57.36c0-104.23-2-197.94,0-303.78H695.8Z" transform="translate(-0.58 -146.6)"/><path class="cls-2" d="M991.09,450.38h57.36V235.07H991.09Zm-990.51,0H57.94V146.6H.58ZM261.94,408q-19.38-6.06-19.39-35.14V312.63c0-19.39,6.47-31.11,19.39-35.55V230.62c-51.7,4.85-79.17,41.61-79.17,112.3S210.24,450,261.94,454.82Zm134.52,42.42h57.36V291.62H396.46Zm192.69-173.3c12.93,4.44,19.39,16.16,19.39,35.55v60.19q0,29.08-19.39,35.14v46.86c52.11-4.85,79.58-41.2,79.58-111.9s-27.47-107.45-79.58-112.3Zm176.13,80,44,93.32h63L804.86,319.49l65-84.42H806.08L767.7,288.39l-2.42,4Z" transform="translate(-0.58 -146.6)"/></g></svg>