<svg id="Layer_1" data-name="Layer 1" xmlns="http://www.w3.org/2000/svg" viewBox="0 0 533.91 598.31"><defs><style>.cls-1,.cls-2{fill:#c13;}.cls-1{fill-rule:evenodd;}</style></defs><g id="logo-CherryonTop"><path class="cls-1" d="M539.55,144.68a121,121,0,0,1,25.63,2.42,21.43,21.43,0,0,0,0,8.74c3.62,18.4,24.73,36.19,47.05,39.81,11.46,1.81,21.11-.61,27.14-5.73a132.44,132.44,0,0,1,32.87,87.45c0,73.28-59.41,133-132.69,133a133,133,0,0,1-133-133C406.56,204.09,466,144.68,539.55,144.68Zm-57.3,57.9a17.81,17.81,0,0,1,25,3.32c5.73,7.84,4.53,19-3.31,24.73a17.82,17.82,0,0,1-25-3.32C473.21,219.77,474.72,208.61,482.25,202.58Zm72.68,132.69A16.23,16.23,0,0,1,575.13,347a16.41,16.41,0,0,1-11.45,20.2,92.72,92.72,0,0,1-117.31-89.86,92,92,0,0,1,1.51-16,16.73,16.73,0,0,1,19.3-13.57,16.32,16.32,0,0,1,13.27,19.3,58.12,58.12,0,0,0-.91,10.25,59.72,59.72,0,0,0,60,59.71A67.3,67.3,0,0,0,554.93,335.27Z" transform="translate(-258.95 -1.52)"/><path class="cls-1" d="M595.64,157.05a13.14,13.14,0,0,0,2.41,18.69,13.46,13.46,0,0,0,18.7-2.71A31.14,31.14,0,0,1,641.18,161a33.19,33.19,0,0,1,8.14,1.2,13.64,13.64,0,0,0,16.28-9.34,13.35,13.35,0,0,0-9.35-16.29,50.51,50.51,0,0,0-15.07-2.11A56.7,56.7,0,0,0,595.64,157.05Z" transform="translate(-258.95 -1.52)"/><path class="cls-2" d="M570.61,39.74a6.57,6.57,0,0,1-5.73-7.54,6.59,6.59,0,0,1,7.54-6,253.68,253.68,0,0,1,220.44,251.2,255.68,255.68,0,0,1-52.47,154.4,6.88,6.88,0,0,1-10.86-8.45,245.87,245.87,0,0,0,36.79-69.05A234.86,234.86,0,0,0,779,277.37,239.55,239.55,0,0,0,570.61,39.74Z" transform="translate(-258.95 -1.52)"/><path class="cls-2" d="M633.94,523.14c6.33,10.85,22,13.57,38.9,3.92,21.71-12.37,26.54-35.28,15.08-55.49-11.46-19.6-33.17-24.42-52.78-13.27-17.49,9.95-23.22,27.14-16.58,38.9,1.51,2.72,3.32,3.32,5.13,2.42,1.2-.61,1.8-1.81,3-4.83,1.21-6,4.52-10.85,11.46-15.08,11.46-6.33,24.43-3.61,33.17,11.16,6,10.56,4.22,19.3-2.41,23.22-4.83,2.72-9.35,1.81-11.76-2.41L656,509.57c-3.62-6-9.35-8.45-16.58-4.22C632.43,509.27,630.32,516.5,633.94,523.14Zm-42.22,71.17c.3,3.61,2.71,6,6.33,5.42,2.72-.3,5.43-1.5,9.65-3.92l13.57-7.23c3.92-2.11,5.13-4.23,4.83-6.94-.3-2.41-1.81-3.92-4.22-4.82h-2.11c-2.12-.61-3.32-1.81-3.93-5.73L606.5,496.6c-.61-4.82,0-6.33,1.5-7.54l1.51-.9c2.11-1.81,3.32-3.62,2.72-6.34-.31-3.61-3-5.42-6.94-4.82l-29.55,3.62c-3.32.6-5.13,3-4.83,6.63a5.58,5.58,0,0,0,3.62,4.53l1.81.9c1.81.6,2.71,2.11,3.32,7.24l3.92,32v.31c-3.62,4.22-7.24,6-10.86,6.63-5.73.6-8.74-2.71-10.55-10.25l-6.34-25.94c-1.2-4.82-.3-6.33,1.51-7.54l1.51-1.2a5.59,5.59,0,0,0,2.11-5.43c-.3-3.62-2.71-5.43-6.33-5.13l-29.86,3.92c-3.61.3-5.73,2.72-5.42,6.34.3,2.71,1.81,4.22,4.22,5.42l1.81.61c1.81.9,2.41,2.11,3.31,6.93L536.84,540c3.31,13.57,10.85,21.41,23.52,19.9,7.84-1.21,15.38-6,24.73-16.89Zm-148.67-76.6c-3.62,15.38,6.34,30.46,26.54,35.28,25.63,5.73,43.42-7.54,48.55-29.85s-6.33-40.71-29.85-46.14c-20.51-4.82-36.19,4.22-39.51,16.89-.6,3.31.3,4.82,2.11,5.12,1.51.31,2.72,0,5.43-1.5a25.61,25.61,0,0,1,20.21-3.62c10.85,2.41,17.49,10.25,17.18,22.61l-35-8.14C450.59,506.55,444.86,509.87,443.05,517.71Zm33.17,23.22c-5.42-1.21-9-6.94-6.93-15.68.9-3.32,2.71-4.52,6-3.62l17.49,3.92C489.79,537.91,483.16,542.44,476.22,540.93Zm-82-28.65c-2.41,4.83-1.81,6.94.3,8.45,1.81,1.2,4.52,1.81,8.75,2.71l15.38,3c4.22.9,6.33,0,8.14-2.42,1.2-2.11.9-3.92-.3-6L425,516.2c-1.21-1.81-1.51-3.31.6-6.63l16.59-25.63c2.41-3.92,3.92-4.83,6-4.83l1.81.3c2.71,0,4.52-.6,6-3,2.11-3,1.21-6-2.11-8.15l-30.76-19.6c-3.32-2.41-6.33-1.81-8.44,1.21-1.51,2.71-1.51,5.43.9,7.84l4.22,3.62c2.41,1.81,2.11,4.52-.3,8.14l-12.36,19.6c-5.73,9.05-11.76,11.46-15.38,9.05-1.81-1.21-2.41-3-.61-5.73l1.51-2.41c3.32-5.13,2.11-10.56-4.22-14.78-6-3.92-13-2.11-19.3,7.54-6.33,10.25-4.82,19,3,24.12,7.84,4.83,16.88,4.53,26.23-3Zm-62.72-53.37c-3.62,3.92-3.92,6.33-2.11,8.14,1.2,1.81,3.92,3,7.53,5.13l13.88,7.23c3.92,2.11,6.33,2.11,8.44.3,1.81-1.81,2.11-3.61,1.51-6l-.91-2.11c-.6-2.11-.6-3.62,2.72-6.33l22.91-19.9c3.62-3,5.13-3.32,6.94-2.72l1.81.61c2.71.9,4.82.6,6.63-1.21,3-2.41,3-5.43.31-8.44l-23.83-27.45c-2.71-3-5.73-3.31-8.44-1.2-2.41,2.11-3.32,4.82-1.21,7.84l3,4.52c1.51,2.72.6,5.13-2.72,7.84l-17.49,15.08c-8.14,7.24-14.47,7.84-17.18,4.52-1.51-1.5-1.51-3.62.9-5.73l2.11-1.81c4.83-4.22,5.13-9.65.3-15.38-4.82-5.42-12.06-5.72-20.5,1.81-9.35,7.84-10.26,16.59-4.23,23.83,6,6.93,15.08,9,25.94,4.52Zm31.36-99.22c8.74,0,12.06,1.51,13.27,4.53.6,2.41,0,4.22-2.72,6.93l-2.71,2.72c-5.13,5.12-6.94,8.44-4.83,13.87,2.42,6,8.45,8.14,15.38,5.43,11.16-4.53,16.29-15.68,11.16-28.65s-15.08-16.89-38.9-17.19l-66-1.21c-7.54-.3-9.95-1.2-13-3.31-2.41-2.11-4.52-2.11-6.63-1.21-3.32,1.21-4.53,4.22-3,7.84l7.54,19.3c1.51,3.32,4.22,4.83,7.54,3.62,2.71-1.21,3.92-2.71,4.22-6l-.3-2.41c0-3.62,3-5.73,8.75-5.73h32.86L301.32,381.1c-4.22,4.53-7.24,5.13-9.65,2.72l-1.51-1.51c-2.11-2.11-4.22-3-6.93-2.11-3.32,1.51-4.53,4.22-3,7.84l13,33.17c1.2,3.62,4.22,4.83,7.84,3.62,2.41-.9,3.62-2.71,4.22-5.43.6-3.62.6-5.43,3.92-8.74l49.46-51ZM259.1,298.78c1.51,22.62,19,37.09,40.71,35.58,22.62-1.81,37.4-18.39,35.59-40.71-1.81-22.61-19-37.09-41-35.28C272.07,259.88,257.29,276.46,259.1,298.78Zm66.34-11.16c3.32,12.37-4.82,23.82-22.91,28.95-16.89,4.83-30.46-.3-33.78-12.06-3.31-12.06,5.13-23.52,23.22-28.65C308.56,271.34,322.43,276.16,325.44,287.62Zm-56.69-70.86a4.26,4.26,0,0,0-5.73,2.71,30.68,30.68,0,0,0,0,7.54l.61,12.06c.3,3,1.2,4.52,3,5.13,1.81.3,3-.3,4.22-2.11l1.51-4.53c.91-1.81,2.41-2.41,5.73-1.5l39.5,11.15c3.32.91,4.53,2.42,4.53,4.83v3.32c.3,2.11,1.2,3.61,3,3.92,2.11.6,3.92-.31,4.83-3l6.93-25.33c.91-2.41,0-4.22-2.41-4.83-1.51-.6-3,0-4.22,1.51l-1.51,2.72c-1.51,2.11-3.32,2.71-6.93,1.5l-38-10.85-.6-.91c-3.92-8.14-4.83-14.17-3.32-19,1.81-6.93,7.24-9,16.28-7.53l35.29,5.12c3.61.61,4.82,2.41,4.82,4.83v3q.45,3.17,2.72,3.62c2.41.6,3.92-.3,4.82-2.71l7.24-25.33c.6-2.72-.3-4.53-2.42-5.43-2.11-.3-3.31.3-4.82,2.11l-1.51,2.41c-1.51,2.11-3,2.41-6.63,1.81l-39.81-6c-12.66-2.11-21.71,2.11-25,13.27-2.41,7.84-.6,16.89,5.43,28.65Zm35-71.47c2.42-1.51,4.22-1.81,7.54.6l27.44,19.6c13.27,9.35,24.13,6.64,33.17-6,8.15-11.46,6.64-26.24-2.11-32.57-2.41-1.81-4.52-1.51-5.73-.3-1.81,2.71,1.51,8.14-1.81,13-3,4.22-7.23,4.52-12.36.6l-27.44-19.6,5.43-7.54c5.43-7.84,4.82-13,.9-15.68-2.71-1.81-5.43-1.21-7.84,1.81l-9.65,13.57-10.85-7.54c-3.62-2.71-6.94-1.81-9.05,1.21-1.81,2.41-1.81,6.63-.3,10.85l4.22,10c1.51,3.92,1.51,6,.3,7.84l-1.81,2.42a6.21,6.21,0,0,0,1.21,8.74c2.41,1.51,4.52,1.81,6.93.3Zm59.71-90.77c-19.6,15.38-22.62,39.5-9.05,56.39,14.48,18.39,37.4,21.11,56.7,5.73,19.6-15.38,22.61-39.2,9-56.39C405.66,41.85,382.74,39.44,363.44,54.52Zm44.33,47c-4.82,5.73-14.78,4.83-28.65-6C365.55,84.67,362.23,75,366.76,69.6c4.82-6,15.08-4.83,28.65,6C408.67,85.88,412.29,95.83,407.77,101.56Zm41.31-85.94c-1.2-3.62-3.92-5.43-7.23-4.53-2.72.91-5.43,2.42-9.35,5.73l-10.86,8.45c-3.32,2.71-4.52,4.82-3.62,7.54.61,2.41,2.11,3.61,4.83,4.22l2.11-.3c2.11.3,3.62,1.2,4.52,5.12l18.7,65.44c1.21,4.52.9,6.33-.3,7.54L446.37,116a6.81,6.81,0,0,0-1.81,6.63c.9,3.62,3.92,4.82,7.54,3.92l29.25-8.44c3.92-.91,5.73-3.62,4.52-7.24a6.17,6.17,0,0,0-4.82-4.52l-2.41-.31c-2.11-.3-3-1.5-4.53-6l-5.43-19.6a29.36,29.36,0,0,0,16.89-.3c20.81-6,32-25.63,24.73-50.06-6-21.41-22.62-32.26-39.81-27.44-9,2.71-15.68,8.75-20.2,17.19ZM463,22c8.44-2.41,16.88,3.32,21.41,18.39,4.22,15.08.6,25-7.84,27.45a14.9,14.9,0,0,1-12.07-2.11L453.91,28.89C456.32,25.27,459,22.85,463,22Z" transform="translate(-258.95 -1.52)"/></g></svg>