<svg id="Layer_1" data-name="Layer 1" xmlns="http://www.w3.org/2000/svg" viewBox="0 0 1048.45 288.79"><defs><style>.cls-1{fill:#c13;fill-rule:evenodd;}</style></defs><g id="logo-Grey"><path class="cls-1" d="M180.47,421.5c20,0,36.28-15.7,36.28-35.74V356.52c0-19.5-16.25-35.74-36.28-35.74H144.72V299.11H407.38a36.06,36.06,0,0,0,35.74-35.74V211.92a36.06,36.06,0,0,0-35.74-35.74h-46v50.36H346.72c-32,0-57.94-26-57.94-57.4V154.52H433.37c39.53,0,72,32.49,72,72v21.67a72.71,72.71,0,0,1-60.11,71.48l38.45,66.07c19.49,34.12,63.9,46,98,26.54a162.61,162.61,0,0,1-35.2-41.16A144.51,144.51,0,0,1,599.63,174c70.94-41.15,161.38-14.62,199.83,58L640.24,391.18c18.42,19.49,43.33,30.32,66.07,30.32h74.2a72.56,72.56,0,0,0,62.27-35.74l49.83-86.65L782.13,154.52h33L907.23,274.2,976,154.52h72.56L965.18,299.11l-41.7,72a150.94,150.94,0,0,1-53.08,53.07,143.31,143.31,0,0,1-72,19H672.2a148,148,0,0,1-72.57-19c-68.78,39.53-157,15.71-196.59-53.07L373.8,320.78h-85v50.36c0,39.53-32.5,72-72,72H72.16c-39.54,0-72-32.5-72-72V226.54c0-39.53,32.49-72,72-72H216.75A75.62,75.62,0,0,1,253,164.27v4.87c0,31.41-26,57.4-57.94,57.4H180.47V212.46c0-20-15.71-36.28-35.75-36.28H108.44a36.28,36.28,0,0,0-36.28,36.28v173.3c0,20,16.24,35.74,36.28,35.74ZM735.56,261.75C715,206.51,674.9,171.31,639.7,180.51c-38.45,10.29-55.24,71.49-37.91,137a219.6,219.6,0,0,0,23.83,54.69Z" transform="translate(-0.13 -154.52)"/></g></svg>