<svg id="Layer_1" data-name="Layer 1" xmlns="http://www.w3.org/2000/svg" viewBox="0 0 751.36 594.66"><defs><style>.cls-1{fill:#c13;fill-rule:evenodd;}</style></defs><g id="logo-JKA"><path class="cls-1" d="M148.78,160.35H274.23v313c0,68.66-56.34,125-125.45,125ZM618.43,401.12V321.45L587.18,341.7v59.42a9.4,9.4,0,0,0,9.25,9.68h12.32A9.77,9.77,0,0,0,618.43,401.12ZM305.48,3.65c68.66,0,125,56.34,125,125.45V316.61l70-36.1a56.91,56.91,0,0,1-20.25-13.64c-24.65-24.21-24.65-63.82,0-88.47a63.45,63.45,0,0,1,44-18.05h94.19c68.67,0,125,56.34,125,125V442.05H461.74V354.46a12.69,12.69,0,0,0-12.33-12.76H430.49V442.05h-125V38c0-4.85-4.4-9.25-9.68-9.25H261.46a61.91,61.91,0,0,1,12.77,37.42,62.93,62.93,0,0,1-62.94,62.94c-34.34,0-62.51-28.17-62.51-62.94A62.75,62.75,0,0,1,211.29,3.65Zm312.95,191a9.4,9.4,0,0,0-9.68-9.24H574.42c18.49,24.21,16.72,59.42-5.72,81.43a61,61,0,0,1-15.41,11.44l-74.39,38.3H587.18l31.25-20.25ZM793.18,335.09c24.65-24.64,64.26-24.64,88.47,0,24.65,24.21,24.65,63.83,0,88.48-24.21,24.65-63.82,24.65-88.47,0S768.53,359.3,793.18,335.09Z" transform="translate(-148.78 -3.65)"/></g></svg>