<svg id="Layer_1" data-name="Layer 1" xmlns="http://www.w3.org/2000/svg" viewBox="0 0 515.42 597.91"><defs><style>.cls-1{fill:#c13;fill-rule:evenodd;}</style></defs><g id="logo-BSharp"><path class="cls-1" d="M590.66,599.82l29-141H536.83l-28.66,141ZM495,1.91l-83.26,407-3.48,16.66H653L666.56,359l23.62-116.17,17-82.87,3.48-16.66H548.84l29-141.34Zm13.16,340.78L531.8,226.12h79L587.17,342.69ZM743.23,375.6H674.3L663.07,431l-29.43,27.88h92.55ZM715,176.17l-17,83.26h68.92l17-83.26Zm-91.39-141-19,97.2h82.87l19-97.2ZM416,259.43l16.65-83.26H326.17l-17,83.26ZM268.47,458.86H375l-28.65,141h82.87l28.65-141H375l17-83.26H285.51Z" transform="translate(-268.47 -1.91)"/></g></svg>