<svg id="Layer_1" data-name="Layer 1" xmlns="http://www.w3.org/2000/svg" viewBox="0 0 597.44 597.44"><defs><style>.cls-1,.cls-2{fill:none;stroke-linecap:round;stroke-linejoin:round;stroke-width:12.82px;}.cls-1{stroke:#c13;}.cls-2{stroke:#00002c;}</style></defs><g id="team-icons-service-web"><g id="highlight-phone"><path class="cls-1" d="M817.16,593.51,641.77,506.4V96.58L817.16,8.89Z" transform="translate(-226.13 -2.48)"/><path class="cls-1" d="M709,447.94c-8.77,0-12.27,10.52-12.27,21.63,0,14.61,8.77,31.57,22.8,31.57,7.6,0,12.27-8.77,12.27-19.29C731.8,463.72,721.86,447.94,709,447.94Z" transform="translate(-226.13 -2.48)"/></g><g id="screens"><path class="cls-2" d="M612.54,491.78V110.62m-190-50.87-190-50.86V593.51l190-50.86" transform="translate(-226.13 -2.48)"/><path class="cls-2" d="M612.54,491.78V110.62M565.19,85.48,422.54,8.89V593.51l142.65-76" transform="translate(-226.13 -2.48)"/><path class="cls-2" d="M612.54,96.58,565.19,8.89V593.51l47.35-87.11Z" transform="translate(-226.13 -2.48)"/></g></g></svg>