<svg id="Layer_1" data-name="Layer 1" xmlns="http://www.w3.org/2000/svg" viewBox="0 0 993.28 578.37"><defs><style>.cls-1,.cls-2{fill:none;stroke-miterlimit:10;stroke-width:14.79px;}.cls-1{stroke:#00002c;}.cls-2{stroke:#c13;}</style></defs><g id="team-icons-process-research"><g id="eye"><path class="cls-1" d="M1013.35,298.68c-97.29,168.57-279.69,281.79-488.1,281.79S134.44,467.25,37.16,298.68C134.44,130.53,316.85,16.89,525.25,16.89S916.06,130.53,1013.35,298.68Z" transform="translate(-28.61 -9.5)"/><path class="cls-1" d="M807,298.68c0,155.57-126.22,281.79-281.79,281.79S243.46,454.25,243.46,298.68,369.68,16.89,525.25,16.89,807,143.11,807,298.68Z" transform="translate(-28.61 -9.5)"/></g><g id="highlight-pupil"><path class="cls-2" d="M525.25,298.68V110.82c103.57,0,187.86,84.29,187.86,187.86,0,104-84.29,187.86-187.86,187.86S337.39,402.67,337.39,298.68A187.57,187.57,0,0,1,431.32,136Z" transform="translate(-28.61 -9.5)"/></g></g></svg>