<svg id="Layer_1" data-name="Layer 1" xmlns="http://www.w3.org/2000/svg" viewBox="0 0 458.66 598.24"><defs><style>.cls-1,.cls-2{fill:none;stroke-linecap:round;stroke-linejoin:round;stroke-width:9.84px;}.cls-1{stroke:#00002c;}.cls-2{stroke:#c13;}</style></defs><g id="team-icons-service-print"><g id="pages-lines"><g id="pages"><path class="cls-1" d="M552.81,117.42h85.28m0,421.45v55.65H301V117.42h55.65" transform="translate(-296.11 -1.2)"/><path class="cls-1" d="M694.19,482.76v56.11H356.68V61.77h55.65" transform="translate(-296.11 -1.2)"/></g><g id="lines"><path class="cls-1" d="M552.81,117.42H694.19" transform="translate(-296.11 -1.2)"/><path class="cls-1" d="M552.81,176.67H694.19" transform="translate(-296.11 -1.2)"/><path class="cls-1" d="M552.81,235.91H694.19" transform="translate(-296.11 -1.2)"/><path class="cls-1" d="M552.81,147.05H694.19" transform="translate(-296.11 -1.2)"/><path class="cls-1" d="M552.81,206.29H694.19" transform="translate(-296.11 -1.2)"/><path class="cls-1" d="M552.81,384H694.19" transform="translate(-296.11 -1.2)"/><path class="cls-1" d="M552.81,324.78H694.19" transform="translate(-296.11 -1.2)"/><path class="cls-1" d="M552.81,265.54H694.19" transform="translate(-296.11 -1.2)"/><path class="cls-1" d="M552.81,354.4H694.19" transform="translate(-296.11 -1.2)"/></g></g><g id="highlight-page"><rect class="cls-2" x="116.23" y="4.92" width="337.51" height="476.65"/></g></g></svg>