<svg id="Layer_1" data-name="Layer 1" xmlns="http://www.w3.org/2000/svg" viewBox="0 0 860.15 578.37"><defs><style>.cls-1,.cls-2{fill:none;stroke-miterlimit:10;stroke-width:14.79px;}.cls-1{stroke:#00002c;}.cls-2{stroke:#c13;}</style></defs><g id="team-icons-process-talk"><g id="intersect"><path class="cls-1" d="M384.33,580.47c155.15,0,281.79-126.64,281.79-281.79S539.48,16.89,384.33,16.89,102.55,143.53,102.55,298.68,229.18,580.47,384.33,580.47Z" transform="translate(-95.15 -9.5)"/><path class="cls-1" d="M666.12,580.47c155.15,0,281.79-126.64,281.79-281.79S821.27,16.89,666.12,16.89,384.33,143.53,384.33,298.68,511,580.47,666.12,580.47Z" transform="translate(-95.15 -9.5)"/></g><path class="cls-2" d="M525.23,439.57c77.57,0,140.89-63.31,140.89-140.89S602.8,157.79,525.23,157.79s-140.9,63.32-140.9,140.89S447.65,439.57,525.23,439.57Z" transform="translate(-95.15 -9.5)"/></g></svg>