<svg 
    id="Layer_1" 
    data-name="Layer 1" 
    xmlns="http://www.w3.org/2000/svg" 
    viewBox="0 0 1033.89 358.22">
    <defs>
        <style>
            .cls-1{fill:none;stroke:#c13;stroke-miterlimit:10;stroke-width:11.27px;}
            .cls-2{fill:#c4c2c2;}
        </style>
    </defs>
    <g id="Crusader-Logo-name">
        <g id="crusader-icon">
            <path 
                class="cls-1" 
                d="M149.13,127.94V236H13.79" 
                transform="translate(-13.79 -127.94)"
            />
            <path 
                class="cls-1" 
                d="M257.17,263.28H121.83v108" 
                transform="translate(-13.79 -127.94)"
            />
        </g>
        <path class="cls-2" d="M237.61,363.22a73.59,73.59,0,0,1-21.47,3A62.36,62.36,0,0,1,198.5,364q-7.65-2.28-11.92-6.44a13.17,13.17,0,0,1-4.28-9.72,14.6,14.6,0,0,1,4.33-10.54,27.21,27.21,0,0,1,11.87-6.72,58.55,58.55,0,0,1,16.87-2.27,65.78,65.78,0,0,1,21.57,3.49,48.6,48.6,0,0,1,17.7,10.6l4.11-.77V321.31h-8.21v9.33a59.77,59.77,0,0,0-16.65-7.89,69.77,69.77,0,0,0-41.66.39,35.82,35.82,0,0,0-15.47,9.66A22,22,0,0,0,171,348.07a20.52,20.52,0,0,0,5.49,14q5.49,6.17,15.37,9.55A70.59,70.59,0,0,0,214.7,375a87.23,87.23,0,0,0,24.69-3.38,78.3,78.3,0,0,0,20.69-9.39l-4-7.54A73.51,73.51,0,0,1,237.61,363.22Z" transform="translate(-13.79 -127.94)"/><path class="cls-2" d="M310.45,341V321.31H276.28v8.77h23.3v34.75h-23.3v8.77H333v-8.77H310.45V348.51A110.85,110.85,0,0,1,334.63,335a65.07,65.07,0,0,1,22.31-4.89v14.66h9.54V320.09l-5.77-.11Q336.74,320,310.45,341Z" transform="translate(-13.79 -127.94)"/>
        <path class="cls-2" d="M497.17,371l-2.78-7.77a13.62,13.62,0,0,1-7.76,2.56,6.71,6.71,0,0,1-5.22-2.39q-2.1-2.38-2.1-7.27V321.31H448.57v8.77h19.86V349.4q-21.63,15.42-38.49,15.43-22.63-.12-22.64-20.65V321.31H374.68v8.77h21.75v13.66q0,14.31,7.65,22.81T427.72,375a47.81,47.81,0,0,0,20.35-4.5,120.94,120.94,0,0,0,20.36-12.26c.08,5.25,1.57,9.34,4.5,12.26a15.21,15.21,0,0,0,11.26,4.39,22.9,22.9,0,0,0,7.15-1A23.14,23.14,0,0,0,497.17,371Z" transform="translate(-13.79 -127.94)"/>
        <path class="cls-2" d="M520.47,363.83A59.87,59.87,0,0,0,539,372,88.86,88.86,0,0,0,562.41,375q16.74,0,25.63-4.11t8.87-11.65a10.67,10.67,0,0,0-4-8.66q-4.05-3.33-12.7-5.22a149.74,149.74,0,0,0-23.08-2.66q-13.2-.67-20.3-1.61t-10-2.39q-2.94-1.44-2.94-3.89,0-7.65,22.41-7.65a82.14,82.14,0,0,1,24.3,3.55,48.12,48.12,0,0,1,19.19,10.77l3.77-.67V321.31h-8.21V331q-16.53-11.21-39.38-11.21-16.75,0-25,4.27t-8.21,11.6q0,7.67,9,11.49t29.68,4.72q13.43.66,20.86,1.61t10.54,2.5q3.1,1.55,3.11,4.22c0,2.59-2,4.47-6,5.66s-10,1.77-17.87,1.77a89.14,89.14,0,0,1-26.35-3.83q-12.48-3.82-19.58-11.15l-3.88.77V373.6h8.21Z" transform="translate(-13.79 -127.94)"/>
        <path class="cls-2" d="M697.09,371.93a14.3,14.3,0,0,0,9,3A21.68,21.68,0,0,0,718.62,371l-3-7.66a12.91,12.91,0,0,1-7.43,2.45,6.84,6.84,0,0,1-5.22-2.28q-2.1-2.26-2.1-6.83V348.4q0-13.54-9.71-21T661.81,320a148.51,148.51,0,0,0-46.6,7.55l2.45,8.21q23.63-7.32,42.38-7.32,15.42,0,22.91,4.6T691,347a149.4,149.4,0,0,0-40.83-5.78q-17.31,0-26.79,4.55t-9.49,13.1q0,7.77,7.6,12t21.8,4.22a110,110,0,0,0,25-2.94,113.64,113.64,0,0,0,23.52-8.16A15.06,15.06,0,0,0,697.09,371.93Zm-6-14.21a152.33,152.33,0,0,1-23.3,6.33,118.94,118.94,0,0,1-22.07,2.33q-10.44,0-15.37-2t-4.94-6c0-2.89,2.17-5.12,6.49-6.72s10.41-2.38,18.25-2.38a217.29,217.29,0,0,1,40.94,3.88Z" transform="translate(-13.79 -127.94)"/><path class="cls-2" d="M743.69,372.27a53.72,53.72,0,0,0,18.64,3,68,68,0,0,0,25-4.72,135.44,135.44,0,0,0,25-13.15V358q0,8.1,4.39,12.54a15.13,15.13,0,0,0,11.26,4.44,23.48,23.48,0,0,0,7.21-1A23,23,0,0,0,841,371l-2.88-7.77a13.67,13.67,0,0,1-7.77,2.56,6.53,6.53,0,0,1-5.16-2.39q-2.05-2.38-2-7.27V297.44H789.51v8.77h22.74v23A107.89,107.89,0,0,0,769.54,320,62,62,0,0,0,748,323.59a36.73,36.73,0,0,0-15.59,10.32,23.39,23.39,0,0,0-5.77,15.71,21.91,21.91,0,0,0,4.5,13.88A27.67,27.67,0,0,0,743.69,372.27Zm-1.5-33.64a28,28,0,0,1,11.71-7.05,52.9,52.9,0,0,1,16.86-2.5,107.94,107.94,0,0,1,21.41,2.22,120.7,120.7,0,0,1,20.08,5.78v12.21A129.61,129.61,0,0,1,787,361.55a70.21,70.21,0,0,1-23.08,4.39q-12.2,0-19.08-4.55t-6.88-12.33A14.8,14.8,0,0,1,742.19,338.63Z" transform="translate(-13.79 -127.94)"/><path class="cls-2" d="M922.2,364.11a80.28,80.28,0,0,1-20.74,2.49,78.47,78.47,0,0,1-19.81-2.27q-8.7-2.28-13.64-6.55t-4.94-9.94v-1.11q22.74,7.33,41.94,7.33,16.86,0,26.24-4.11t9.37-12.21q0-8.55-10.54-13.21t-28.73-4.66a84,84,0,0,0-24.8,3.44q-11.14,3.44-17.59,9.88a20.55,20.55,0,0,0-6.43,15,19.59,19.59,0,0,0,6.32,14.7q6.33,6.06,17.15,9.16a87.32,87.32,0,0,0,24.13,3.11q24.63,0,43-10.65L939.4,357A68.65,68.65,0,0,1,922.2,364.11Zm-42.38-33a72,72,0,0,1,22.41-3.33q12.87,0,20.2,2.55t7.32,7.22q0,4.67-6.16,6.6t-18.47,1.95a147.51,147.51,0,0,1-19.75-1.39,131.06,131.06,0,0,1-20-4.27Q869.62,334.41,879.82,331.08Z" transform="translate(-13.79 -127.94)"/><path class="cls-2" d="M1041.91,320q-24,0-50.25,21V321.31H957.48v8.77h23.3v34.75h-23.3v8.77h56.7v-8.77H991.66V348.51A110.85,110.85,0,0,1,1015.84,335a65.07,65.07,0,0,1,22.3-4.89v14.66h9.54V320.09Z" transform="translate(-13.79 -127.94)"/><path class="cls-2" d="M237.61,474.23a73.59,73.59,0,0,1-21.47,3A62,62,0,0,1,198.5,475q-7.65-2.26-11.92-6.44a13.14,13.14,0,0,1-4.28-9.71,14.64,14.64,0,0,1,4.33-10.55,27.29,27.29,0,0,1,11.87-6.71,58.2,58.2,0,0,1,16.87-2.28,65.78,65.78,0,0,1,21.57,3.5,48.6,48.6,0,0,1,17.7,10.6l4.11-.78V432.32h-8.21v9.32a60,60,0,0,0-16.65-7.88,69.77,69.77,0,0,0-41.66.39,35.64,35.64,0,0,0-15.47,9.66A22,22,0,0,0,171,459.07a20.53,20.53,0,0,0,5.49,14.05q5.49,6.15,15.37,9.54a70.31,70.31,0,0,0,22.85,3.39,86.87,86.87,0,0,0,24.69-3.39,78,78,0,0,0,20.69-9.38l-4-7.55A73.19,73.19,0,0,1,237.61,474.23Z" transform="translate(-13.79 -127.94)"/><path class="cls-2" d="M310.45,452V432.32H276.28v8.77h23.3v34.75h-23.3v8.77H333v-8.77H310.45V459.52A111.33,111.33,0,0,1,334.63,446a65.28,65.28,0,0,1,22.31-4.88v14.65h9.54V431.1l-5.77-.11Q336.74,431,310.45,452Z" transform="translate(-13.79 -127.94)"/><path class="cls-2" d="M449.13,475.11a79.91,79.91,0,0,1-20.75,2.5,78.9,78.9,0,0,1-19.8-2.27q-8.71-2.28-13.65-6.55T390,458.85v-1.11q22.74,7.32,41.93,7.33,16.88,0,26.24-4.11t9.38-12.21q0-8.55-10.54-13.21t-28.74-4.66a83.6,83.6,0,0,0-24.79,3.44q-11.16,3.44-17.59,9.88a20.55,20.55,0,0,0-6.43,15,19.56,19.56,0,0,0,6.32,14.71q6.33,6.06,17.14,9.16a87.37,87.37,0,0,0,24.13,3.11q24.63,0,43.05-10.66L466.33,468A68.22,68.22,0,0,1,449.13,475.11Zm-42.38-33a71.88,71.88,0,0,1,22.41-3.33q12.87,0,20.19,2.55t7.32,7.22q0,4.67-6.15,6.6T432,457.08a149,149,0,0,1-19.74-1.39,129.88,129.88,0,0,1-20-4.28Q396.54,445.43,406.75,442.09Z" transform="translate(-13.79 -127.94)"/><path class="cls-2" d="M581.38,476.83a6.79,6.79,0,0,1-5.21-2.27c-1.41-1.52-2.11-3.79-2.11-6.83v-8.32q0-13.55-9.71-21T535,431a148.11,148.11,0,0,0-46.59,7.55l2.44,8.21q23.63-7.32,42.38-7.33,15.42,0,22.91,4.61t8,13.93a149.77,149.77,0,0,0-40.83-5.77q-17.3,0-26.79,4.55t-9.48,13.1q0,7.77,7.59,12t21.81,4.22a110,110,0,0,0,25-2.94A113.64,113.64,0,0,0,565,475a15.06,15.06,0,0,0,5.32,8,14.3,14.3,0,0,0,9,3,21.66,21.66,0,0,0,12.54-3.89l-3-7.66A12.9,12.9,0,0,1,581.38,476.83Zm-17.09-8.1A153.67,153.67,0,0,1,541,475.06a119.13,119.13,0,0,1-22.08,2.33q-10.44,0-15.37-2t-4.94-6q0-4.33,6.49-6.72t18.25-2.39a217.3,217.3,0,0,1,40.94,3.89Z" transform="translate(-13.79 -127.94)"/><path class="cls-2" d="M635.63,476.5q-14.76,0-14.76-14.65V441.09h33v-8.77h-33V417.78H610v14.54H592.58v8.77H610V462q0,12,6.44,18t18.75,6.05a55.94,55.94,0,0,0,27.29-7.33l-3.77-8.1A48.67,48.67,0,0,1,635.63,476.5Z" transform="translate(-13.79 -127.94)"/><polygon class="cls-2" points="694.06 304.38 659.89 304.38 659.89 313.15 683.19 313.15 683.19 347.9 659.89 347.9 659.89 356.67 716.59 356.67 716.59 347.9 694.06 347.9 694.06 304.38"/><path class="cls-2" d="M701.2,406.9a11.88,11.88,0,0,0-7.05,1.94,5.87,5.87,0,0,0-2.72,4.94,5.61,5.61,0,0,0,2.72,4.77,14.39,14.39,0,0,0,14.15.06,5.67,5.67,0,0,0,2.55-4.83,5.86,5.86,0,0,0-2.61-5A11.75,11.75,0,0,0,701.2,406.9Z" transform="translate(-13.79 -127.94)"/><polygon class="cls-2" points="786.93 313.15 801.02 313.15 774.61 347.68 748.21 313.15 762.3 313.15 762.3 304.38 718.8 304.38 718.8 313.15 735.11 313.15 770.51 358.11 775.94 358.11 811.33 313.15 827.87 313.15 827.87 304.38 786.93 304.38 786.93 313.15"/><path class="cls-2" d="M918.88,475.11a80,80,0,0,1-20.75,2.5,78.79,78.79,0,0,1-19.8-2.27q-8.72-2.28-13.65-6.55t-4.94-9.94v-1.11q22.74,7.32,41.94,7.33,16.86,0,26.24-4.11t9.37-12.21q0-8.55-10.54-13.21T898,430.88a83.71,83.71,0,0,0-24.8,3.44q-11.15,3.44-17.58,9.88a20.56,20.56,0,0,0-6.44,15,19.57,19.57,0,0,0,6.33,14.71q6.32,6.06,17.14,9.16a87.32,87.32,0,0,0,24.13,3.11q24.63,0,43-10.66L936.07,468A68,68,0,0,1,918.88,475.11Zm-42.38-33a71.88,71.88,0,0,1,22.41-3.33q12.87,0,20.19,2.55t7.32,7.22q0,4.67-6.16,6.6t-18.47,1.95A149.18,149.18,0,0,1,882,455.69a130.14,130.14,0,0,1-20-4.28Q866.29,445.43,876.5,442.09Z" transform="translate(-13.79 -127.94)"/>
    </g>
</svg>